<?xml version="1.0" standalone="no"?>
<!DOCTYPE svg PUBLIC "-//W3C//DTD SVG 1.1//EN" "http://www.w3.org/Graphics/SVG/1.1/DTD/svg11.dtd" >
<svg xmlns="http://www.w3.org/2000/svg" xmlns:xlink="http://www.w3.org/1999/xlink" version="1.1">
<metadata></metadata>
<defs>
<font id="equipo_squaredanceregular" horiz-adv-x="2048" >
<font-face units-per-em="2048" ascent="1638" descent="-410" />
<missing-glyph horiz-adv-x="819" />
<glyph horiz-adv-x="0" />
<glyph unicode="&#xd;" horiz-adv-x="1228" />
<glyph unicode=" "  horiz-adv-x="819" />
<glyph unicode="&#x09;" horiz-adv-x="819" />
<glyph unicode="&#xa0;" horiz-adv-x="819" />
<glyph unicode="!" horiz-adv-x="819" d="M123 0v123h123v-123h-123zM123 410v122h123v-122h-123zM123 614v123h123v-123h-123zM123 819v123h123v-123h-123zM123 1024v123h123v-123h-123zM123 1229v123h123v-123h-123zM123 1434v122h123v-122h-123zM328 0v123h123v-123h-123zM328 410v122h123v-122h-123zM328 614 v123h123v-123h-123zM328 819v123h123v-123h-123zM328 1024v123h123v-123h-123zM328 1229v123h123v-123h-123zM328 1434v122h123v-122h-123zM532 0v123h123v-123h-123zM532 410v122h123v-122h-123zM532 614v123h123v-123h-123zM532 819v123h123v-123h-123zM532 1024v123h123 v-123h-123zM532 1229v123h123v-123h-123zM532 1434v122h123v-122h-123z" />
<glyph unicode="&#x22;" horiz-adv-x="819" d="M123 1024v123h123v-123h-123zM123 1229v123h123v-123h-123zM123 1434v122h123v-122h-123zM532 1024v123h123v-123h-123zM532 1229v123h123v-123h-123zM532 1434v122h123v-122h-123z" />
<glyph unicode="#" horiz-adv-x="1925" d="M123 410v122h123v-122h-123zM123 1024v123h123v-123h-123zM328 410v122h123v-122h-123zM328 1024v123h123v-123h-123zM532 0v123h123v-123h-123zM532 205v123h123v-123h-123zM532 410v122h123v-122h-123zM532 614v123h123v-123h-123zM532 819v123h123v-123h-123z M532 1024v123h123v-123h-123zM532 1229v123h123v-123h-123zM532 1434v122h123v-122h-123zM737 410v122h123v-122h-123zM737 1024v123h123v-123h-123zM942 410v122h123v-122h-123zM942 1024v123h123v-123h-123zM1147 410v122h123v-122h-123zM1147 1024v123h123v-123h-123z M1352 0v123h123v-123h-123zM1352 205v123h123v-123h-123zM1352 410v122h123v-122h-123zM1352 614v123h123v-123h-123zM1352 819v123h123v-123h-123zM1352 1024v123h123v-123h-123zM1352 1229v123h123v-123h-123zM1352 1434v122h123v-122h-123zM1556 410v122h123v-122h-123z M1556 1024v123h123v-123h-123zM1761 410v122h123v-122h-123zM1761 1024v123h123v-123h-123z" />
<glyph unicode="$" horiz-adv-x="2050" d="M123 1024v123h123v-123h-123zM125 0v123h123v-123h-123zM125 819v123h123v-123h-123zM330 0v123h123v-123h-123zM330 614v123h123v-123h-123zM330 1229v123h123v-123h-123zM535 0v123h122v-123h-122zM535 614v123h122v-123h-122zM535 1229v123h122v-123h-122zM739 0v123 h123v-123h-123zM739 614v123h123v-123h-123zM739 1229v123h123v-123h-123zM944 0v123h123v-123h-123zM944 205v123h123v-123h-123zM944 410v122h123v-122h-123zM944 614v123h123v-123h-123zM944 819v123h123v-123h-123zM944 1024v123h123v-123h-123zM944 1229v123h123v-123 h-123zM944 1434v122h123v-122h-123zM1149 0v123h123v-123h-123zM1149 614v123h123v-123h-123zM1149 1229v123h123v-123h-123zM1354 0v123h123v-123h-123zM1354 614v123h123v-123h-123zM1354 1229v123h123v-123h-123zM1559 0v123h122v-123h-122zM1559 614v123h122v-123h-122z M1559 1229v123h122v-123h-122zM1763 205v123h123v-123h-123zM1763 410v122h123v-122h-123zM1763 1229v123h123v-123h-123z" />
<glyph unicode="%" horiz-adv-x="1845" d="M123 0v123h123v-123h-123zM330 205v123h123v-123h-123zM330 1229v123h123v-123h-123zM535 410v122h122v-122h-122zM535 1024v123h122v-123h-122zM535 1434v122h122v-122h-122zM739 614v123h123v-123h-123zM739 1229v123h123v-123h-123zM944 205v123h123v-123h-123z M944 205v123h123v-123h-123zM944 819v123h123v-123h-123zM1149 0v123h123v-123h-123zM1149 0v123h123v-123h-123zM1149 410v122h123v-122h-123zM1149 410v122h123v-122h-123zM1149 1024v123h123v-123h-123zM1352 1229v123h123v-123h-123zM1354 205v123h123v-123h-123z M1354 205v123h123v-123h-123zM1559 1434v122h122v-122h-122z" />
<glyph unicode="&#x26;" d="M123 821v123h123v-123h-123zM328 821v123h123v-123h-123zM532 821v123h123v-123h-123zM737 821v123h123v-123h-123zM942 0v123h123v-123h-123zM942 205v123h123v-123h-123zM942 410v122h123v-122h-123zM942 614v123h123v-123h-123zM942 821v123h123v-123h-123zM942 1024 v123h123v-123h-123zM942 1229v123h123v-123h-123zM942 1434v122h123v-122h-123zM942 1638v123h123v-123h-123zM1147 821v123h123v-123h-123zM1352 821v123h123v-123h-123zM1556 821v123h123v-123h-123zM1761 821v123h123v-123h-123z" />
<glyph unicode="'" horiz-adv-x="409" d="M123 1024v123h123v-123h-123zM123 1229v123h123v-123h-123zM123 1434v122h123v-122h-123z" />
<glyph unicode="(" horiz-adv-x="614" d="M123 205v123h123v-123h-123zM123 410v122h123v-122h-123zM123 614v123h123v-123h-123zM123 819v123h123v-123h-123zM123 1024v123h123v-123h-123zM123 1229v123h123v-123h-123zM328 0v123h123v-123h-123zM328 1434v122h123v-122h-123z" />
<glyph unicode=")" horiz-adv-x="614" d="M123 0v123h123v-123h-123zM123 1434v122h123v-122h-123zM328 205v123h123v-123h-123zM328 410v122h123v-122h-123zM328 614v123h123v-123h-123zM328 819v123h123v-123h-123zM328 1024v123h123v-123h-123zM328 1229v123h123v-123h-123z" />
<glyph unicode="*" horiz-adv-x="821" d="M123 1024v123h123v-123h-123zM123 1434v122h123v-122h-123zM328 1229v123h123v-123h-123zM532 1434v122h123v-122h-123zM535 1024v123h122v-123h-122z" />
<glyph unicode="+" horiz-adv-x="1228" d="M123 614v123h123v-123h-123zM330 614v123h123v-123h-123zM532 614v123h123v-123h-123zM535 205v123h122v-123h-122zM535 410v122h122v-122h-122zM535 819v123h122v-123h-122zM535 1024v123h122v-123h-122zM737 614v123h123v-123h-123zM942 614v123h123v-123h-123z" />
<glyph unicode="," horiz-adv-x="614" d="M123 0v123h123v-123h-123zM123 205v123h123v-123h-123zM328 0v123h123v-123h-123zM328 -82h123v-123h-123v123zM328 205v123h123v-123h-123z" />
<glyph unicode="-" horiz-adv-x="1433" d="M123 819v123h123v-123h-123zM328 819v123h123v-123h-123zM532 819v123h123v-123h-123zM737 819v123h123v-123h-123zM942 819v123h123v-123h-123zM1147 819v123h123v-123h-123z" />
<glyph unicode="." horiz-adv-x="614" d="M123 0v123h123v-123h-123zM123 205v123h123v-123h-123zM328 0v123h123v-123h-123zM328 205v123h123v-123h-123z" />
<glyph unicode="/" horiz-adv-x="1843" d="M123 0v123h123v-123h-123zM328 205v123h123v-123h-123zM532 410v122h123v-122h-123zM737 614v123h123v-123h-123zM942 819v123h123v-123h-123zM1147 1024v123h123v-123h-123zM1352 1229v123h123v-123h-123zM1556 1434v122h123v-122h-123z" />
<glyph unicode="0" d="M123 205v123h123v-123h-123zM123 410v122h123v-122h-123zM123 614v123h123v-123h-123zM123 819v123h123v-123h-123zM123 1024v123h123v-123h-123zM123 1229v123h123v-123h-123zM328 0v123h123v-123h-123zM328 205v123h123v-123h-123zM328 410v122h123v-122h-123zM328 614 v123h123v-123h-123zM328 819v123h123v-123h-123zM328 1024v123h123v-123h-123zM328 1229v123h123v-123h-123zM328 1434v122h123v-122h-123zM532 0v123h123v-123h-123zM532 205v123h123v-123h-123zM532 410v122h123v-122h-123zM532 614v123h123v-123h-123zM532 819v123h123 v-123h-123zM532 1024v123h123v-123h-123zM532 1229v123h123v-123h-123zM532 1434v122h123v-122h-123zM737 0v123h123v-123h-123zM737 205v123h123v-123h-123zM737 410v122h123v-122h-123zM737 1229v123h123v-123h-123zM737 1434v122h123v-122h-123zM942 0v123h123v-123h-123 zM942 205v123h123v-123h-123zM942 614v123h123v-123h-123zM942 1229v123h123v-123h-123zM942 1434v122h123v-122h-123zM1147 0v123h123v-123h-123zM1147 205v123h123v-123h-123zM1147 819v123h123v-123h-123zM1147 1229v123h123v-123h-123zM1147 1434v122h123v-122h-123z M1352 0v123h123v-123h-123zM1352 205v123h123v-123h-123zM1352 410v122h123v-122h-123zM1352 614v123h123v-123h-123zM1352 819v123h123v-123h-123zM1352 1024v123h123v-123h-123zM1352 1229v123h123v-123h-123zM1352 1434v122h123v-122h-123zM1556 0v123h123v-123h-123z M1556 205v123h123v-123h-123zM1556 410v122h123v-122h-123zM1556 614v123h123v-123h-123zM1556 819v123h123v-123h-123zM1556 1024v123h123v-123h-123zM1556 1229v123h123v-123h-123zM1556 1434v122h123v-122h-123zM1761 205v123h123v-123h-123zM1761 410v122h123v-122h-123 zM1761 614v123h123v-123h-123zM1761 819v123h123v-123h-123zM1761 1024v123h123v-123h-123zM1761 1229v123h123v-123h-123z" />
<glyph unicode="1" horiz-adv-x="1228" d="M123 0v123h123v-123h-123zM123 1024v123h123v-123h-123zM328 0v123h123v-123h-123zM328 205v123h123v-123h-123zM328 410v122h123v-122h-123zM328 614v123h123v-123h-123zM328 819v123h123v-123h-123zM328 1024v123h123v-123h-123zM328 1229v123h123v-123h-123zM532 0 v123h123v-123h-123zM532 205v123h123v-123h-123zM532 410v122h123v-122h-123zM532 614v123h123v-123h-123zM532 819v123h123v-123h-123zM532 1024v123h123v-123h-123zM532 1229v123h123v-123h-123zM532 1434v122h123v-122h-123zM737 0v123h123v-123h-123zM737 205v123h123 v-123h-123zM737 410v122h123v-122h-123zM737 614v123h123v-123h-123zM737 819v123h123v-123h-123zM737 1024v123h123v-123h-123zM737 1229v123h123v-123h-123zM737 1434v122h123v-122h-123zM942 0v123h123v-123h-123z" />
<glyph unicode="2" d="M123 0v123h123v-123h-123zM123 205v123h123v-123h-123zM123 1024v123h123v-123h-123zM123 1229v123h123v-123h-123zM328 0v123h123v-123h-123zM328 205v123h123v-123h-123zM328 410v122h123v-122h-123zM328 1024v123h123v-123h-123zM328 1229v123h123v-123h-123z M328 1434v122h123v-122h-123zM532 0v123h123v-123h-123zM532 205v123h123v-123h-123zM532 410v122h123v-122h-123zM532 614v123h123v-123h-123zM532 1024v123h123v-123h-123zM532 1229v123h123v-123h-123zM532 1434v122h123v-122h-123zM737 0v123h123v-123h-123zM737 205 v123h123v-123h-123zM737 410v122h123v-122h-123zM737 614v123h123v-123h-123zM737 1229v123h123v-123h-123zM737 1434v122h123v-122h-123zM942 0v123h123v-123h-123zM942 205v123h123v-123h-123zM942 614v123h123v-123h-123zM942 819v123h123v-123h-123zM942 1229v123h123 v-123h-123zM942 1434v122h123v-122h-123zM1147 0v123h123v-123h-123zM1147 205v123h123v-123h-123zM1147 614v123h123v-123h-123zM1147 819v123h123v-123h-123zM1147 1229v123h123v-123h-123zM1147 1434v122h123v-122h-123zM1352 0v123h123v-123h-123zM1352 205v123h123 v-123h-123zM1352 819v123h123v-123h-123zM1352 1024v123h123v-123h-123zM1352 1229v123h123v-123h-123zM1352 1434v122h123v-122h-123zM1556 0v123h123v-123h-123zM1556 205v123h123v-123h-123zM1556 819v123h123v-123h-123zM1556 1024v123h123v-123h-123zM1556 1229v123 h123v-123h-123zM1556 1434v122h123v-122h-123zM1761 0v123h123v-123h-123zM1761 205v123h123v-123h-123zM1761 1024v123h123v-123h-123zM1761 1229v123h123v-123h-123z" />
<glyph unicode="3" horiz-adv-x="1843" d="M123 0v123h123v-123h-123zM123 205v123h123v-123h-123zM123 1229v123h123v-123h-123zM123 1434v122h123v-122h-123zM328 0v123h123v-123h-123zM328 205v123h123v-123h-123zM328 1229v123h123v-123h-123zM328 1434v122h123v-122h-123zM532 0v123h123v-123h-123zM532 205 v123h123v-123h-123zM532 1229v123h123v-123h-123zM532 1434v122h123v-122h-123zM737 0v123h123v-123h-123zM737 205v123h123v-123h-123zM737 614v123h123v-123h-123zM737 819v123h123v-123h-123zM737 1229v123h123v-123h-123zM737 1434v122h123v-122h-123zM942 0v123h123 v-123h-123zM942 205v123h123v-123h-123zM942 614v123h123v-123h-123zM942 819v123h123v-123h-123zM942 1229v123h123v-123h-123zM942 1434v122h123v-122h-123zM1147 0v123h123v-123h-123zM1147 205v123h123v-123h-123zM1147 410v122h123v-122h-123zM1147 614v123h123v-123 h-123zM1147 819v123h123v-123h-123zM1147 1024v123h123v-123h-123zM1147 1229v123h123v-123h-123zM1147 1434v122h123v-122h-123zM1352 0v123h123v-123h-123zM1352 205v123h123v-123h-123zM1352 410v122h123v-122h-123zM1352 614v123h123v-123h-123zM1352 819v123h123v-123 h-123zM1352 1024v123h123v-123h-123zM1352 1229v123h123v-123h-123zM1352 1434v122h123v-122h-123zM1556 205v123h123v-123h-123zM1556 410v122h123v-122h-123zM1556 614v123h123v-123h-123zM1556 1024v123h123v-123h-123zM1556 1229v123h123v-123h-123z" />
<glyph unicode="4" d="M123 410v122h123v-122h-123zM123 614v123h123v-123h-123zM328 410v122h123v-122h-123zM328 614v123h123v-123h-123zM328 819v123h123v-123h-123zM532 410v122h123v-122h-123zM532 614v123h123v-123h-123zM532 819v123h123v-123h-123zM532 1024v123h123v-123h-123z M737 410v122h123v-122h-123zM737 614v123h123v-123h-123zM737 819v123h123v-123h-123zM737 1024v123h123v-123h-123zM737 1229v123h123v-123h-123zM942 410v122h123v-122h-123zM942 614v123h123v-123h-123zM942 1024v123h123v-123h-123zM942 1229v123h123v-123h-123z M942 1434v122h123v-122h-123zM1147 410v122h123v-122h-123zM1147 614v123h123v-123h-123zM1147 1229v123h123v-123h-123zM1147 1434v122h123v-122h-123zM1352 0v123h123v-123h-123zM1352 205v123h123v-123h-123zM1352 410v122h123v-122h-123zM1352 614v123h123v-123h-123z M1352 819v123h123v-123h-123zM1352 1024v123h123v-123h-123zM1352 1229v123h123v-123h-123zM1352 1434v122h123v-122h-123zM1556 0v123h123v-123h-123zM1556 205v123h123v-123h-123zM1556 410v122h123v-122h-123zM1556 614v123h123v-123h-123zM1556 819v123h123v-123h-123z M1556 1024v123h123v-123h-123zM1556 1229v123h123v-123h-123zM1556 1434v122h123v-122h-123zM1761 0v123h123v-123h-123zM1761 205v123h123v-123h-123zM1761 410v122h123v-122h-123zM1761 614v123h123v-123h-123zM1761 819v123h123v-123h-123zM1761 1024v123h123v-123h-123z M1761 1229v123h123v-123h-123zM1761 1434v122h123v-122h-123z" />
<glyph unicode="5" d="M123 0v123h123v-123h-123zM123 205v123h123v-123h-123zM123 614v123h123v-123h-123zM123 819v123h123v-123h-123zM123 1024v123h123v-123h-123zM123 1229v123h123v-123h-123zM123 1434v122h123v-122h-123zM328 0v123h123v-123h-123zM328 205v123h123v-123h-123zM328 614 v123h123v-123h-123zM328 819v123h123v-123h-123zM328 1024v123h123v-123h-123zM328 1229v123h123v-123h-123zM328 1434v122h123v-122h-123zM532 0v123h123v-123h-123zM532 205v123h123v-123h-123zM532 614v123h123v-123h-123zM532 819v123h123v-123h-123zM532 1024v123h123 v-123h-123zM532 1229v123h123v-123h-123zM532 1434v122h123v-122h-123zM737 0v123h123v-123h-123zM737 205v123h123v-123h-123zM737 614v123h123v-123h-123zM737 819v123h123v-123h-123zM737 1229v123h123v-123h-123zM737 1434v122h123v-122h-123zM942 0v123h123v-123h-123z M942 205v123h123v-123h-123zM942 614v123h123v-123h-123zM942 819v123h123v-123h-123zM942 1229v123h123v-123h-123zM942 1434v122h123v-122h-123zM1147 0v123h123v-123h-123zM1147 205v123h123v-123h-123zM1147 614v123h123v-123h-123zM1147 819v123h123v-123h-123z M1147 1229v123h123v-123h-123zM1147 1434v122h123v-122h-123zM1352 0v123h123v-123h-123zM1352 205v123h123v-123h-123zM1352 410v122h123v-122h-123zM1352 614v123h123v-123h-123zM1352 819v123h123v-123h-123zM1352 1229v123h123v-123h-123zM1352 1434v122h123v-122h-123z M1556 0v123h123v-123h-123zM1556 205v123h123v-123h-123zM1556 410v122h123v-122h-123zM1556 614v123h123v-123h-123zM1556 819v123h123v-123h-123zM1556 1229v123h123v-123h-123zM1556 1434v122h123v-122h-123zM1761 205v123h123v-123h-123zM1761 410v122h123v-122h-123z M1761 614v123h123v-123h-123zM1761 1229v123h123v-123h-123zM1761 1434v122h123v-122h-123z" />
<glyph unicode="6" d="M123 205v123h123v-123h-123zM123 410v122h123v-122h-123zM123 614v123h123v-123h-123zM123 819v123h123v-123h-123zM123 1024v123h123v-123h-123zM123 1229v123h123v-123h-123zM328 0v123h123v-123h-123zM328 205v123h123v-123h-123zM328 410v122h123v-122h-123zM328 614 v123h123v-123h-123zM328 819v123h123v-123h-123zM328 1024v123h123v-123h-123zM328 1229v123h123v-123h-123zM328 1434v122h123v-122h-123zM532 0v123h123v-123h-123zM532 205v123h123v-123h-123zM532 410v122h123v-122h-123zM532 614v123h123v-123h-123zM532 819v123h123 v-123h-123zM532 1024v123h123v-123h-123zM532 1229v123h123v-123h-123zM532 1434v122h123v-122h-123zM737 0v123h123v-123h-123zM737 205v123h123v-123h-123zM737 614v123h123v-123h-123zM737 819v123h123v-123h-123zM737 1229v123h123v-123h-123zM737 1434v122h123v-122 h-123zM942 0v123h123v-123h-123zM942 205v123h123v-123h-123zM942 614v123h123v-123h-123zM942 819v123h123v-123h-123zM942 1229v123h123v-123h-123zM942 1434v122h123v-122h-123zM1147 0v123h123v-123h-123zM1147 205v123h123v-123h-123zM1147 614v123h123v-123h-123z M1147 819v123h123v-123h-123zM1147 1229v123h123v-123h-123zM1147 1434v122h123v-122h-123zM1352 0v123h123v-123h-123zM1352 205v123h123v-123h-123zM1352 410v122h123v-122h-123zM1352 614v123h123v-123h-123zM1352 819v123h123v-123h-123zM1352 1229v123h123v-123h-123z M1352 1434v122h123v-122h-123zM1556 0v123h123v-123h-123zM1556 205v123h123v-123h-123zM1556 410v122h123v-122h-123zM1556 614v123h123v-123h-123zM1556 819v123h123v-123h-123zM1556 1229v123h123v-123h-123zM1556 1434v122h123v-122h-123zM1761 205v123h123v-123h-123z M1761 410v122h123v-122h-123zM1761 614v123h123v-123h-123zM1761 1229v123h123v-123h-123z" />
<glyph unicode="7" d="M123 1229v123h123v-123h-123zM123 1434v122h123v-122h-123zM328 1229v123h123v-123h-123zM328 1434v122h123v-122h-123zM532 1229v123h123v-123h-123zM532 1434v122h123v-122h-123zM737 0v123h123v-123h-123zM737 205v123h123v-123h-123zM737 410v122h123v-122h-123z M737 614v123h123v-123h-123zM737 1229v123h123v-123h-123zM737 1434v122h123v-122h-123zM942 0v123h123v-123h-123zM942 205v123h123v-123h-123zM942 410v122h123v-122h-123zM942 614v123h123v-123h-123zM942 819v123h123v-123h-123zM942 1229v123h123v-123h-123zM942 1434 v122h123v-122h-123zM1147 0v123h123v-123h-123zM1147 205v123h123v-123h-123zM1147 410v122h123v-122h-123zM1147 614v123h123v-123h-123zM1147 819v123h123v-123h-123zM1147 1229v123h123v-123h-123zM1147 1434v122h123v-122h-123zM1352 819v123h123v-123h-123zM1352 1024 v123h123v-123h-123zM1352 1229v123h123v-123h-123zM1352 1434v122h123v-122h-123zM1556 819v123h123v-123h-123zM1556 1024v123h123v-123h-123zM1556 1229v123h123v-123h-123zM1556 1434v122h123v-122h-123zM1761 1024v123h123v-123h-123zM1761 1229v123h123v-123h-123z M1761 1434v122h123v-122h-123z" />
<glyph unicode="8" d="M123 205v123h123v-123h-123zM123 410v122h123v-122h-123zM123 614v123h123v-123h-123zM123 1024v123h123v-123h-123zM123 1229v123h123v-123h-123zM328 0v123h123v-123h-123zM328 205v123h123v-123h-123zM328 410v122h123v-122h-123zM328 614v123h123v-123h-123zM328 819 v123h123v-123h-123zM328 1024v123h123v-123h-123zM328 1229v123h123v-123h-123zM328 1434v122h123v-122h-123zM532 0v123h123v-123h-123zM532 205v123h123v-123h-123zM532 410v122h123v-122h-123zM532 614v123h123v-123h-123zM532 819v123h123v-123h-123zM532 1024v123h123 v-123h-123zM532 1229v123h123v-123h-123zM532 1434v122h123v-122h-123zM737 0v123h123v-123h-123zM737 205v123h123v-123h-123zM737 614v123h123v-123h-123zM737 819v123h123v-123h-123zM737 1229v123h123v-123h-123zM737 1434v122h123v-122h-123zM942 0v123h123v-123h-123z M942 205v123h123v-123h-123zM942 614v123h123v-123h-123zM942 819v123h123v-123h-123zM942 1229v123h123v-123h-123zM942 1434v122h123v-122h-123zM1147 0v123h123v-123h-123zM1147 205v123h123v-123h-123zM1147 614v123h123v-123h-123zM1147 819v123h123v-123h-123z M1147 1229v123h123v-123h-123zM1147 1434v122h123v-122h-123zM1352 0v123h123v-123h-123zM1352 205v123h123v-123h-123zM1352 410v122h123v-122h-123zM1352 614v123h123v-123h-123zM1352 819v123h123v-123h-123zM1352 1024v123h123v-123h-123zM1352 1229v123h123v-123h-123z M1352 1434v122h123v-122h-123zM1556 0v123h123v-123h-123zM1556 205v123h123v-123h-123zM1556 410v122h123v-122h-123zM1556 614v123h123v-123h-123zM1556 819v123h123v-123h-123zM1556 1024v123h123v-123h-123zM1556 1229v123h123v-123h-123zM1556 1434v122h123v-122h-123z M1761 205v123h123v-123h-123zM1761 410v122h123v-122h-123zM1761 614v123h123v-123h-123zM1761 1024v123h123v-123h-123zM1761 1229v123h123v-123h-123z" />
<glyph unicode="9" d="M123 205v123h123v-123h-123zM123 819v123h123v-123h-123zM123 1024v123h123v-123h-123zM123 1229v123h123v-123h-123zM328 0v123h123v-123h-123zM328 205v123h123v-123h-123zM328 614v123h123v-123h-123zM328 819v123h123v-123h-123zM328 1024v123h123v-123h-123z M328 1229v123h123v-123h-123zM328 1434v122h123v-122h-123zM532 0v123h123v-123h-123zM532 205v123h123v-123h-123zM532 614v123h123v-123h-123zM532 819v123h123v-123h-123zM532 1024v123h123v-123h-123zM532 1229v123h123v-123h-123zM532 1434v122h123v-122h-123zM737 0 v123h123v-123h-123zM737 205v123h123v-123h-123zM737 614v123h123v-123h-123zM737 819v123h123v-123h-123zM737 1229v123h123v-123h-123zM737 1434v122h123v-122h-123zM942 0v123h123v-123h-123zM942 205v123h123v-123h-123zM942 614v123h123v-123h-123zM942 819v123h123 v-123h-123zM942 1229v123h123v-123h-123zM942 1434v122h123v-122h-123zM1147 0v123h123v-123h-123zM1147 205v123h123v-123h-123zM1147 614v123h123v-123h-123zM1147 819v123h123v-123h-123zM1147 1229v123h123v-123h-123zM1147 1434v122h123v-122h-123zM1352 0v123h123 v-123h-123zM1352 205v123h123v-123h-123zM1352 410v122h123v-122h-123zM1352 614v123h123v-123h-123zM1352 819v123h123v-123h-123zM1352 1024v123h123v-123h-123zM1352 1229v123h123v-123h-123zM1352 1434v122h123v-122h-123zM1556 0v123h123v-123h-123zM1556 205v123h123 v-123h-123zM1556 410v122h123v-122h-123zM1556 614v123h123v-123h-123zM1556 819v123h123v-123h-123zM1556 1024v123h123v-123h-123zM1556 1229v123h123v-123h-123zM1556 1434v122h123v-122h-123zM1761 205v123h123v-123h-123zM1761 410v122h123v-122h-123zM1761 614v123 h123v-123h-123zM1761 819v123h123v-123h-123zM1761 1024v123h123v-123h-123zM1761 1229v123h123v-123h-123z" />
<glyph unicode=":" horiz-adv-x="614" d="M123 0v123h123v-123h-123zM123 205v123h123v-123h-123zM123 614v123h123v-123h-123zM123 819v123h123v-123h-123zM328 0v123h123v-123h-123zM328 205v123h123v-123h-123zM328 614v123h123v-123h-123zM328 819v123h123v-123h-123z" />
<glyph unicode=";" horiz-adv-x="614" d="M123 0v123h123v-123h-123zM123 205v123h123v-123h-123zM123 614v123h123v-123h-123zM123 819v123h123v-123h-123zM328 0v123h123v-123h-123zM328 -82h123v-123h-123v123zM328 205v123h123v-123h-123zM328 614v123h123v-123h-123zM328 819v123h123v-123h-123z" />
<glyph unicode="&#x3c;" horiz-adv-x="1228" d="M123 614v123h123v-123h-123zM328 410v122h123v-122h-123zM328 819v123h123v-123h-123zM532 205v123h123v-123h-123zM532 614v123h123v-123h-123zM532 1024v123h123v-123h-123zM737 612v123h123v-123h-123zM942 614v123h123v-123h-123z" />
<glyph unicode="=" horiz-adv-x="1433" d="M123 410v122h123v-122h-123zM123 819v123h123v-123h-123zM328 410v122h123v-122h-123zM328 819v123h123v-123h-123zM532 410v122h123v-122h-123zM532 819v123h123v-123h-123zM737 410v122h123v-122h-123zM737 819v123h123v-123h-123zM942 410v122h123v-122h-123zM942 819 v123h123v-123h-123zM1147 410v122h123v-122h-123zM1147 819v123h123v-123h-123z" />
<glyph unicode="&#x3e;" horiz-adv-x="1228" d="M123 614v123h123v-123h-123zM328 612v123h123v-123h-123zM532 205v123h123v-123h-123zM532 614v123h123v-123h-123zM532 1024v123h123v-123h-123zM737 410v122h123v-122h-123zM737 819v123h123v-123h-123zM942 614v123h123v-123h-123z" />
<glyph unicode="?" d="M123 1024v123h123v-123h-123zM123 1229v123h123v-123h-123zM328 1024v123h123v-123h-123zM328 1229v123h123v-123h-123zM328 1434v122h123v-122h-123zM532 1024v123h123v-123h-123zM532 1229v123h123v-123h-123zM532 1434v122h123v-122h-123zM737 0v123h123v-123h-123z M737 410v122h123v-122h-123zM737 1229v123h123v-123h-123zM737 1434v122h123v-122h-123zM942 0v123h123v-123h-123zM942 408v122h123v-122h-123zM942 614v123h123v-123h-123zM942 1229v123h123v-123h-123zM942 1434v122h123v-122h-123zM1147 0v123h123v-123h-123zM1147 408 v122h123v-122h-123zM1147 612v123h123v-123h-123zM1147 1229v123h123v-123h-123zM1147 1434v122h123v-122h-123zM1352 614v123h123v-123h-123zM1352 819v123h123v-123h-123zM1352 1024v123h123v-123h-123zM1352 1229v123h123v-123h-123zM1352 1434v122h123v-122h-123z M1556 819v123h123v-123h-123zM1556 1024v123h123v-123h-123zM1556 1229v123h123v-123h-123zM1556 1434v122h123v-122h-123zM1761 819v123h123v-123h-123zM1761 1024v123h123v-123h-123zM1761 1229v123h123v-123h-123z" />
<glyph unicode="@" d="M123 205v123h123v-123h-123zM123 410v122h123v-122h-123zM123 614v123h123v-123h-123zM123 819v123h123v-123h-123zM123 1024v123h123v-123h-123zM123 1229v123h123v-123h-123zM328 0v123h123v-123h-123zM328 1434v122h123v-122h-123zM532 0v123h123v-123h-123zM532 410 v122h123v-122h-123zM532 614v123h123v-123h-123zM532 819v123h123v-123h-123zM532 1024v123h123v-123h-123zM532 1434v122h123v-122h-123zM737 0v123h123v-123h-123zM737 410v122h123v-122h-123zM737 1022v123h123v-123h-123zM737 1434v122h123v-122h-123zM942 0v123h123 v-123h-123zM942 410v122h123v-122h-123zM942 1022v123h123v-123h-123zM942 1434v122h123v-122h-123zM1147 0v123h123v-123h-123zM1147 410v122h123v-122h-123zM1147 1022v123h123v-123h-123zM1147 1434v122h123v-122h-123zM1352 0v123h123v-123h-123zM1352 410v122h123v-122 h-123zM1352 614v123h123v-123h-123zM1352 819v123h123v-123h-123zM1352 1024v123h123v-123h-123zM1352 1434v122h123v-122h-123zM1556 0v123h123v-123h-123zM1556 410v122h123v-122h-123zM1556 1434v122h123v-122h-123zM1761 410v122h123v-122h-123zM1761 614v123h123v-123 h-123zM1761 819v123h123v-123h-123zM1761 1024v123h123v-123h-123zM1761 1229v123h123v-123h-123z" />
<glyph unicode="A" horiz-adv-x="10444" d="M123 0v123h123v-123h-123zM123 205v123h123v-123h-123zM123 410v122h123v-122h-123zM123 614v123h123v-123h-123zM123 819v123h123v-123h-123zM123 1024v123h123v-123h-123zM123 1229v123h123v-123h-123zM123 1434v122h123v-122h-123zM328 0v123h123v-123h-123zM328 205 v123h123v-123h-123zM328 410v122h123v-122h-123zM328 614v123h123v-123h-123zM328 819v123h123v-123h-123zM328 1024v123h123v-123h-123zM328 1229v123h123v-123h-123zM328 1434v122h123v-122h-123zM532 0v123h123v-123h-123zM532 205v123h123v-123h-123zM532 410v122h123 v-122h-123zM532 614v123h123v-123h-123zM532 819v123h123v-123h-123zM532 1024v123h123v-123h-123zM532 1229v123h123v-123h-123zM532 1434v122h123v-122h-123zM737 614v123h123v-123h-123zM737 819v123h123v-123h-123zM737 1229v123h123v-123h-123zM737 1434v122h123v-122 h-123zM942 614v123h123v-123h-123zM942 819v123h123v-123h-123zM942 1229v123h123v-123h-123zM942 1434v122h123v-122h-123zM1147 614v123h123v-123h-123zM1147 819v123h123v-123h-123zM1147 1229v123h123v-123h-123zM1147 1434v122h123v-122h-123zM1352 614v123h123v-123 h-123zM1352 819v123h123v-123h-123zM1352 1024v123h123v-123h-123zM1352 1229v123h123v-123h-123zM1352 1434v122h123v-122h-123zM1556 614v123h123v-123h-123zM1556 819v123h123v-123h-123zM1556 1024v123h123v-123h-123zM1556 1229v123h123v-123h-123zM1556 1434v122h123 v-122h-123zM1761 819v123h123v-123h-123zM1761 1024v123h123v-123h-123zM1761 1229v123h123v-123h-123zM2171 0v123h123v-123h-123zM2171 205v123h123v-123h-123zM2171 410v122h123v-122h-123zM2171 614v123h123v-123h-123zM2171 819v123h123v-123h-123zM2171 1024v123h123 v-123h-123zM2171 1229v123h123v-123h-123zM2376 0v123h123v-123h-123zM2376 205v123h123v-123h-123zM2376 410v122h123v-122h-123zM2376 614v123h123v-123h-123zM2376 819v123h123v-123h-123zM2376 1024v123h123v-123h-123zM2376 1229v123h123v-123h-123zM2376 1434v122h123 v-122h-123zM2580 0v123h123v-123h-123zM2580 205v123h123v-123h-123zM2580 410v122h123v-122h-123zM2580 614v123h123v-123h-123zM2580 819v123h123v-123h-123zM2580 1024v123h123v-123h-123zM2580 1229v123h123v-123h-123zM2580 1434v122h123v-122h-123zM2785 614v123h123 v-123h-123zM2785 819v123h123v-123h-123zM2785 1229v123h123v-123h-123zM2785 1434v122h123v-122h-123zM2990 614v123h123v-123h-123zM2990 819v123h123v-123h-123zM2990 1229v123h123v-123h-123zM2990 1434v122h123v-122h-123zM3195 614v123h123v-123h-123zM3195 819v123 h123v-123h-123zM3195 1229v123h123v-123h-123zM3195 1434v122h123v-122h-123zM3400 0v123h123v-123h-123zM3400 205v123h123v-123h-123zM3400 410v122h123v-122h-123zM3400 614v123h123v-123h-123zM3400 819v123h123v-123h-123zM3400 1024v123h123v-123h-123zM3400 1229v123 h123v-123h-123zM3400 1434v122h123v-122h-123zM3604 0v123h123v-123h-123zM3604 205v123h123v-123h-123zM3604 410v122h123v-122h-123zM3604 614v123h123v-123h-123zM3604 819v123h123v-123h-123zM3604 1024v123h123v-123h-123zM3604 1229v123h123v-123h-123zM3604 1434v122 h123v-122h-123zM3809 0v123h123v-123h-123zM3809 205v123h123v-123h-123zM3809 410v122h123v-122h-123zM3809 614v123h123v-123h-123zM3809 819v123h123v-123h-123zM3809 1024v123h123v-123h-123zM3809 1229v123h123v-123h-123zM4219 0v123h123v-123h-123zM4219 205v123h123 v-123h-123zM4219 410v122h123v-122h-123zM4219 614v123h123v-123h-123zM4219 819v123h123v-123h-123zM4219 1024v123h123v-123h-123zM4219 1229v123h123v-123h-123zM4219 1434v122h123v-122h-123zM4424 0v123h123v-123h-123zM4424 205v123h123v-123h-123zM4424 410v122h123 v-122h-123zM4424 614v123h123v-123h-123zM4424 819v123h123v-123h-123zM4424 1024v123h123v-123h-123zM4424 1229v123h123v-123h-123zM4424 1434v122h123v-122h-123zM4628 0v123h123v-123h-123zM4628 205v123h123v-123h-123zM4628 410v122h123v-122h-123zM4628 614v123h123 v-123h-123zM4628 819v123h123v-123h-123zM4628 1024v123h123v-123h-123zM4628 1229v123h123v-123h-123zM4628 1434v122h123v-122h-123zM4833 1229v123h123v-123h-123zM4833 1434v122h123v-122h-123zM5038 1229v123h123v-123h-123zM5038 1434v122h123v-122h-123zM5243 1229 v123h123v-123h-123zM5243 1434v122h123v-122h-123zM5448 0v123h123v-123h-123zM5448 205v123h123v-123h-123zM5448 410v122h123v-122h-123zM5448 614v123h123v-123h-123zM5448 819v123h123v-123h-123zM5448 1024v123h123v-123h-123zM5448 1229v123h123v-123h-123zM5448 1434 v122h123v-122h-123zM5652 0v123h123v-123h-123zM5652 205v123h123v-123h-123zM5652 410v122h123v-122h-123zM5652 614v123h123v-123h-123zM5652 819v123h123v-123h-123zM5652 1024v123h123v-123h-123zM5652 1229v123h123v-123h-123zM5652 1434v122h123v-122h-123zM5857 0 v123h123v-123h-123zM5857 205v123h123v-123h-123zM5857 410v122h123v-122h-123zM5857 614v123h123v-123h-123zM5857 819v123h123v-123h-123zM5857 1024v123h123v-123h-123zM5857 1229v123h123v-123h-123zM6267 1229v123h123v-123h-123zM6267 1434v122h123v-122h-123zM6472 0 v123h123v-123h-123zM6472 205v123h123v-123h-123zM6472 410v122h123v-122h-123zM6472 614v123h123v-123h-123zM6472 819v123h123v-123h-123zM6472 1024v123h123v-123h-123zM6472 1229v123h123v-123h-123zM6472 1434v122h123v-122h-123zM6472 1638v123h123v-123h-123zM6676 0 v123h123v-123h-123zM6676 205v123h123v-123h-123zM6676 410v122h123v-122h-123zM6676 614v123h123v-123h-123zM6676 819v123h123v-123h-123zM6676 1024v123h123v-123h-123zM6676 1229v123h123v-123h-123zM6676 1434v122h123v-122h-123zM6676 1638v123h123v-123h-123zM6881 0 v123h123v-123h-123zM6881 205v123h123v-123h-123zM6881 410v122h123v-122h-123zM6881 614v123h123v-123h-123zM6881 819v123h123v-123h-123zM6881 1024v123h123v-123h-123zM6881 1229v123h123v-123h-123zM6881 1434v122h123v-122h-123zM6881 1638v123h123v-123h-123z M7086 1229v123h123v-123h-123zM7086 1434v122h123v-122h-123zM7496 0v123h123v-123h-123zM7496 205v123h123v-123h-123zM7496 410v122h123v-122h-123zM7496 614v123h123v-123h-123zM7496 819v123h123v-123h-123zM7496 1024v123h123v-123h-123zM7496 1229v123h123v-123h-123z M7700 0v123h123v-123h-123zM7700 205v123h123v-123h-123zM7700 410v122h123v-122h-123zM7700 614v123h123v-123h-123zM7700 819v123h123v-123h-123zM7700 1024v123h123v-123h-123zM7700 1229v123h123v-123h-123zM7700 1434v122h123v-122h-123zM7905 0v123h123v-123h-123z M7905 205v123h123v-123h-123zM7905 410v122h123v-122h-123zM7905 614v123h123v-123h-123zM7905 819v123h123v-123h-123zM7905 1024v123h123v-123h-123zM7905 1229v123h123v-123h-123zM7905 1434v122h123v-122h-123zM8110 614v123h123v-123h-123zM8110 819v123h123v-123h-123 zM8110 1229v123h123v-123h-123zM8110 1434v122h123v-122h-123zM8315 614v123h123v-123h-123zM8315 819v123h123v-123h-123zM8315 1229v123h123v-123h-123zM8315 1434v122h123v-122h-123zM8520 614v123h123v-123h-123zM8520 819v123h123v-123h-123zM8520 1229v123h123v-123 h-123zM8520 1434v122h123v-122h-123zM8724 614v123h123v-123h-123zM8724 819v123h123v-123h-123zM8724 1024v123h123v-123h-123zM8724 1229v123h123v-123h-123zM8724 1434v122h123v-122h-123zM8929 0v123h123v-123h-123zM8929 614v123h123v-123h-123zM8929 819v123h123v-123 h-123zM8929 1024v123h123v-123h-123zM8929 1229v123h123v-123h-123zM8929 1434v122h123v-122h-123zM9134 0v123h123v-123h-123zM9134 614v123h123v-123h-123zM9134 819v123h123v-123h-123zM9134 1024v123h123v-123h-123zM9134 1229v123h123v-123h-123zM9544 0v123h123v-123 h-123zM9544 205v123h123v-123h-123zM9544 410v122h123v-122h-123zM9544 614v123h123v-123h-123zM9544 819v123h123v-123h-123zM9544 1024v123h123v-123h-123zM9544 1229v123h123v-123h-123zM9748 0v123h123v-123h-123zM9748 205v123h123v-123h-123zM9748 410v122h123v-122 h-123zM9748 614v123h123v-123h-123zM9748 819v123h123v-123h-123zM9748 1024v123h123v-123h-123zM9748 1229v123h123v-123h-123zM9748 1434v122h123v-122h-123zM9953 0v123h123v-123h-123zM9953 205v123h123v-123h-123zM9953 410v122h123v-122h-123zM9953 614v123h123v-123 h-123zM9953 819v123h123v-123h-123zM9953 1024v123h123v-123h-123zM9953 1229v123h123v-123h-123zM9953 1434v122h123v-122h-123zM10158 1229v123h123v-123h-123zM10158 1434v122h123v-122h-123z" />
<glyph unicode="B" horiz-adv-x="5324" d="M123 614v123h123v-123h-123zM328 410v122h123v-122h-123zM328 614v123h123v-123h-123zM532 410v122h123v-122h-123zM737 410v122h123v-122h-123zM942 410v122h123v-122h-123zM942 614v123h123v-123h-123zM1147 614v123h123v-123h-123zM1147 819v123h123v-123h-123z M1352 819v123h123v-123h-123zM1352 1024v123h123v-123h-123zM1556 205v123h123v-123h-123zM1556 410v122h123v-122h-123zM1556 614v123h123v-123h-123zM1556 1024v123h123v-123h-123zM1761 0v123h123v-123h-123zM1761 205v123h123v-123h-123zM1761 410v122h123v-122h-123z M1761 614v123h123v-123h-123zM1761 819v123h123v-123h-123zM1761 1024v123h123v-123h-123zM1761 1229v123h123v-123h-123zM1966 0v123h123v-123h-123zM1966 614v123h123v-123h-123zM1966 819v123h123v-123h-123zM1966 1024v123h123v-123h-123zM1966 1229v123h123v-123h-123z M2171 410v122h123v-122h-123zM2171 614v123h123v-123h-123zM2171 819v123h123v-123h-123zM2171 1024v123h123v-123h-123zM2171 1229v123h123v-123h-123zM2171 1434v122h123v-122h-123zM2376 205v123h123v-123h-123zM2376 410v122h123v-122h-123zM2376 614v123h123v-123h-123 zM2376 819v123h123v-123h-123zM2376 1024v123h123v-123h-123zM2376 1229v123h123v-123h-123zM2376 1434v122h123v-122h-123zM2580 0v123h123v-123h-123zM2580 205v123h123v-123h-123zM2580 819v123h123v-123h-123zM2580 1024v123h123v-123h-123zM2580 1229v123h123v-123 h-123zM2580 1434v122h123v-122h-123zM2785 0v123h123v-123h-123zM2785 819v123h123v-123h-123zM2785 1024v123h123v-123h-123zM2785 1229v123h123v-123h-123zM2785 1434v122h123v-122h-123zM2990 205v123h123v-123h-123zM2990 410v122h123v-122h-123zM2990 819v123h123v-123 h-123zM2990 1024v123h123v-123h-123zM2990 1229v123h123v-123h-123zM3195 0v123h123v-123h-123zM3195 205v123h123v-123h-123zM3195 410v122h123v-122h-123zM3195 614v123h123v-123h-123zM3195 819v123h123v-123h-123zM3195 1024v123h123v-123h-123zM3195 1229v123h123v-123 h-123zM3400 0v123h123v-123h-123zM3400 410v122h123v-122h-123zM3400 614v123h123v-123h-123zM3400 819v123h123v-123h-123zM3400 1024v123h123v-123h-123zM3400 1229v123h123v-123h-123zM3604 614v123h123v-123h-123zM3604 819v123h123v-123h-123zM3604 1024v123h123v-123 h-123zM3604 1229v123h123v-123h-123zM3604 1434v122h123v-122h-123zM3809 614v123h123v-123h-123zM3809 819v123h123v-123h-123zM3809 1024v123h123v-123h-123zM3809 1229v123h123v-123h-123zM3809 1434v122h123v-122h-123zM4014 410v122h123v-122h-123zM4014 614v123h123 v-123h-123zM4014 819v123h123v-123h-123zM4014 1024v123h123v-123h-123zM4014 1229v123h123v-123h-123zM4014 1434v122h123v-122h-123zM4219 205v123h123v-123h-123zM4219 410v122h123v-122h-123zM4219 614v123h123v-123h-123zM4219 819v123h123v-123h-123zM4219 1024v123 h123v-123h-123zM4219 1229v123h123v-123h-123zM4219 1434v122h123v-122h-123zM4424 0v123h123v-123h-123zM4424 205v123h123v-123h-123zM4424 1024v123h123v-123h-123zM4424 1229v123h123v-123h-123zM4424 1434v122h123v-122h-123zM4628 0v123h123v-123h-123zM4628 1024v123 h123v-123h-123zM4628 1229v123h123v-123h-123zM4628 1434v122h123v-122h-123zM4833 819v123h123v-123h-123zM4833 1024v123h123v-123h-123zM4833 1229v123h123v-123h-123zM4833 1434v122h123v-122h-123zM5038 819v123h123v-123h-123zM5038 1024v123h123v-123h-123z M5038 1229v123h123v-123h-123z" />
<glyph unicode="C" d="M123 205v123h123v-123h-123zM123 410v122h123v-122h-123zM123 614v123h123v-123h-123zM123 819v123h123v-123h-123zM123 1024v123h123v-123h-123zM123 1229v123h123v-123h-123zM328 0v123h123v-123h-123zM328 205v123h123v-123h-123zM328 410v122h123v-122h-123zM328 614 v123h123v-123h-123zM328 819v123h123v-123h-123zM328 1024v123h123v-123h-123zM328 1229v123h123v-123h-123zM328 1434v122h123v-122h-123zM532 0v123h123v-123h-123zM532 205v123h123v-123h-123zM532 410v122h123v-122h-123zM532 614v123h123v-123h-123zM532 819v123h123 v-123h-123zM532 1024v123h123v-123h-123zM532 1229v123h123v-123h-123zM532 1434v122h123v-122h-123zM737 0v123h123v-123h-123zM737 205v123h123v-123h-123zM737 1229v123h123v-123h-123zM737 1434v122h123v-122h-123zM942 0v123h123v-123h-123zM942 205v123h123v-123h-123 zM942 1229v123h123v-123h-123zM942 1434v122h123v-122h-123zM1147 0v123h123v-123h-123zM1147 205v123h123v-123h-123zM1147 1229v123h123v-123h-123zM1147 1434v122h123v-122h-123zM1352 0v123h123v-123h-123zM1352 205v123h123v-123h-123zM1352 410v122h123v-122h-123z M1352 1024v123h123v-123h-123zM1352 1229v123h123v-123h-123zM1352 1434v122h123v-122h-123zM1556 0v123h123v-123h-123zM1556 205v123h123v-123h-123zM1556 410v122h123v-122h-123zM1556 1024v123h123v-123h-123zM1556 1229v123h123v-123h-123zM1556 1434v122h123v-122 h-123zM1761 205v123h123v-123h-123zM1761 410v122h123v-122h-123zM1761 1024v123h123v-123h-123zM1761 1229v123h123v-123h-123z" />
<glyph unicode="D" d="M123 0v123h123v-123h-123zM123 205v123h123v-123h-123zM123 410v122h123v-122h-123zM123 614v123h123v-123h-123zM123 819v123h123v-123h-123zM123 1024v123h123v-123h-123zM123 1229v123h123v-123h-123zM123 1434v122h123v-122h-123zM328 0v123h123v-123h-123zM328 205 v123h123v-123h-123zM328 410v122h123v-122h-123zM328 614v123h123v-123h-123zM328 819v123h123v-123h-123zM328 1024v123h123v-123h-123zM328 1229v123h123v-123h-123zM328 1434v122h123v-122h-123zM532 0v123h123v-123h-123zM532 205v123h123v-123h-123zM532 410v122h123 v-122h-123zM532 614v123h123v-123h-123zM532 819v123h123v-123h-123zM532 1024v123h123v-123h-123zM532 1229v123h123v-123h-123zM532 1434v122h123v-122h-123zM737 0v123h123v-123h-123zM737 205v123h123v-123h-123zM737 1229v123h123v-123h-123zM737 1434v122h123v-122 h-123zM942 0v123h123v-123h-123zM942 205v123h123v-123h-123zM942 1229v123h123v-123h-123zM942 1434v122h123v-122h-123zM1147 0v123h123v-123h-123zM1147 205v123h123v-123h-123zM1147 1229v123h123v-123h-123zM1147 1434v122h123v-122h-123zM1352 0v123h123v-123h-123z M1352 205v123h123v-123h-123zM1352 410v122h123v-122h-123zM1352 614v123h123v-123h-123zM1352 819v123h123v-123h-123zM1352 1024v123h123v-123h-123zM1352 1229v123h123v-123h-123zM1352 1434v122h123v-122h-123zM1556 0v123h123v-123h-123zM1556 205v123h123v-123h-123z M1556 410v122h123v-122h-123zM1556 614v123h123v-123h-123zM1556 819v123h123v-123h-123zM1556 1024v123h123v-123h-123zM1556 1229v123h123v-123h-123zM1556 1434v122h123v-122h-123zM1761 205v123h123v-123h-123zM1761 410v122h123v-122h-123zM1761 614v123h123v-123h-123 zM1761 819v123h123v-123h-123zM1761 1024v123h123v-123h-123zM1761 1229v123h123v-123h-123z" />
<glyph unicode="E" d="M123 0v123h123v-123h-123zM123 205v123h123v-123h-123zM123 410v122h123v-122h-123zM123 614v123h123v-123h-123zM123 819v123h123v-123h-123zM123 1024v123h123v-123h-123zM123 1229v123h123v-123h-123zM328 0v123h123v-123h-123zM328 205v123h123v-123h-123zM328 410 v122h123v-122h-123zM328 614v123h123v-123h-123zM328 819v123h123v-123h-123zM328 1024v123h123v-123h-123zM328 1229v123h123v-123h-123zM328 1434v122h123v-122h-123zM532 0v123h123v-123h-123zM532 205v123h123v-123h-123zM532 410v122h123v-122h-123zM532 614v123h123 v-123h-123zM532 819v123h123v-123h-123zM532 1024v123h123v-123h-123zM532 1229v123h123v-123h-123zM532 1434v122h123v-122h-123zM737 614v123h123v-123h-123zM737 819v123h123v-123h-123zM737 1229v123h123v-123h-123zM737 1434v122h123v-122h-123zM942 614v123h123v-123 h-123zM942 819v123h123v-123h-123zM942 1229v123h123v-123h-123zM942 1434v122h123v-122h-123zM1147 614v123h123v-123h-123zM1147 819v123h123v-123h-123zM1147 1229v123h123v-123h-123zM1147 1434v122h123v-122h-123zM1352 614v123h123v-123h-123zM1352 819v123h123v-123 h-123zM1352 1024v123h123v-123h-123zM1352 1229v123h123v-123h-123zM1352 1434v122h123v-122h-123zM1556 0v123h123v-123h-123zM1556 614v123h123v-123h-123zM1556 819v123h123v-123h-123zM1556 1024v123h123v-123h-123zM1556 1229v123h123v-123h-123zM1556 1434v122h123 v-122h-123zM1761 0v123h123v-123h-123zM1761 614v123h123v-123h-123zM1761 819v123h123v-123h-123zM1761 1024v123h123v-123h-123zM1761 1229v123h123v-123h-123z" />
<glyph unicode="F" horiz-adv-x="1843" d="M123 0v123h123v-123h-123zM123 205v123h123v-123h-123zM123 410v122h123v-122h-123zM123 614v123h123v-123h-123zM123 819v123h123v-123h-123zM123 1024v123h123v-123h-123zM123 1229v123h123v-123h-123zM123 1434v122h123v-122h-123zM328 0v123h123v-123h-123zM328 205 v123h123v-123h-123zM328 410v122h123v-122h-123zM328 614v123h123v-123h-123zM328 819v123h123v-123h-123zM328 1024v123h123v-123h-123zM328 1229v123h123v-123h-123zM328 1434v122h123v-122h-123zM532 0v123h123v-123h-123zM532 205v123h123v-123h-123zM532 410v122h123 v-122h-123zM532 614v123h123v-123h-123zM532 819v123h123v-123h-123zM532 1024v123h123v-123h-123zM532 1229v123h123v-123h-123zM532 1434v122h123v-122h-123zM737 614v123h123v-123h-123zM737 819v123h123v-123h-123zM737 1229v123h123v-123h-123zM737 1434v122h123v-122 h-123zM942 614v123h123v-123h-123zM942 819v123h123v-123h-123zM942 1229v123h123v-123h-123zM942 1434v122h123v-122h-123zM1147 614v123h123v-123h-123zM1147 819v123h123v-123h-123zM1147 1229v123h123v-123h-123zM1147 1434v122h123v-122h-123zM1352 614v123h123v-123 h-123zM1352 819v123h123v-123h-123zM1352 1229v123h123v-123h-123zM1352 1434v122h123v-122h-123zM1556 1229v123h123v-123h-123zM1556 1434v122h123v-122h-123z" />
<glyph unicode="G" d="M123 205v123h123v-123h-123zM123 410v122h123v-122h-123zM123 614v123h123v-123h-123zM123 819v123h123v-123h-123zM123 1024v123h123v-123h-123zM123 1229v123h123v-123h-123zM328 0v123h123v-123h-123zM328 205v123h123v-123h-123zM328 410v122h123v-122h-123zM328 614 v123h123v-123h-123zM328 819v123h123v-123h-123zM328 1024v123h123v-123h-123zM328 1229v123h123v-123h-123zM328 1434v122h123v-122h-123zM532 0v123h123v-123h-123zM532 205v123h123v-123h-123zM532 410v122h123v-122h-123zM532 614v123h123v-123h-123zM532 819v123h123 v-123h-123zM532 1024v123h123v-123h-123zM532 1229v123h123v-123h-123zM532 1434v122h123v-122h-123zM737 0v123h123v-123h-123zM737 205v123h123v-123h-123zM737 1229v123h123v-123h-123zM737 1434v122h123v-122h-123zM942 0v123h123v-123h-123zM942 205v123h123v-123h-123 zM942 1229v123h123v-123h-123zM942 1434v122h123v-122h-123zM1147 0v123h123v-123h-123zM1147 205v123h123v-123h-123zM1147 614v123h123v-123h-123zM1147 1229v123h123v-123h-123zM1147 1434v122h123v-122h-123zM1352 0v123h123v-123h-123zM1352 205v123h123v-123h-123z M1352 410v122h123v-122h-123zM1352 614v123h123v-123h-123zM1352 1229v123h123v-123h-123zM1352 1434v122h123v-122h-123zM1556 0v123h123v-123h-123zM1556 205v123h123v-123h-123zM1556 410v122h123v-122h-123zM1556 614v123h123v-123h-123zM1556 1229v123h123v-123h-123z M1556 1434v122h123v-122h-123zM1761 205v123h123v-123h-123zM1761 410v122h123v-122h-123zM1761 614v123h123v-123h-123zM1761 1229v123h123v-123h-123z" />
<glyph unicode="H" d="M123 0v123h123v-123h-123zM123 205v123h123v-123h-123zM123 410v122h123v-122h-123zM123 614v123h123v-123h-123zM123 819v123h123v-123h-123zM123 1024v123h123v-123h-123zM123 1229v123h123v-123h-123zM123 1434v122h123v-122h-123zM328 0v123h123v-123h-123zM328 205 v123h123v-123h-123zM328 410v122h123v-122h-123zM328 614v123h123v-123h-123zM328 819v123h123v-123h-123zM328 1024v123h123v-123h-123zM328 1229v123h123v-123h-123zM328 1434v122h123v-122h-123zM532 0v123h123v-123h-123zM532 205v123h123v-123h-123zM532 410v122h123 v-122h-123zM532 614v123h123v-123h-123zM532 819v123h123v-123h-123zM532 1024v123h123v-123h-123zM532 1229v123h123v-123h-123zM532 1434v122h123v-122h-123zM737 614v123h123v-123h-123zM737 819v123h123v-123h-123zM942 614v123h123v-123h-123zM942 819v123h123v-123 h-123zM1147 614v123h123v-123h-123zM1147 819v123h123v-123h-123zM1352 0v123h123v-123h-123zM1352 205v123h123v-123h-123zM1352 410v122h123v-122h-123zM1352 614v123h123v-123h-123zM1352 819v123h123v-123h-123zM1352 1024v123h123v-123h-123zM1352 1229v123h123v-123 h-123zM1352 1434v122h123v-122h-123zM1556 0v123h123v-123h-123zM1556 205v123h123v-123h-123zM1556 410v122h123v-122h-123zM1556 614v123h123v-123h-123zM1556 819v123h123v-123h-123zM1556 1024v123h123v-123h-123zM1556 1229v123h123v-123h-123zM1556 1434v122h123v-122 h-123zM1761 0v123h123v-123h-123zM1761 205v123h123v-123h-123zM1761 410v122h123v-122h-123zM1761 614v123h123v-123h-123zM1761 819v123h123v-123h-123zM1761 1024v123h123v-123h-123zM1761 1229v123h123v-123h-123zM1761 1434v122h123v-122h-123z" />
<glyph unicode="I" horiz-adv-x="819" d="M123 0v123h123v-123h-123zM123 205v123h123v-123h-123zM123 410v122h123v-122h-123zM123 614v123h123v-123h-123zM123 819v123h123v-123h-123zM123 1024v123h123v-123h-123zM123 1229v123h123v-123h-123zM123 1434v122h123v-122h-123zM328 0v123h123v-123h-123zM328 205 v123h123v-123h-123zM328 410v122h123v-122h-123zM328 614v123h123v-123h-123zM328 819v123h123v-123h-123zM328 1024v123h123v-123h-123zM328 1229v123h123v-123h-123zM328 1434v122h123v-122h-123zM532 0v123h123v-123h-123zM532 205v123h123v-123h-123zM532 410v122h123 v-122h-123zM532 614v123h123v-123h-123zM532 819v123h123v-123h-123zM532 1024v123h123v-123h-123zM532 1229v123h123v-123h-123zM532 1434v122h123v-122h-123z" />
<glyph unicode="J" horiz-adv-x="1843" d="M123 205v123h123v-123h-123zM123 410v122h123v-122h-123zM328 0v123h123v-123h-123zM328 205v123h123v-123h-123zM328 410v122h123v-122h-123zM532 0v123h123v-123h-123zM532 205v123h123v-123h-123zM532 410v122h123v-122h-123zM737 0v123h123v-123h-123zM737 205v123 h123v-123h-123zM942 0v123h123v-123h-123zM942 205v123h123v-123h-123zM1147 0v123h123v-123h-123zM1147 205v123h123v-123h-123zM1147 410v122h123v-122h-123zM1147 614v123h123v-123h-123zM1147 819v123h123v-123h-123zM1147 1024v123h123v-123h-123zM1147 1229v123h123 v-123h-123zM1147 1434v122h123v-122h-123zM1352 0v123h123v-123h-123zM1352 205v123h123v-123h-123zM1352 410v122h123v-122h-123zM1352 614v123h123v-123h-123zM1352 819v123h123v-123h-123zM1352 1024v123h123v-123h-123zM1352 1229v123h123v-123h-123zM1352 1434v122h123 v-122h-123zM1556 205v123h123v-123h-123zM1556 410v122h123v-122h-123zM1556 614v123h123v-123h-123zM1556 819v123h123v-123h-123zM1556 1024v123h123v-123h-123zM1556 1229v123h123v-123h-123zM1556 1434v122h123v-122h-123z" />
<glyph unicode="K" d="M123 0v123h123v-123h-123zM123 205v123h123v-123h-123zM123 410v122h123v-122h-123zM123 614v123h123v-123h-123zM123 819v123h123v-123h-123zM123 1024v123h123v-123h-123zM123 1229v123h123v-123h-123zM123 1434v122h123v-122h-123zM328 0v123h123v-123h-123zM328 205 v123h123v-123h-123zM328 410v122h123v-122h-123zM328 614v123h123v-123h-123zM328 819v123h123v-123h-123zM328 1024v123h123v-123h-123zM328 1229v123h123v-123h-123zM328 1434v122h123v-122h-123zM532 0v123h123v-123h-123zM532 205v123h123v-123h-123zM532 410v122h123 v-122h-123zM532 614v123h123v-123h-123zM532 819v123h123v-123h-123zM532 1024v123h123v-123h-123zM532 1229v123h123v-123h-123zM532 1434v122h123v-122h-123zM737 614v123h123v-123h-123zM737 819v123h123v-123h-123zM942 410v122h123v-122h-123zM942 614v123h123v-123 h-123zM942 819v123h123v-123h-123zM942 1024v123h123v-123h-123zM1147 205v123h123v-123h-123zM1147 410v122h123v-122h-123zM1147 614v123h123v-123h-123zM1147 819v123h123v-123h-123zM1147 1024v123h123v-123h-123zM1147 1229v123h123v-123h-123zM1352 0v123h123v-123 h-123zM1352 205v123h123v-123h-123zM1352 410v122h123v-122h-123zM1352 1024v123h123v-123h-123zM1352 1229v123h123v-123h-123zM1352 1434v122h123v-122h-123zM1556 0v123h123v-123h-123zM1556 205v123h123v-123h-123zM1556 1229v123h123v-123h-123zM1556 1434v122h123 v-122h-123zM1761 0v123h123v-123h-123zM1761 1434v122h123v-122h-123z" />
<glyph unicode="L" horiz-adv-x="1433" d="M123 0v123h123v-123h-123zM123 205v123h123v-123h-123zM123 410v122h123v-122h-123zM123 614v123h123v-123h-123zM123 819v123h123v-123h-123zM123 1024v123h123v-123h-123zM123 1229v123h123v-123h-123zM123 1434v122h123v-122h-123zM328 0v123h123v-123h-123zM328 205 v123h123v-123h-123zM328 410v122h123v-122h-123zM328 614v123h123v-123h-123zM328 819v123h123v-123h-123zM328 1024v123h123v-123h-123zM328 1229v123h123v-123h-123zM328 1434v122h123v-122h-123zM532 0v123h123v-123h-123zM532 205v123h123v-123h-123zM532 410v122h123 v-122h-123zM532 614v123h123v-123h-123zM532 819v123h123v-123h-123zM532 1024v123h123v-123h-123zM532 1229v123h123v-123h-123zM532 1434v122h123v-122h-123zM737 0v123h123v-123h-123zM737 205v123h123v-123h-123zM942 0v123h123v-123h-123zM942 205v123h123v-123h-123z M1147 0v123h123v-123h-123zM1147 205v123h123v-123h-123z" />
<glyph unicode="M" horiz-adv-x="2457" d="M123 0v123h123v-123h-123zM123 205v123h123v-123h-123zM123 410v122h123v-122h-123zM123 614v123h123v-123h-123zM123 819v123h123v-123h-123zM123 1024v123h123v-123h-123zM123 1229v123h123v-123h-123zM328 0v123h123v-123h-123zM328 205v123h123v-123h-123zM328 410 v122h123v-122h-123zM328 614v123h123v-123h-123zM328 819v123h123v-123h-123zM328 1024v123h123v-123h-123zM328 1229v123h123v-123h-123zM328 1434v122h123v-122h-123zM532 0v123h123v-123h-123zM532 205v123h123v-123h-123zM532 410v122h123v-122h-123zM532 614v123h123 v-123h-123zM532 819v123h123v-123h-123zM532 1024v123h123v-123h-123zM532 1229v123h123v-123h-123zM532 1434v122h123v-122h-123zM737 1229v123h123v-123h-123zM737 1434v122h123v-122h-123zM942 0v123h123v-123h-123zM942 205v123h123v-123h-123zM942 410v122h123v-122 h-123zM942 614v123h123v-123h-123zM942 819v123h123v-123h-123zM942 1024v123h123v-123h-123zM942 1229v123h123v-123h-123zM942 1434v122h123v-122h-123zM1147 0v123h123v-123h-123zM1147 205v123h123v-123h-123zM1147 410v122h123v-122h-123zM1147 614v123h123v-123h-123z M1147 819v123h123v-123h-123zM1147 1024v123h123v-123h-123zM1147 1229v123h123v-123h-123zM1147 1434v122h123v-122h-123zM1352 0v123h123v-123h-123zM1352 205v123h123v-123h-123zM1352 410v122h123v-122h-123zM1352 614v123h123v-123h-123zM1352 819v123h123v-123h-123z M1352 1024v123h123v-123h-123zM1352 1229v123h123v-123h-123zM1352 1434v122h123v-122h-123zM1556 1229v123h123v-123h-123zM1556 1434v122h123v-122h-123zM1761 0v123h123v-123h-123zM1761 205v123h123v-123h-123zM1761 410v122h123v-122h-123zM1761 614v123h123v-123h-123 zM1761 819v123h123v-123h-123zM1761 1024v123h123v-123h-123zM1761 1229v123h123v-123h-123zM1761 1434v122h123v-122h-123zM1966 0v123h123v-123h-123zM1966 205v123h123v-123h-123zM1966 410v122h123v-122h-123zM1966 614v123h123v-123h-123zM1966 819v123h123v-123h-123z M1966 1024v123h123v-123h-123zM1966 1229v123h123v-123h-123zM1966 1434v122h123v-122h-123zM2171 0v123h123v-123h-123zM2171 205v123h123v-123h-123zM2171 410v122h123v-122h-123zM2171 614v123h123v-123h-123zM2171 819v123h123v-123h-123zM2171 1024v123h123v-123h-123z M2171 1229v123h123v-123h-123z" />
<glyph unicode="N" d="M123 0v123h123v-123h-123zM123 205v123h123v-123h-123zM123 410v122h123v-122h-123zM123 614v123h123v-123h-123zM123 819v123h123v-123h-123zM123 1024v123h123v-123h-123zM123 1229v123h123v-123h-123zM123 1434v122h123v-122h-123zM328 0v123h123v-123h-123zM328 205 v123h123v-123h-123zM328 410v122h123v-122h-123zM328 614v123h123v-123h-123zM328 819v123h123v-123h-123zM328 1024v123h123v-123h-123zM328 1229v123h123v-123h-123zM328 1434v122h123v-122h-123zM532 0v123h123v-123h-123zM532 205v123h123v-123h-123zM532 410v122h123 v-122h-123zM532 614v123h123v-123h-123zM532 819v123h123v-123h-123zM532 1024v123h123v-123h-123zM532 1229v123h123v-123h-123zM532 1434v122h123v-122h-123zM737 1229v123h123v-123h-123zM737 1434v122h123v-122h-123zM942 1229v123h123v-123h-123zM942 1434v122h123 v-122h-123zM1147 1229v123h123v-123h-123zM1147 1434v122h123v-122h-123zM1352 0v123h123v-123h-123zM1352 205v123h123v-123h-123zM1352 410v122h123v-122h-123zM1352 614v123h123v-123h-123zM1352 819v123h123v-123h-123zM1352 1024v123h123v-123h-123zM1352 1229v123h123 v-123h-123zM1352 1434v122h123v-122h-123zM1556 0v123h123v-123h-123zM1556 205v123h123v-123h-123zM1556 410v122h123v-122h-123zM1556 614v123h123v-123h-123zM1556 819v123h123v-123h-123zM1556 1024v123h123v-123h-123zM1556 1229v123h123v-123h-123zM1556 1434v122h123 v-122h-123zM1761 0v123h123v-123h-123zM1761 205v123h123v-123h-123zM1761 410v122h123v-122h-123zM1761 614v123h123v-123h-123zM1761 819v123h123v-123h-123zM1761 1024v123h123v-123h-123zM1761 1229v123h123v-123h-123z" />
<glyph unicode="O" d="M123 205v123h123v-123h-123zM123 410v122h123v-122h-123zM123 614v123h123v-123h-123zM123 819v123h123v-123h-123zM123 1024v123h123v-123h-123zM123 1229v123h123v-123h-123zM328 0v123h123v-123h-123zM328 205v123h123v-123h-123zM328 410v122h123v-122h-123zM328 614 v123h123v-123h-123zM328 819v123h123v-123h-123zM328 1024v123h123v-123h-123zM328 1229v123h123v-123h-123zM328 1434v122h123v-122h-123zM532 0v123h123v-123h-123zM532 205v123h123v-123h-123zM532 410v122h123v-122h-123zM532 614v123h123v-123h-123zM532 819v123h123 v-123h-123zM532 1024v123h123v-123h-123zM532 1229v123h123v-123h-123zM532 1434v122h123v-122h-123zM737 0v123h123v-123h-123zM737 205v123h123v-123h-123zM737 1229v123h123v-123h-123zM737 1434v122h123v-122h-123zM942 0v123h123v-123h-123zM942 205v123h123v-123h-123 zM942 1229v123h123v-123h-123zM942 1434v122h123v-122h-123zM1147 0v123h123v-123h-123zM1147 205v123h123v-123h-123zM1147 1229v123h123v-123h-123zM1147 1434v122h123v-122h-123zM1352 0v123h123v-123h-123zM1352 205v123h123v-123h-123zM1352 410v122h123v-122h-123z M1352 614v123h123v-123h-123zM1352 819v123h123v-123h-123zM1352 1024v123h123v-123h-123zM1352 1229v123h123v-123h-123zM1352 1434v122h123v-122h-123zM1556 0v123h123v-123h-123zM1556 205v123h123v-123h-123zM1556 410v122h123v-122h-123zM1556 614v123h123v-123h-123z M1556 819v123h123v-123h-123zM1556 1024v123h123v-123h-123zM1556 1229v123h123v-123h-123zM1556 1434v122h123v-122h-123zM1761 205v123h123v-123h-123zM1761 410v122h123v-122h-123zM1761 614v123h123v-123h-123zM1761 819v123h123v-123h-123zM1761 1024v123h123v-123 h-123zM1761 1229v123h123v-123h-123z" />
<glyph unicode="P" d="M123 0v123h123v-123h-123zM123 205v123h123v-123h-123zM123 410v122h123v-122h-123zM123 614v123h123v-123h-123zM123 819v123h123v-123h-123zM123 1024v123h123v-123h-123zM123 1229v123h123v-123h-123zM123 1434v122h123v-122h-123zM328 0v123h123v-123h-123zM328 205 v123h123v-123h-123zM328 410v122h123v-122h-123zM328 614v123h123v-123h-123zM328 819v123h123v-123h-123zM328 1024v123h123v-123h-123zM328 1229v123h123v-123h-123zM328 1434v122h123v-122h-123zM532 0v123h123v-123h-123zM532 205v123h123v-123h-123zM532 410v122h123 v-122h-123zM532 614v123h123v-123h-123zM532 819v123h123v-123h-123zM532 1024v123h123v-123h-123zM532 1229v123h123v-123h-123zM532 1434v122h123v-122h-123zM737 614v123h123v-123h-123zM737 819v123h123v-123h-123zM737 1229v123h123v-123h-123zM737 1434v122h123v-122 h-123zM942 614v123h123v-123h-123zM942 819v123h123v-123h-123zM942 1229v123h123v-123h-123zM942 1434v122h123v-122h-123zM1147 614v123h123v-123h-123zM1147 819v123h123v-123h-123zM1147 1229v123h123v-123h-123zM1147 1434v122h123v-122h-123zM1352 614v123h123v-123 h-123zM1352 819v123h123v-123h-123zM1352 1024v123h123v-123h-123zM1352 1229v123h123v-123h-123zM1352 1434v122h123v-122h-123zM1556 614v123h123v-123h-123zM1556 819v123h123v-123h-123zM1556 1024v123h123v-123h-123zM1556 1229v123h123v-123h-123zM1556 1434v122h123 v-122h-123zM1761 819v123h123v-123h-123zM1761 1024v123h123v-123h-123zM1761 1229v123h123v-123h-123z" />
<glyph unicode="Q" d="M123 205v123h123v-123h-123zM123 410v122h123v-122h-123zM123 614v123h123v-123h-123zM123 819v123h123v-123h-123zM123 1024v123h123v-123h-123zM123 1229v123h123v-123h-123zM328 0v123h123v-123h-123zM328 205v123h123v-123h-123zM328 410v122h123v-122h-123zM328 614 v123h123v-123h-123zM328 819v123h123v-123h-123zM328 1024v123h123v-123h-123zM328 1229v123h123v-123h-123zM328 1434v122h123v-122h-123zM532 0v123h123v-123h-123zM532 205v123h123v-123h-123zM532 410v122h123v-122h-123zM532 614v123h123v-123h-123zM532 819v123h123 v-123h-123zM532 1024v123h123v-123h-123zM532 1229v123h123v-123h-123zM532 1434v122h123v-122h-123zM737 0v123h123v-123h-123zM737 205v123h123v-123h-123zM737 1229v123h123v-123h-123zM737 1434v122h123v-122h-123zM942 0v123h123v-123h-123zM942 205v123h123v-123h-123 zM942 1229v123h123v-123h-123zM942 1434v122h123v-122h-123zM1147 0v123h123v-123h-123zM1147 205v123h123v-123h-123zM1147 1229v123h123v-123h-123zM1147 1434v122h123v-122h-123zM1352 0v123h123v-123h-123zM1352 -82h123v-123h-123v123zM1352 205v123h123v-123h-123z M1352 -287h123v-123h-123v123zM1352 410v122h123v-122h-123zM1352 614v123h123v-123h-123zM1352 819v123h123v-123h-123zM1352 1024v123h123v-123h-123zM1352 1229v123h123v-123h-123zM1352 1434v122h123v-122h-123zM1556 0v123h123v-123h-123zM1556 -82h123v-123h-123v123z M1556 205v123h123v-123h-123zM1556 -287h123v-123h-123v123zM1556 410v122h123v-122h-123zM1556 614v123h123v-123h-123zM1556 819v123h123v-123h-123zM1556 1024v123h123v-123h-123zM1556 1229v123h123v-123h-123zM1556 1434v122h123v-122h-123zM1761 0v123h123v-123h-123z M1761 -82h123v-123h-123v123zM1761 205v123h123v-123h-123zM1761 -287h123v-123h-123v123zM1761 410v122h123v-122h-123zM1761 614v123h123v-123h-123zM1761 819v123h123v-123h-123zM1761 1024v123h123v-123h-123zM1761 1229v123h123v-123h-123z" />
<glyph unicode="R" horiz-adv-x="1024" d="M123 0v123h123v-123h-123zM123 205v123h123v-123h-123zM123 410v122h123v-122h-123zM123 614v123h123v-123h-123zM123 819v123h123v-123h-123zM123 1024v123h123v-123h-123zM123 1229v123h123v-123h-123zM328 0v123h123v-123h-123zM328 205v123h123v-123h-123zM328 410 v122h123v-122h-123zM328 614v123h123v-123h-123zM328 819v123h123v-123h-123zM328 1024v123h123v-123h-123zM328 1229v123h123v-123h-123zM328 1434v122h123v-122h-123zM532 0v123h123v-123h-123zM532 205v123h123v-123h-123zM532 410v122h123v-122h-123zM532 614v123h123 v-123h-123zM532 819v123h123v-123h-123zM532 1024v123h123v-123h-123zM532 1229v123h123v-123h-123zM532 1434v122h123v-122h-123zM737 1229v123h123v-123h-123zM737 1434v122h123v-122h-123z" />
<glyph unicode="S" d="M123 205v123h123v-123h-123zM123 819v123h123v-123h-123zM123 1024v123h123v-123h-123zM123 1229v123h123v-123h-123zM328 0v123h123v-123h-123zM328 205v123h123v-123h-123zM328 614v123h123v-123h-123zM328 819v123h123v-123h-123zM328 1024v123h123v-123h-123z M328 1229v123h123v-123h-123zM328 1434v122h123v-122h-123zM532 0v123h123v-123h-123zM532 205v123h123v-123h-123zM532 614v123h123v-123h-123zM532 819v123h123v-123h-123zM532 1024v123h123v-123h-123zM532 1229v123h123v-123h-123zM532 1434v122h123v-122h-123zM737 0 v123h123v-123h-123zM737 205v123h123v-123h-123zM737 614v123h123v-123h-123zM737 819v123h123v-123h-123zM737 1229v123h123v-123h-123zM737 1434v122h123v-122h-123zM942 0v123h123v-123h-123zM942 205v123h123v-123h-123zM942 614v123h123v-123h-123zM942 819v123h123 v-123h-123zM942 1229v123h123v-123h-123zM942 1434v122h123v-122h-123zM1147 0v123h123v-123h-123zM1147 205v123h123v-123h-123zM1147 614v123h123v-123h-123zM1147 819v123h123v-123h-123zM1147 1229v123h123v-123h-123zM1147 1434v122h123v-122h-123zM1352 0v123h123 v-123h-123zM1352 205v123h123v-123h-123zM1352 410v122h123v-122h-123zM1352 614v123h123v-123h-123zM1352 819v123h123v-123h-123zM1352 1229v123h123v-123h-123zM1352 1434v122h123v-122h-123zM1556 0v123h123v-123h-123zM1556 205v123h123v-123h-123zM1556 410v122h123 v-122h-123zM1556 614v123h123v-123h-123zM1556 819v123h123v-123h-123zM1556 1229v123h123v-123h-123zM1556 1434v122h123v-122h-123zM1761 205v123h123v-123h-123zM1761 410v122h123v-122h-123zM1761 614v123h123v-123h-123zM1761 1229v123h123v-123h-123z" />
<glyph unicode="T" horiz-adv-x="1228" d="M123 1229v123h123v-123h-123zM123 1434v122h123v-122h-123zM328 0v123h123v-123h-123zM328 205v123h123v-123h-123zM328 410v122h123v-122h-123zM328 614v123h123v-123h-123zM328 819v123h123v-123h-123zM328 1024v123h123v-123h-123zM328 1229v123h123v-123h-123z M328 1434v122h123v-122h-123zM328 1638v123h123v-123h-123zM532 0v123h123v-123h-123zM532 205v123h123v-123h-123zM532 410v122h123v-122h-123zM532 614v123h123v-123h-123zM532 819v123h123v-123h-123zM532 1024v123h123v-123h-123zM532 1229v123h123v-123h-123zM532 1434 v122h123v-122h-123zM532 1638v123h123v-123h-123zM737 0v123h123v-123h-123zM737 205v123h123v-123h-123zM737 410v122h123v-122h-123zM737 614v123h123v-123h-123zM737 819v123h123v-123h-123zM737 1024v123h123v-123h-123zM737 1229v123h123v-123h-123zM737 1434v122h123 v-122h-123zM737 1638v123h123v-123h-123zM942 1229v123h123v-123h-123zM942 1434v122h123v-122h-123z" />
<glyph unicode="U" d="M123 205v123h123v-123h-123zM123 410v122h123v-122h-123zM123 614v123h123v-123h-123zM123 819v123h123v-123h-123zM123 1024v123h123v-123h-123zM123 1229v123h123v-123h-123zM123 1434v122h123v-122h-123zM328 0v123h123v-123h-123zM328 205v123h123v-123h-123z M328 410v122h123v-122h-123zM328 614v123h123v-123h-123zM328 819v123h123v-123h-123zM328 1024v123h123v-123h-123zM328 1229v123h123v-123h-123zM328 1434v122h123v-122h-123zM532 0v123h123v-123h-123zM532 205v123h123v-123h-123zM532 410v122h123v-122h-123zM532 614 v123h123v-123h-123zM532 819v123h123v-123h-123zM532 1024v123h123v-123h-123zM532 1229v123h123v-123h-123zM532 1434v122h123v-122h-123zM737 0v123h123v-123h-123zM737 205v123h123v-123h-123zM942 0v123h123v-123h-123zM942 205v123h123v-123h-123zM1147 0v123h123v-123 h-123zM1147 205v123h123v-123h-123zM1352 0v123h123v-123h-123zM1352 205v123h123v-123h-123zM1352 410v122h123v-122h-123zM1352 614v123h123v-123h-123zM1352 819v123h123v-123h-123zM1352 1024v123h123v-123h-123zM1352 1229v123h123v-123h-123zM1352 1434v122h123v-122 h-123zM1556 0v123h123v-123h-123zM1556 205v123h123v-123h-123zM1556 410v122h123v-122h-123zM1556 614v123h123v-123h-123zM1556 819v123h123v-123h-123zM1556 1024v123h123v-123h-123zM1556 1229v123h123v-123h-123zM1556 1434v122h123v-122h-123zM1761 205v123h123v-123 h-123zM1761 410v122h123v-122h-123zM1761 614v123h123v-123h-123zM1761 819v123h123v-123h-123zM1761 1024v123h123v-123h-123zM1761 1229v123h123v-123h-123zM1761 1434v122h123v-122h-123z" />
<glyph unicode="V" d="M123 614v123h123v-123h-123zM123 819v123h123v-123h-123zM123 1024v123h123v-123h-123zM123 1229v123h123v-123h-123zM123 1434v122h123v-122h-123zM328 410v122h123v-122h-123zM328 614v123h123v-123h-123zM328 819v123h123v-123h-123zM328 1024v123h123v-123h-123z M328 1229v123h123v-123h-123zM328 1434v122h123v-122h-123zM532 205v123h123v-123h-123zM532 410v122h123v-122h-123zM532 614v123h123v-123h-123zM532 819v123h123v-123h-123zM532 1024v123h123v-123h-123zM532 1229v123h123v-123h-123zM532 1434v122h123v-122h-123zM737 0 v123h123v-123h-123zM737 205v123h123v-123h-123zM737 410v122h123v-122h-123zM942 0v123h123v-123h-123zM942 205v123h123v-123h-123zM1147 0v123h123v-123h-123zM1147 205v123h123v-123h-123zM1147 410v122h123v-122h-123zM1352 205v123h123v-123h-123zM1352 410v122h123 v-122h-123zM1352 614v123h123v-123h-123zM1352 819v123h123v-123h-123zM1352 1024v123h123v-123h-123zM1352 1229v123h123v-123h-123zM1352 1434v122h123v-122h-123zM1556 410v122h123v-122h-123zM1556 614v123h123v-123h-123zM1556 819v123h123v-123h-123zM1556 1024v123 h123v-123h-123zM1556 1229v123h123v-123h-123zM1556 1434v122h123v-122h-123zM1761 614v123h123v-123h-123zM1761 819v123h123v-123h-123zM1761 1024v123h123v-123h-123zM1761 1229v123h123v-123h-123zM1761 1434v122h123v-122h-123z" />
<glyph unicode="W" horiz-adv-x="2457" d="M123 205v123h123v-123h-123zM123 410v122h123v-122h-123zM123 614v123h123v-123h-123zM123 819v123h123v-123h-123zM123 1024v123h123v-123h-123zM123 1229v123h123v-123h-123zM123 1434v122h123v-122h-123zM328 0v123h123v-123h-123zM328 205v123h123v-123h-123z M328 410v122h123v-122h-123zM328 614v123h123v-123h-123zM328 819v123h123v-123h-123zM328 1024v123h123v-123h-123zM328 1229v123h123v-123h-123zM328 1434v122h123v-122h-123zM532 0v123h123v-123h-123zM532 205v123h123v-123h-123zM532 410v122h123v-122h-123zM532 614 v123h123v-123h-123zM532 819v123h123v-123h-123zM532 1024v123h123v-123h-123zM532 1229v123h123v-123h-123zM532 1434v122h123v-122h-123zM737 0v123h123v-123h-123zM737 205v123h123v-123h-123zM942 0v123h123v-123h-123zM942 205v123h123v-123h-123zM942 410v122h123 v-122h-123zM942 614v123h123v-123h-123zM942 819v123h123v-123h-123zM942 1024v123h123v-123h-123zM942 1229v123h123v-123h-123zM942 1434v122h123v-122h-123zM1147 0v123h123v-123h-123zM1147 205v123h123v-123h-123zM1147 410v122h123v-122h-123zM1147 614v123h123v-123 h-123zM1147 819v123h123v-123h-123zM1147 1024v123h123v-123h-123zM1147 1229v123h123v-123h-123zM1147 1434v122h123v-122h-123zM1352 0v123h123v-123h-123zM1352 205v123h123v-123h-123zM1352 410v122h123v-122h-123zM1352 614v123h123v-123h-123zM1352 819v123h123v-123 h-123zM1352 1024v123h123v-123h-123zM1352 1229v123h123v-123h-123zM1352 1434v122h123v-122h-123zM1556 0v123h123v-123h-123zM1556 205v123h123v-123h-123zM1761 0v123h123v-123h-123zM1761 205v123h123v-123h-123zM1761 410v122h123v-122h-123zM1761 614v123h123v-123 h-123zM1761 819v123h123v-123h-123zM1761 1024v123h123v-123h-123zM1761 1229v123h123v-123h-123zM1761 1434v122h123v-122h-123zM1966 0v123h123v-123h-123zM1966 205v123h123v-123h-123zM1966 410v122h123v-122h-123zM1966 614v123h123v-123h-123zM1966 819v123h123v-123 h-123zM1966 1024v123h123v-123h-123zM1966 1229v123h123v-123h-123zM1966 1434v122h123v-122h-123zM2171 205v123h123v-123h-123zM2171 410v122h123v-122h-123zM2171 614v123h123v-123h-123zM2171 819v123h123v-123h-123zM2171 1024v123h123v-123h-123zM2171 1229v123h123 v-123h-123zM2171 1434v122h123v-122h-123z" />
<glyph unicode="X" horiz-adv-x="2252" d="M123 0v123h123v-123h-123zM123 1434v122h123v-122h-123zM328 0v123h123v-123h-123zM328 205v123h123v-123h-123zM328 1229v123h123v-123h-123zM328 1434v122h123v-122h-123zM532 0v123h123v-123h-123zM532 205v123h123v-123h-123zM532 410v122h123v-122h-123zM532 1024 v123h123v-123h-123zM532 1229v123h123v-123h-123zM532 1434v122h123v-122h-123zM737 205v123h123v-123h-123zM737 410v122h123v-122h-123zM737 614v123h123v-123h-123zM737 819v123h123v-123h-123zM737 1024v123h123v-123h-123zM737 1229v123h123v-123h-123zM942 410v122 h123v-122h-123zM942 614v123h123v-123h-123zM942 819v123h123v-123h-123zM942 1024v123h123v-123h-123zM1147 410v122h123v-122h-123zM1147 614v123h123v-123h-123zM1147 819v123h123v-123h-123zM1147 1024v123h123v-123h-123zM1352 205v123h123v-123h-123zM1352 410v122 h123v-122h-123zM1352 614v123h123v-123h-123zM1352 819v123h123v-123h-123zM1352 1024v123h123v-123h-123zM1352 1229v123h123v-123h-123zM1556 0v123h123v-123h-123zM1556 205v123h123v-123h-123zM1556 410v122h123v-122h-123zM1556 1024v123h123v-123h-123zM1556 1229v123 h123v-123h-123zM1556 1434v122h123v-122h-123zM1761 0v123h123v-123h-123zM1761 205v123h123v-123h-123zM1761 1229v123h123v-123h-123zM1761 1434v122h123v-122h-123zM1966 0v123h123v-123h-123zM1966 1434v122h123v-122h-123z" />
<glyph unicode="Y" horiz-adv-x="2050" d="M123 819v123h123v-123h-123zM123 1024v123h123v-123h-123zM123 1229v123h123v-123h-123zM123 1434v122h123v-122h-123zM328 614v123h123v-123h-123zM328 819v123h123v-123h-123zM328 1024v123h123v-123h-123zM328 1229v123h123v-123h-123zM328 1434v122h123v-122h-123z M532 1024v123h123v-123h-123zM532 1229v123h123v-123h-123zM532 1434v122h123v-122h-123zM535 614v123h122v-123h-122zM535 819v123h122v-123h-122zM737 0v123h123v-123h-123zM737 205v123h123v-123h-123zM737 410v122h123v-122h-123zM737 614v123h123v-123h-123zM737 819 v123h123v-123h-123zM942 0v123h123v-123h-123zM942 205v123h123v-123h-123zM942 410v122h123v-122h-123zM942 614v123h123v-123h-123zM942 819v123h123v-123h-123zM1147 0v123h123v-123h-123zM1147 205v123h123v-123h-123zM1147 410v122h123v-122h-123zM1147 614v123h123 v-123h-123zM1147 819v123h123v-123h-123zM1352 614v123h123v-123h-123zM1352 819v123h123v-123h-123zM1352 1024v123h123v-123h-123zM1352 1229v123h123v-123h-123zM1352 1434v122h123v-122h-123zM1556 614v123h123v-123h-123zM1556 819v123h123v-123h-123zM1556 1024v123 h123v-123h-123zM1556 1229v123h123v-123h-123zM1556 1434v122h123v-122h-123zM1761 1024v123h123v-123h-123zM1761 1229v123h123v-123h-123zM1761 1434v122h123v-122h-123zM1763 819v123h123v-123h-123z" />
<glyph unicode="Z" d="M123 0v123h123v-123h-123zM123 205v123h123v-123h-123zM123 410v122h123v-122h-123zM123 1229v123h123v-123h-123zM123 1434v122h123v-122h-123zM328 0v123h123v-123h-123zM328 205v123h123v-123h-123zM328 410v122h123v-122h-123zM328 1229v123h123v-123h-123zM328 1434 v122h123v-122h-123zM532 0v123h123v-123h-123zM532 205v123h123v-123h-123zM532 410v122h123v-122h-123zM532 614v123h123v-123h-123zM532 1229v123h123v-123h-123zM532 1434v122h123v-122h-123zM737 0v123h123v-123h-123zM737 205v123h123v-123h-123zM737 410v122h123v-122 h-123zM737 614v123h123v-123h-123zM737 1229v123h123v-123h-123zM737 1434v122h123v-122h-123zM942 0v123h123v-123h-123zM942 205v123h123v-123h-123zM942 614v123h123v-123h-123zM942 819v123h123v-123h-123zM942 1229v123h123v-123h-123zM942 1434v122h123v-122h-123z M1147 0v123h123v-123h-123zM1147 205v123h123v-123h-123zM1147 614v123h123v-123h-123zM1147 819v123h123v-123h-123zM1147 1229v123h123v-123h-123zM1147 1434v122h123v-122h-123zM1352 0v123h123v-123h-123zM1352 205v123h123v-123h-123zM1352 819v123h123v-123h-123z M1352 1024v123h123v-123h-123zM1352 1229v123h123v-123h-123zM1352 1434v122h123v-122h-123zM1556 0v123h123v-123h-123zM1556 205v123h123v-123h-123zM1556 819v123h123v-123h-123zM1556 1024v123h123v-123h-123zM1556 1229v123h123v-123h-123zM1556 1434v122h123v-122 h-123zM1761 0v123h123v-123h-123zM1761 205v123h123v-123h-123zM1761 1024v123h123v-123h-123zM1761 1229v123h123v-123h-123zM1761 1434v122h123v-122h-123z" />
<glyph unicode="[" horiz-adv-x="614" d="M123 0v123h123v-123h-123zM123 205v123h123v-123h-123zM123 205v123h123v-123h-123zM123 410v122h123v-122h-123zM123 614v123h123v-123h-123zM123 819v123h123v-123h-123zM123 1024v123h123v-123h-123zM123 1229v123h123v-123h-123zM123 1434v122h123v-122h-123zM328 0 v123h123v-123h-123zM328 1434v122h123v-122h-123z" />
<glyph unicode="\" horiz-adv-x="1843" d="M123 1434v122h123v-122h-123zM328 1229v123h123v-123h-123zM532 1024v123h123v-123h-123zM737 819v123h123v-123h-123zM942 614v123h123v-123h-123zM1147 410v122h123v-122h-123zM1352 205v123h123v-123h-123zM1556 0v123h123v-123h-123z" />
<glyph unicode="]" horiz-adv-x="616" d="M123 0v123h123v-123h-123zM123 1434v122h123v-122h-123zM328 0v123h123v-123h-123zM328 1434v122h123v-122h-123zM330 205v123h123v-123h-123zM330 205v123h123v-123h-123zM330 410v122h123v-122h-123zM330 614v123h123v-123h-123zM330 819v123h123v-123h-123zM330 1024 v123h123v-123h-123zM330 1229v123h123v-123h-123z" />
<glyph unicode="^" horiz-adv-x="1228" d="M123 1231v123h123v-123h-123zM328 1436v123h123v-123h-123zM532 1640v123h123v-123h-123zM737 1436v123h123v-123h-123zM942 1231v123h123v-123h-123z" />
<glyph unicode="_" d="M123 -82h123v-123h-123v123zM328 -82h123v-123h-123v123zM532 -82h123v-123h-123v123zM737 -82h123v-123h-123v123zM942 -82h123v-123h-123v123zM1147 -82h123v-123h-123v123zM1352 -82h123v-123h-123v123zM1556 -82h123v-123h-123v123zM1761 -82h123v-123h-123v123z" />
<glyph unicode="`" horiz-adv-x="409" d="M123 1024v123h123v-123h-123zM123 1229v123h123v-123h-123zM123 1434v122h123v-122h-123z" />
<glyph unicode="a" d="M123 0v123h123v-123h-123zM123 207v119h123v-119h-123zM123 410v122h123v-122h-123zM123 614v125h123v-125h-123zM123 821v121h123v-121h-123zM123 1024v123h123v-123h-123zM123 1229v123h123v-123h-123zM328 0v123h121v-123h-121zM328 207v119h121v-119h-121zM328 410 v122h121v-122h-121zM328 614v125h121v-125h-121zM328 821v121h121v-121h-121zM328 1024v123h121v-123h-121zM328 1229v123h121v-123h-121zM328 1436v120h121v-120h-121zM532 0v123h123v-123h-123zM532 207v119h123v-119h-123zM532 410v122h123v-122h-123zM532 614v125h123 v-125h-123zM532 821v121h123v-121h-123zM532 1024v123h123v-123h-123zM532 1229v123h123v-123h-123zM532 1436v120h123v-120h-123zM737 614v125h123v-125h-123zM737 821v121h123v-121h-123zM737 1229v123h123v-123h-123zM737 1436v120h123v-120h-123zM944 614v125h121v-125 h-121zM944 821v121h121v-121h-121zM944 1229v123h121v-123h-121zM944 1436v120h121v-120h-121zM1147 614v125h123v-125h-123zM1147 821v121h123v-121h-123zM1147 1229v123h123v-123h-123zM1147 1436v120h123v-120h-123zM1352 0v123h123v-123h-123zM1352 207v119h123v-119 h-123zM1352 410v122h123v-122h-123zM1352 614v125h123v-125h-123zM1352 821v121h123v-121h-123zM1352 1024v123h123v-123h-123zM1352 1229v123h123v-123h-123zM1352 1436v120h123v-120h-123zM1559 0v123h120v-123h-120zM1559 207v119h120v-119h-120zM1559 410v122h120v-122 h-120zM1559 614v125h120v-125h-120zM1559 821v121h120v-121h-120zM1559 1024v123h120v-123h-120zM1559 1229v123h120v-123h-120zM1559 1436v120h120v-120h-120zM1761 0v123h123v-123h-123zM1761 207v119h123v-119h-123zM1761 410v122h123v-122h-123zM1761 614v125h123v-125 h-123zM1761 821v121h123v-121h-123zM1761 1024v123h123v-123h-123zM1761 1229v123h123v-123h-123z" />
<glyph unicode="b" d="M123 0v123h123v-123h-123zM123 205v123h123v-123h-123zM123 410v122h123v-122h-123zM123 614v123h123v-123h-123zM123 819v123h123v-123h-123zM123 1024v123h123v-123h-123zM123 1229v123h123v-123h-123zM123 1434v122h123v-122h-123zM328 0v123h123v-123h-123zM328 205 v123h123v-123h-123zM328 410v122h123v-122h-123zM328 614v123h123v-123h-123zM328 819v123h123v-123h-123zM328 1024v123h123v-123h-123zM328 1229v123h123v-123h-123zM328 1434v122h123v-122h-123zM532 0v123h123v-123h-123zM532 205v123h123v-123h-123zM532 410v122h123 v-122h-123zM532 614v123h123v-123h-123zM532 819v123h123v-123h-123zM532 1024v123h123v-123h-123zM532 1229v123h123v-123h-123zM532 1434v122h123v-122h-123zM737 0v123h123v-123h-123zM737 205v123h123v-123h-123zM737 614v123h123v-123h-123zM737 819v123h123v-123h-123 zM737 1229v123h123v-123h-123zM737 1434v122h123v-122h-123zM942 0v123h123v-123h-123zM942 205v123h123v-123h-123zM942 614v123h123v-123h-123zM942 819v123h123v-123h-123zM942 1229v123h123v-123h-123zM942 1434v122h123v-122h-123zM1147 0v123h123v-123h-123zM1147 205 v123h123v-123h-123zM1147 614v123h123v-123h-123zM1147 819v123h123v-123h-123zM1147 1229v123h123v-123h-123zM1147 1434v122h123v-122h-123zM1352 0v123h123v-123h-123zM1352 205v123h123v-123h-123zM1352 410v122h123v-122h-123zM1352 614v123h123v-123h-123zM1352 819 v123h123v-123h-123zM1352 1024v123h123v-123h-123zM1352 1229v123h123v-123h-123zM1352 1434v122h123v-122h-123zM1556 0v123h123v-123h-123zM1556 205v123h123v-123h-123zM1556 410v122h123v-122h-123zM1556 614v123h123v-123h-123zM1556 819v123h123v-123h-123zM1556 1024 v123h123v-123h-123zM1556 1229v123h123v-123h-123zM1556 1434v122h123v-122h-123zM1761 205v123h123v-123h-123zM1761 410v122h123v-122h-123zM1761 614v123h123v-123h-123zM1761 819v123h123v-123h-123zM1761 1024v123h123v-123h-123zM1761 1229v123h123v-123h-123z" />
<glyph unicode="c" d="M123 205v123h123v-123h-123zM123 410v122h123v-122h-123zM123 614v123h123v-123h-123zM123 819v123h123v-123h-123zM123 1024v123h123v-123h-123zM123 1229v123h123v-123h-123zM328 0v123h123v-123h-123zM328 205v123h123v-123h-123zM328 410v122h123v-122h-123zM328 614 v123h123v-123h-123zM328 819v123h123v-123h-123zM328 1024v123h123v-123h-123zM328 1229v123h123v-123h-123zM328 1434v122h123v-122h-123zM532 0v123h123v-123h-123zM532 205v123h123v-123h-123zM532 410v122h123v-122h-123zM532 614v123h123v-123h-123zM532 819v123h123 v-123h-123zM532 1024v123h123v-123h-123zM532 1229v123h123v-123h-123zM532 1434v122h123v-122h-123zM737 0v123h123v-123h-123zM737 205v123h123v-123h-123zM737 1229v123h123v-123h-123zM737 1434v122h123v-122h-123zM942 0v123h123v-123h-123zM942 205v123h123v-123h-123 zM942 1229v123h123v-123h-123zM942 1434v122h123v-122h-123zM1147 0v123h123v-123h-123zM1147 205v123h123v-123h-123zM1147 1229v123h123v-123h-123zM1147 1434v122h123v-122h-123zM1352 0v123h123v-123h-123zM1352 205v123h123v-123h-123zM1352 410v122h123v-122h-123z M1352 1024v123h123v-123h-123zM1352 1229v123h123v-123h-123zM1352 1434v122h123v-122h-123zM1556 0v123h123v-123h-123zM1556 205v123h123v-123h-123zM1556 410v122h123v-122h-123zM1556 1024v123h123v-123h-123zM1556 1229v123h123v-123h-123zM1556 1434v122h123v-122 h-123zM1761 205v123h123v-123h-123zM1761 410v122h123v-122h-123zM1761 1024v123h123v-123h-123zM1761 1229v123h123v-123h-123z" />
<glyph unicode="d" d="M123 0v123h123v-123h-123zM123 205v123h123v-123h-123zM123 410v122h123v-122h-123zM123 614v123h123v-123h-123zM123 819v123h123v-123h-123zM123 1024v123h123v-123h-123zM123 1229v123h123v-123h-123zM123 1434v122h123v-122h-123zM328 0v123h123v-123h-123zM328 205 v123h123v-123h-123zM328 410v122h123v-122h-123zM328 614v123h123v-123h-123zM328 819v123h123v-123h-123zM328 1024v123h123v-123h-123zM328 1229v123h123v-123h-123zM328 1434v122h123v-122h-123zM532 0v123h123v-123h-123zM532 205v123h123v-123h-123zM532 410v122h123 v-122h-123zM532 614v123h123v-123h-123zM532 819v123h123v-123h-123zM532 1024v123h123v-123h-123zM532 1229v123h123v-123h-123zM532 1434v122h123v-122h-123zM737 0v123h123v-123h-123zM737 205v123h123v-123h-123zM737 1229v123h123v-123h-123zM737 1434v122h123v-122 h-123zM942 0v123h123v-123h-123zM942 205v123h123v-123h-123zM942 1229v123h123v-123h-123zM942 1434v122h123v-122h-123zM1147 0v123h123v-123h-123zM1147 205v123h123v-123h-123zM1147 1229v123h123v-123h-123zM1147 1434v122h123v-122h-123zM1352 0v123h123v-123h-123z M1352 205v123h123v-123h-123zM1352 410v122h123v-122h-123zM1352 614v123h123v-123h-123zM1352 819v123h123v-123h-123zM1352 1024v123h123v-123h-123zM1352 1229v123h123v-123h-123zM1352 1434v122h123v-122h-123zM1556 0v123h123v-123h-123zM1556 205v123h123v-123h-123z M1556 410v122h123v-122h-123zM1556 614v123h123v-123h-123zM1556 819v123h123v-123h-123zM1556 1024v123h123v-123h-123zM1556 1229v123h123v-123h-123zM1556 1434v122h123v-122h-123zM1761 205v123h123v-123h-123zM1761 410v122h123v-122h-123zM1761 614v123h123v-123h-123 zM1761 819v123h123v-123h-123zM1761 1024v123h123v-123h-123zM1761 1229v123h123v-123h-123z" />
<glyph unicode="e" d="M123 205v123h123v-123h-123zM123 410v122h123v-122h-123zM123 614v123h123v-123h-123zM123 819v123h123v-123h-123zM123 1024v123h123v-123h-123zM123 1229v123h123v-123h-123zM328 0v123h123v-123h-123zM328 205v123h123v-123h-123zM328 410v122h123v-122h-123zM328 614 v123h123v-123h-123zM328 819v123h123v-123h-123zM328 1024v123h123v-123h-123zM328 1229v123h123v-123h-123zM328 1434v122h123v-122h-123zM532 0v123h123v-123h-123zM532 205v123h123v-123h-123zM532 410v122h123v-122h-123zM532 614v123h123v-123h-123zM532 819v123h123 v-123h-123zM532 1024v123h123v-123h-123zM532 1229v123h123v-123h-123zM532 1434v122h123v-122h-123zM737 0v123h123v-123h-123zM737 205v123h123v-123h-123zM737 614v123h123v-123h-123zM737 819v123h123v-123h-123zM737 1229v123h123v-123h-123zM737 1434v122h123v-122 h-123zM942 0v123h123v-123h-123zM942 205v123h123v-123h-123zM942 614v123h123v-123h-123zM942 819v123h123v-123h-123zM942 1229v123h123v-123h-123zM942 1434v122h123v-122h-123zM1147 0v123h123v-123h-123zM1147 205v123h123v-123h-123zM1147 614v123h123v-123h-123z M1147 819v123h123v-123h-123zM1147 1229v123h123v-123h-123zM1147 1434v122h123v-122h-123zM1352 0v123h123v-123h-123zM1352 205v123h123v-123h-123zM1352 614v123h123v-123h-123zM1352 819v123h123v-123h-123zM1352 1024v123h123v-123h-123zM1352 1229v123h123v-123h-123z M1352 1434v122h123v-122h-123zM1556 0v123h123v-123h-123zM1556 205v123h123v-123h-123zM1556 614v123h123v-123h-123zM1556 819v123h123v-123h-123zM1556 1024v123h123v-123h-123zM1556 1229v123h123v-123h-123zM1556 1434v122h123v-122h-123zM1761 0v123h123v-123h-123z M1761 205v123h123v-123h-123zM1761 614v123h123v-123h-123zM1761 819v123h123v-123h-123zM1761 1024v123h123v-123h-123zM1761 1229v123h123v-123h-123z" />
<glyph unicode="f" horiz-adv-x="1843" d="M123 0v123h123v-123h-123zM123 205v123h123v-123h-123zM123 410v122h123v-122h-123zM123 614v123h123v-123h-123zM123 819v123h123v-123h-123zM123 1024v123h123v-123h-123zM123 1229v123h123v-123h-123zM123 1434v122h123v-122h-123zM328 0v123h123v-123h-123zM328 205 v123h123v-123h-123zM328 410v122h123v-122h-123zM328 614v123h123v-123h-123zM328 819v123h123v-123h-123zM328 1024v123h123v-123h-123zM328 1229v123h123v-123h-123zM328 1434v122h123v-122h-123zM532 0v123h123v-123h-123zM532 205v123h123v-123h-123zM532 410v122h123 v-122h-123zM532 614v123h123v-123h-123zM532 819v123h123v-123h-123zM532 1024v123h123v-123h-123zM532 1229v123h123v-123h-123zM532 1434v122h123v-122h-123zM737 614v123h123v-123h-123zM737 819v123h123v-123h-123zM737 1229v123h123v-123h-123zM737 1434v122h123v-122 h-123zM942 614v123h123v-123h-123zM942 819v123h123v-123h-123zM942 1229v123h123v-123h-123zM942 1434v122h123v-122h-123zM1147 614v123h123v-123h-123zM1147 819v123h123v-123h-123zM1147 1229v123h123v-123h-123zM1147 1434v122h123v-122h-123zM1352 614v123h123v-123 h-123zM1352 819v123h123v-123h-123zM1352 1229v123h123v-123h-123zM1352 1434v122h123v-122h-123zM1556 1229v123h123v-123h-123zM1556 1434v122h123v-122h-123z" />
<glyph unicode="g" d="M123 205v123h123v-123h-123zM123 410v122h123v-122h-123zM123 614v123h123v-123h-123zM123 819v123h123v-123h-123zM123 1024v123h123v-123h-123zM123 1229v123h123v-123h-123zM328 0v123h123v-123h-123zM328 205v123h123v-123h-123zM328 410v122h123v-122h-123zM328 614 v123h123v-123h-123zM328 819v123h123v-123h-123zM328 1024v123h123v-123h-123zM328 1229v123h123v-123h-123zM328 1434v122h123v-122h-123zM532 0v123h123v-123h-123zM532 205v123h123v-123h-123zM532 410v122h123v-122h-123zM532 614v123h123v-123h-123zM532 819v123h123 v-123h-123zM532 1024v123h123v-123h-123zM532 1229v123h123v-123h-123zM532 1434v122h123v-122h-123zM737 0v123h123v-123h-123zM737 205v123h123v-123h-123zM737 1229v123h123v-123h-123zM737 1434v122h123v-122h-123zM942 0v123h123v-123h-123zM942 205v123h123v-123h-123 zM942 1229v123h123v-123h-123zM942 1434v122h123v-122h-123zM1147 0v123h123v-123h-123zM1147 205v123h123v-123h-123zM1147 614v123h123v-123h-123zM1147 1229v123h123v-123h-123zM1147 1434v122h123v-122h-123zM1352 0v123h123v-123h-123zM1352 205v123h123v-123h-123z M1352 410v122h123v-122h-123zM1352 614v123h123v-123h-123zM1352 1229v123h123v-123h-123zM1352 1434v122h123v-122h-123zM1556 0v123h123v-123h-123zM1556 205v123h123v-123h-123zM1556 410v122h123v-122h-123zM1556 614v123h123v-123h-123zM1556 1229v123h123v-123h-123z M1556 1434v122h123v-122h-123zM1761 205v123h123v-123h-123zM1761 410v122h123v-122h-123zM1761 614v123h123v-123h-123zM1761 1229v123h123v-123h-123z" />
<glyph unicode="h" d="M123 0v123h123v-123h-123zM123 205v123h123v-123h-123zM123 410v122h123v-122h-123zM123 614v123h123v-123h-123zM123 819v123h123v-123h-123zM123 1024v123h123v-123h-123zM123 1229v123h123v-123h-123zM123 1434v122h123v-122h-123zM328 0v123h123v-123h-123zM328 205 v123h123v-123h-123zM328 410v122h123v-122h-123zM328 614v123h123v-123h-123zM328 819v123h123v-123h-123zM328 1024v123h123v-123h-123zM328 1229v123h123v-123h-123zM328 1434v122h123v-122h-123zM532 0v123h123v-123h-123zM532 205v123h123v-123h-123zM532 410v122h123 v-122h-123zM532 614v123h123v-123h-123zM532 819v123h123v-123h-123zM532 1024v123h123v-123h-123zM532 1229v123h123v-123h-123zM532 1434v122h123v-122h-123zM737 614v123h123v-123h-123zM737 819v123h123v-123h-123zM942 614v123h123v-123h-123zM942 819v123h123v-123 h-123zM1147 614v123h123v-123h-123zM1147 819v123h123v-123h-123zM1352 0v123h123v-123h-123zM1352 205v123h123v-123h-123zM1352 410v122h123v-122h-123zM1352 614v123h123v-123h-123zM1352 819v123h123v-123h-123zM1352 1024v123h123v-123h-123zM1352 1229v123h123v-123 h-123zM1352 1434v122h123v-122h-123zM1556 0v123h123v-123h-123zM1556 205v123h123v-123h-123zM1556 410v122h123v-122h-123zM1556 614v123h123v-123h-123zM1556 819v123h123v-123h-123zM1556 1024v123h123v-123h-123zM1556 1229v123h123v-123h-123zM1556 1434v122h123v-122 h-123zM1761 0v123h123v-123h-123zM1761 205v123h123v-123h-123zM1761 410v122h123v-122h-123zM1761 614v123h123v-123h-123zM1761 819v123h123v-123h-123zM1761 1024v123h123v-123h-123zM1761 1229v123h123v-123h-123zM1761 1434v122h123v-122h-123z" />
<glyph unicode="i" horiz-adv-x="819" d="M123 0v123h123v-123h-123zM123 205v123h123v-123h-123zM123 410v122h123v-122h-123zM123 614v123h123v-123h-123zM123 819v123h123v-123h-123zM123 1024v123h123v-123h-123zM123 1229v123h123v-123h-123zM123 1434v122h123v-122h-123zM328 0v123h123v-123h-123zM328 205 v123h123v-123h-123zM328 410v122h123v-122h-123zM328 614v123h123v-123h-123zM328 819v123h123v-123h-123zM328 1024v123h123v-123h-123zM328 1229v123h123v-123h-123zM328 1434v122h123v-122h-123zM532 0v123h123v-123h-123zM532 205v123h123v-123h-123zM532 410v122h123 v-122h-123zM532 614v123h123v-123h-123zM532 819v123h123v-123h-123zM532 1024v123h123v-123h-123zM532 1229v123h123v-123h-123zM532 1434v122h123v-122h-123z" />
<glyph unicode="j" horiz-adv-x="1843" d="M123 205v123h123v-123h-123zM123 410v122h123v-122h-123zM328 0v123h123v-123h-123zM328 205v123h123v-123h-123zM328 410v122h123v-122h-123zM532 0v123h123v-123h-123zM532 205v123h123v-123h-123zM532 410v122h123v-122h-123zM737 0v123h123v-123h-123zM737 205v123 h123v-123h-123zM942 0v123h123v-123h-123zM942 205v123h123v-123h-123zM1147 0v123h123v-123h-123zM1147 205v123h123v-123h-123zM1147 410v122h123v-122h-123zM1147 614v123h123v-123h-123zM1147 819v123h123v-123h-123zM1147 1024v123h123v-123h-123zM1147 1229v123h123 v-123h-123zM1147 1434v122h123v-122h-123zM1352 0v123h123v-123h-123zM1352 205v123h123v-123h-123zM1352 410v122h123v-122h-123zM1352 614v123h123v-123h-123zM1352 819v123h123v-123h-123zM1352 1024v123h123v-123h-123zM1352 1229v123h123v-123h-123zM1352 1434v122h123 v-122h-123zM1556 205v123h123v-123h-123zM1556 410v122h123v-122h-123zM1556 614v123h123v-123h-123zM1556 819v123h123v-123h-123zM1556 1024v123h123v-123h-123zM1556 1229v123h123v-123h-123zM1556 1434v122h123v-122h-123z" />
<glyph unicode="k" d="M123 0v123h123v-123h-123zM123 205v123h123v-123h-123zM123 410v122h123v-122h-123zM123 614v123h123v-123h-123zM123 819v123h123v-123h-123zM123 1024v123h123v-123h-123zM123 1229v123h123v-123h-123zM123 1434v122h123v-122h-123zM328 0v123h123v-123h-123zM328 205 v123h123v-123h-123zM328 410v122h123v-122h-123zM328 614v123h123v-123h-123zM328 819v123h123v-123h-123zM328 1024v123h123v-123h-123zM328 1229v123h123v-123h-123zM328 1434v122h123v-122h-123zM532 0v123h123v-123h-123zM532 205v123h123v-123h-123zM532 410v122h123 v-122h-123zM532 614v123h123v-123h-123zM532 819v123h123v-123h-123zM532 1024v123h123v-123h-123zM532 1229v123h123v-123h-123zM532 1434v122h123v-122h-123zM737 614v123h123v-123h-123zM737 819v123h123v-123h-123zM942 410v122h123v-122h-123zM942 614v123h123v-123 h-123zM942 819v123h123v-123h-123zM942 1024v123h123v-123h-123zM1147 205v123h123v-123h-123zM1147 410v122h123v-122h-123zM1147 614v123h123v-123h-123zM1147 819v123h123v-123h-123zM1147 1024v123h123v-123h-123zM1147 1229v123h123v-123h-123zM1352 0v123h123v-123 h-123zM1352 205v123h123v-123h-123zM1352 410v122h123v-122h-123zM1352 1024v123h123v-123h-123zM1352 1229v123h123v-123h-123zM1352 1434v122h123v-122h-123zM1556 0v123h123v-123h-123zM1556 205v123h123v-123h-123zM1556 1229v123h123v-123h-123zM1556 1434v122h123 v-122h-123zM1761 0v123h123v-123h-123zM1761 1434v122h123v-122h-123z" />
<glyph unicode="l" horiz-adv-x="1433" d="M123 0v123h123v-123h-123zM123 205v123h123v-123h-123zM123 410v122h123v-122h-123zM123 614v123h123v-123h-123zM123 819v123h123v-123h-123zM123 1024v123h123v-123h-123zM123 1229v123h123v-123h-123zM123 1434v122h123v-122h-123zM328 0v123h123v-123h-123zM328 205 v123h123v-123h-123zM328 410v122h123v-122h-123zM328 614v123h123v-123h-123zM328 819v123h123v-123h-123zM328 1024v123h123v-123h-123zM328 1229v123h123v-123h-123zM328 1434v122h123v-122h-123zM532 0v123h123v-123h-123zM532 205v123h123v-123h-123zM532 410v122h123 v-122h-123zM532 614v123h123v-123h-123zM532 819v123h123v-123h-123zM532 1024v123h123v-123h-123zM532 1229v123h123v-123h-123zM532 1434v122h123v-122h-123zM737 0v123h123v-123h-123zM737 205v123h123v-123h-123zM942 0v123h123v-123h-123zM942 205v123h123v-123h-123z M1147 0v123h123v-123h-123zM1147 205v123h123v-123h-123z" />
<glyph unicode="m" horiz-adv-x="2457" d="M123 0v123h123v-123h-123zM123 205v123h123v-123h-123zM123 410v122h123v-122h-123zM123 614v123h123v-123h-123zM123 819v123h123v-123h-123zM123 1024v123h123v-123h-123zM123 1229v123h123v-123h-123zM328 0v123h123v-123h-123zM328 205v123h123v-123h-123zM328 410 v122h123v-122h-123zM328 614v123h123v-123h-123zM328 819v123h123v-123h-123zM328 1024v123h123v-123h-123zM328 1229v123h123v-123h-123zM328 1434v122h123v-122h-123zM532 0v123h123v-123h-123zM532 205v123h123v-123h-123zM532 410v122h123v-122h-123zM532 614v123h123 v-123h-123zM532 819v123h123v-123h-123zM532 1024v123h123v-123h-123zM532 1229v123h123v-123h-123zM532 1434v122h123v-122h-123zM737 1229v123h123v-123h-123zM737 1434v122h123v-122h-123zM942 0v123h123v-123h-123zM942 205v123h123v-123h-123zM942 410v122h123v-122 h-123zM942 614v123h123v-123h-123zM942 819v123h123v-123h-123zM942 1024v123h123v-123h-123zM942 1229v123h123v-123h-123zM942 1434v122h123v-122h-123zM1147 0v123h123v-123h-123zM1147 205v123h123v-123h-123zM1147 410v122h123v-122h-123zM1147 614v123h123v-123h-123z M1147 819v123h123v-123h-123zM1147 1024v123h123v-123h-123zM1147 1229v123h123v-123h-123zM1147 1434v122h123v-122h-123zM1352 0v123h123v-123h-123zM1352 205v123h123v-123h-123zM1352 410v122h123v-122h-123zM1352 614v123h123v-123h-123zM1352 819v123h123v-123h-123z M1352 1024v123h123v-123h-123zM1352 1229v123h123v-123h-123zM1352 1434v122h123v-122h-123zM1556 1229v123h123v-123h-123zM1556 1434v122h123v-122h-123zM1761 0v123h123v-123h-123zM1761 205v123h123v-123h-123zM1761 410v122h123v-122h-123zM1761 614v123h123v-123h-123 zM1761 819v123h123v-123h-123zM1761 1024v123h123v-123h-123zM1761 1229v123h123v-123h-123zM1761 1434v122h123v-122h-123zM1966 0v123h123v-123h-123zM1966 205v123h123v-123h-123zM1966 410v122h123v-122h-123zM1966 614v123h123v-123h-123zM1966 819v123h123v-123h-123z M1966 1024v123h123v-123h-123zM1966 1229v123h123v-123h-123zM1966 1434v122h123v-122h-123zM2171 0v123h123v-123h-123zM2171 205v123h123v-123h-123zM2171 410v122h123v-122h-123zM2171 614v123h123v-123h-123zM2171 819v123h123v-123h-123zM2171 1024v123h123v-123h-123z M2171 1229v123h123v-123h-123z" />
<glyph unicode="n" d="M123 0v123h123v-123h-123zM123 205v123h123v-123h-123zM123 410v122h123v-122h-123zM123 614v123h123v-123h-123zM123 819v123h123v-123h-123zM123 1024v123h123v-123h-123zM123 1229v123h123v-123h-123zM123 1434v122h123v-122h-123zM328 0v123h123v-123h-123zM328 205 v123h123v-123h-123zM328 410v122h123v-122h-123zM328 614v123h123v-123h-123zM328 819v123h123v-123h-123zM328 1024v123h123v-123h-123zM328 1229v123h123v-123h-123zM328 1434v122h123v-122h-123zM532 0v123h123v-123h-123zM532 205v123h123v-123h-123zM532 410v122h123 v-122h-123zM532 614v123h123v-123h-123zM532 819v123h123v-123h-123zM532 1024v123h123v-123h-123zM532 1229v123h123v-123h-123zM532 1434v122h123v-122h-123zM737 1229v123h123v-123h-123zM737 1434v122h123v-122h-123zM942 1229v123h123v-123h-123zM942 1434v122h123 v-122h-123zM1147 1229v123h123v-123h-123zM1147 1434v122h123v-122h-123zM1352 0v123h123v-123h-123zM1352 205v123h123v-123h-123zM1352 410v122h123v-122h-123zM1352 614v123h123v-123h-123zM1352 819v123h123v-123h-123zM1352 1024v123h123v-123h-123zM1352 1229v123h123 v-123h-123zM1352 1434v122h123v-122h-123zM1556 0v123h123v-123h-123zM1556 205v123h123v-123h-123zM1556 410v122h123v-122h-123zM1556 614v123h123v-123h-123zM1556 819v123h123v-123h-123zM1556 1024v123h123v-123h-123zM1556 1229v123h123v-123h-123zM1556 1434v122h123 v-122h-123zM1761 0v123h123v-123h-123zM1761 205v123h123v-123h-123zM1761 410v122h123v-122h-123zM1761 614v123h123v-123h-123zM1761 819v123h123v-123h-123zM1761 1024v123h123v-123h-123zM1761 1229v123h123v-123h-123z" />
<glyph unicode="o" d="M123 205v123h123v-123h-123zM123 410v122h123v-122h-123zM123 614v123h123v-123h-123zM123 819v123h123v-123h-123zM123 1024v123h123v-123h-123zM123 1229v123h123v-123h-123zM328 0v123h123v-123h-123zM328 205v123h123v-123h-123zM328 410v122h123v-122h-123zM328 614 v123h123v-123h-123zM328 819v123h123v-123h-123zM328 1024v123h123v-123h-123zM328 1229v123h123v-123h-123zM328 1434v122h123v-122h-123zM532 0v123h123v-123h-123zM532 205v123h123v-123h-123zM532 410v122h123v-122h-123zM532 614v123h123v-123h-123zM532 819v123h123 v-123h-123zM532 1024v123h123v-123h-123zM532 1229v123h123v-123h-123zM532 1434v122h123v-122h-123zM737 0v123h123v-123h-123zM737 205v123h123v-123h-123zM737 1229v123h123v-123h-123zM737 1434v122h123v-122h-123zM942 0v123h123v-123h-123zM942 205v123h123v-123h-123 zM942 1229v123h123v-123h-123zM942 1434v122h123v-122h-123zM1147 0v123h123v-123h-123zM1147 205v123h123v-123h-123zM1147 1229v123h123v-123h-123zM1147 1434v122h123v-122h-123zM1352 0v123h123v-123h-123zM1352 205v123h123v-123h-123zM1352 410v122h123v-122h-123z M1352 614v123h123v-123h-123zM1352 819v123h123v-123h-123zM1352 1024v123h123v-123h-123zM1352 1229v123h123v-123h-123zM1352 1434v122h123v-122h-123zM1556 0v123h123v-123h-123zM1556 205v123h123v-123h-123zM1556 410v122h123v-122h-123zM1556 614v123h123v-123h-123z M1556 819v123h123v-123h-123zM1556 1024v123h123v-123h-123zM1556 1229v123h123v-123h-123zM1556 1434v122h123v-122h-123zM1761 205v123h123v-123h-123zM1761 410v122h123v-122h-123zM1761 614v123h123v-123h-123zM1761 819v123h123v-123h-123zM1761 1024v123h123v-123 h-123zM1761 1229v123h123v-123h-123z" />
<glyph unicode="p" d="M123 0v123h123v-123h-123zM123 205v123h123v-123h-123zM123 410v122h123v-122h-123zM123 614v123h123v-123h-123zM123 819v123h123v-123h-123zM123 1024v123h123v-123h-123zM123 1229v123h123v-123h-123zM123 1434v122h123v-122h-123zM328 0v123h123v-123h-123zM328 205 v123h123v-123h-123zM328 410v122h123v-122h-123zM328 614v123h123v-123h-123zM328 819v123h123v-123h-123zM328 1024v123h123v-123h-123zM328 1229v123h123v-123h-123zM328 1434v122h123v-122h-123zM532 0v123h123v-123h-123zM532 205v123h123v-123h-123zM532 410v122h123 v-122h-123zM532 614v123h123v-123h-123zM532 819v123h123v-123h-123zM532 1024v123h123v-123h-123zM532 1229v123h123v-123h-123zM532 1434v122h123v-122h-123zM737 614v123h123v-123h-123zM737 819v123h123v-123h-123zM737 1229v123h123v-123h-123zM737 1434v122h123v-122 h-123zM942 614v123h123v-123h-123zM942 819v123h123v-123h-123zM942 1229v123h123v-123h-123zM942 1434v122h123v-122h-123zM1147 614v123h123v-123h-123zM1147 819v123h123v-123h-123zM1147 1229v123h123v-123h-123zM1147 1434v122h123v-122h-123zM1352 614v123h123v-123 h-123zM1352 819v123h123v-123h-123zM1352 1024v123h123v-123h-123zM1352 1229v123h123v-123h-123zM1352 1434v122h123v-122h-123zM1556 614v123h123v-123h-123zM1556 819v123h123v-123h-123zM1556 1024v123h123v-123h-123zM1556 1229v123h123v-123h-123zM1556 1434v122h123 v-122h-123zM1761 819v123h123v-123h-123zM1761 1024v123h123v-123h-123zM1761 1229v123h123v-123h-123z" />
<glyph unicode="q" d="M123 205v123h123v-123h-123zM123 410v122h123v-122h-123zM123 614v123h123v-123h-123zM123 819v123h123v-123h-123zM123 1024v123h123v-123h-123zM123 1229v123h123v-123h-123zM328 0v123h123v-123h-123zM328 205v123h123v-123h-123zM328 410v122h123v-122h-123zM328 614 v123h123v-123h-123zM328 819v123h123v-123h-123zM328 1024v123h123v-123h-123zM328 1229v123h123v-123h-123zM328 1434v122h123v-122h-123zM532 0v123h123v-123h-123zM532 205v123h123v-123h-123zM532 410v122h123v-122h-123zM532 614v123h123v-123h-123zM532 819v123h123 v-123h-123zM532 1024v123h123v-123h-123zM532 1229v123h123v-123h-123zM532 1434v122h123v-122h-123zM737 0v123h123v-123h-123zM737 205v123h123v-123h-123zM737 1229v123h123v-123h-123zM737 1434v122h123v-122h-123zM942 0v123h123v-123h-123zM942 205v123h123v-123h-123 zM942 1229v123h123v-123h-123zM942 1434v122h123v-122h-123zM1147 0v123h123v-123h-123zM1147 205v123h123v-123h-123zM1147 1229v123h123v-123h-123zM1147 1434v122h123v-122h-123zM1352 0v123h123v-123h-123zM1352 -82h123v-123h-123v123zM1352 205v123h123v-123h-123z M1352 -287h123v-123h-123v123zM1352 410v122h123v-122h-123zM1352 614v123h123v-123h-123zM1352 819v123h123v-123h-123zM1352 1024v123h123v-123h-123zM1352 1229v123h123v-123h-123zM1352 1434v122h123v-122h-123zM1556 0v123h123v-123h-123zM1556 -82h123v-123h-123v123z M1556 205v123h123v-123h-123zM1556 -287h123v-123h-123v123zM1556 410v122h123v-122h-123zM1556 614v123h123v-123h-123zM1556 819v123h123v-123h-123zM1556 1024v123h123v-123h-123zM1556 1229v123h123v-123h-123zM1556 1434v122h123v-122h-123zM1761 0v123h123v-123h-123z M1761 -82h123v-123h-123v123zM1761 205v123h123v-123h-123zM1761 -287h123v-123h-123v123zM1761 410v122h123v-122h-123zM1761 614v123h123v-123h-123zM1761 819v123h123v-123h-123zM1761 1024v123h123v-123h-123zM1761 1229v123h123v-123h-123z" />
<glyph unicode="r" horiz-adv-x="1228" d="M123 0v123h123v-123h-123zM123 205v123h123v-123h-123zM123 410v122h123v-122h-123zM123 614v123h123v-123h-123zM123 819v123h123v-123h-123zM123 1024v123h123v-123h-123zM123 1229v123h123v-123h-123zM328 0v123h123v-123h-123zM328 205v123h123v-123h-123zM328 410 v122h123v-122h-123zM328 614v123h123v-123h-123zM328 819v123h123v-123h-123zM328 1024v123h123v-123h-123zM328 1229v123h123v-123h-123zM328 1434v122h123v-122h-123zM532 0v123h123v-123h-123zM532 205v123h123v-123h-123zM532 410v122h123v-122h-123zM532 614v123h123 v-123h-123zM532 819v123h123v-123h-123zM532 1024v123h123v-123h-123zM532 1229v123h123v-123h-123zM532 1434v122h123v-122h-123zM737 1229v123h123v-123h-123zM737 1434v122h123v-122h-123zM942 1229v123h123v-123h-123zM942 1434v122h123v-122h-123z" />
<glyph unicode="s" d="M123 205v123h123v-123h-123zM123 819v123h123v-123h-123zM123 1024v123h123v-123h-123zM123 1229v123h123v-123h-123zM328 0v123h123v-123h-123zM328 205v123h123v-123h-123zM328 614v123h123v-123h-123zM328 819v123h123v-123h-123zM328 1024v123h123v-123h-123z M328 1229v123h123v-123h-123zM328 1434v122h123v-122h-123zM532 0v123h123v-123h-123zM532 205v123h123v-123h-123zM532 614v123h123v-123h-123zM532 819v123h123v-123h-123zM532 1024v123h123v-123h-123zM532 1229v123h123v-123h-123zM532 1434v122h123v-122h-123zM737 0 v123h123v-123h-123zM737 205v123h123v-123h-123zM737 614v123h123v-123h-123zM737 819v123h123v-123h-123zM737 1229v123h123v-123h-123zM737 1434v122h123v-122h-123zM942 0v123h123v-123h-123zM942 205v123h123v-123h-123zM942 614v123h123v-123h-123zM942 819v123h123 v-123h-123zM942 1229v123h123v-123h-123zM942 1434v122h123v-122h-123zM1147 0v123h123v-123h-123zM1147 205v123h123v-123h-123zM1147 614v123h123v-123h-123zM1147 819v123h123v-123h-123zM1147 1229v123h123v-123h-123zM1147 1434v122h123v-122h-123zM1352 0v123h123 v-123h-123zM1352 205v123h123v-123h-123zM1352 410v122h123v-122h-123zM1352 614v123h123v-123h-123zM1352 819v123h123v-123h-123zM1352 1229v123h123v-123h-123zM1352 1434v122h123v-122h-123zM1556 0v123h123v-123h-123zM1556 205v123h123v-123h-123zM1556 410v122h123 v-122h-123zM1556 614v123h123v-123h-123zM1556 819v123h123v-123h-123zM1556 1229v123h123v-123h-123zM1556 1434v122h123v-122h-123zM1761 205v123h123v-123h-123zM1761 410v122h123v-122h-123zM1761 614v123h123v-123h-123zM1761 1229v123h123v-123h-123z" />
<glyph unicode="t" horiz-adv-x="1433" d="M123 1229v123h123v-123h-123zM123 1434v122h123v-122h-123zM328 205v123h123v-123h-123zM328 410v122h123v-122h-123zM328 614v123h123v-123h-123zM328 819v123h123v-123h-123zM328 1024v123h123v-123h-123zM328 1229v123h123v-123h-123zM328 1434v122h123v-122h-123z M328 1638v123h123v-123h-123zM328 1843v123h123v-123h-123zM532 0v123h123v-123h-123zM532 205v123h123v-123h-123zM532 410v122h123v-122h-123zM532 614v123h123v-123h-123zM532 819v123h123v-123h-123zM532 1024v123h123v-123h-123zM532 1229v123h123v-123h-123zM532 1434 v122h123v-122h-123zM532 1638v123h123v-123h-123zM532 1843v123h123v-123h-123zM737 0v123h123v-123h-123zM737 205v123h123v-123h-123zM737 410v122h123v-122h-123zM737 614v123h123v-123h-123zM737 819v123h123v-123h-123zM737 1024v123h123v-123h-123zM737 1229v123h123 v-123h-123zM737 1434v122h123v-122h-123zM737 1638v123h123v-123h-123zM737 1843v123h123v-123h-123zM942 0v123h123v-123h-123zM942 205v123h123v-123h-123zM942 1229v123h123v-123h-123zM942 1434v122h123v-122h-123zM1147 0v123h123v-123h-123zM1147 205v123h123v-123 h-123zM1147 1229v123h123v-123h-123zM1147 1434v122h123v-122h-123z" />
<glyph unicode="u" d="M123 205v123h123v-123h-123zM123 410v122h123v-122h-123zM123 614v123h123v-123h-123zM123 819v123h123v-123h-123zM123 1024v123h123v-123h-123zM123 1229v123h123v-123h-123zM123 1434v122h123v-122h-123zM328 0v123h123v-123h-123zM328 205v123h123v-123h-123z M328 410v122h123v-122h-123zM328 614v123h123v-123h-123zM328 819v123h123v-123h-123zM328 1024v123h123v-123h-123zM328 1229v123h123v-123h-123zM328 1434v122h123v-122h-123zM532 0v123h123v-123h-123zM532 205v123h123v-123h-123zM532 410v122h123v-122h-123zM532 614 v123h123v-123h-123zM532 819v123h123v-123h-123zM532 1024v123h123v-123h-123zM532 1229v123h123v-123h-123zM532 1434v122h123v-122h-123zM737 0v123h123v-123h-123zM737 205v123h123v-123h-123zM942 0v123h123v-123h-123zM942 205v123h123v-123h-123zM1147 0v123h123v-123 h-123zM1147 205v123h123v-123h-123zM1352 0v123h123v-123h-123zM1352 205v123h123v-123h-123zM1352 410v122h123v-122h-123zM1352 614v123h123v-123h-123zM1352 819v123h123v-123h-123zM1352 1024v123h123v-123h-123zM1352 1229v123h123v-123h-123zM1352 1434v122h123v-122 h-123zM1556 0v123h123v-123h-123zM1556 205v123h123v-123h-123zM1556 410v122h123v-122h-123zM1556 614v123h123v-123h-123zM1556 819v123h123v-123h-123zM1556 1024v123h123v-123h-123zM1556 1229v123h123v-123h-123zM1556 1434v122h123v-122h-123zM1761 205v123h123v-123 h-123zM1761 410v122h123v-122h-123zM1761 614v123h123v-123h-123zM1761 819v123h123v-123h-123zM1761 1024v123h123v-123h-123zM1761 1229v123h123v-123h-123zM1761 1434v122h123v-122h-123z" />
<glyph unicode="v" d="M123 614v123h123v-123h-123zM123 819v123h123v-123h-123zM123 1024v123h123v-123h-123zM123 1229v123h123v-123h-123zM123 1434v122h123v-122h-123zM328 410v122h123v-122h-123zM328 614v123h123v-123h-123zM328 819v123h123v-123h-123zM328 1024v123h123v-123h-123z M328 1229v123h123v-123h-123zM328 1434v122h123v-122h-123zM532 205v123h123v-123h-123zM532 410v122h123v-122h-123zM532 614v123h123v-123h-123zM532 819v123h123v-123h-123zM532 1024v123h123v-123h-123zM532 1229v123h123v-123h-123zM532 1434v122h123v-122h-123zM737 0 v123h123v-123h-123zM737 205v123h123v-123h-123zM737 410v122h123v-122h-123zM942 0v123h123v-123h-123zM942 205v123h123v-123h-123zM1147 0v123h123v-123h-123zM1147 205v123h123v-123h-123zM1147 410v122h123v-122h-123zM1352 205v123h123v-123h-123zM1352 410v122h123 v-122h-123zM1352 614v123h123v-123h-123zM1352 819v123h123v-123h-123zM1352 1024v123h123v-123h-123zM1352 1229v123h123v-123h-123zM1352 1434v122h123v-122h-123zM1556 410v122h123v-122h-123zM1556 614v123h123v-123h-123zM1556 819v123h123v-123h-123zM1556 1024v123 h123v-123h-123zM1556 1229v123h123v-123h-123zM1556 1434v122h123v-122h-123zM1761 614v123h123v-123h-123zM1761 819v123h123v-123h-123zM1761 1024v123h123v-123h-123zM1761 1229v123h123v-123h-123zM1761 1434v122h123v-122h-123z" />
<glyph unicode="w" horiz-adv-x="2457" d="M123 205v123h123v-123h-123zM123 410v122h123v-122h-123zM123 614v123h123v-123h-123zM123 819v123h123v-123h-123zM123 1024v123h123v-123h-123zM123 1229v123h123v-123h-123zM123 1434v122h123v-122h-123zM328 0v123h123v-123h-123zM328 205v123h123v-123h-123z M328 410v122h123v-122h-123zM328 614v123h123v-123h-123zM328 819v123h123v-123h-123zM328 1024v123h123v-123h-123zM328 1229v123h123v-123h-123zM328 1434v122h123v-122h-123zM532 0v123h123v-123h-123zM532 205v123h123v-123h-123zM532 410v122h123v-122h-123zM532 614 v123h123v-123h-123zM532 819v123h123v-123h-123zM532 1024v123h123v-123h-123zM532 1229v123h123v-123h-123zM532 1434v122h123v-122h-123zM737 0v123h123v-123h-123zM737 205v123h123v-123h-123zM942 0v123h123v-123h-123zM942 205v123h123v-123h-123zM942 410v122h123 v-122h-123zM942 614v123h123v-123h-123zM942 819v123h123v-123h-123zM942 1024v123h123v-123h-123zM942 1229v123h123v-123h-123zM942 1434v122h123v-122h-123zM1147 0v123h123v-123h-123zM1147 205v123h123v-123h-123zM1147 410v122h123v-122h-123zM1147 614v123h123v-123 h-123zM1147 819v123h123v-123h-123zM1147 1024v123h123v-123h-123zM1147 1229v123h123v-123h-123zM1147 1434v122h123v-122h-123zM1352 0v123h123v-123h-123zM1352 205v123h123v-123h-123zM1352 410v122h123v-122h-123zM1352 614v123h123v-123h-123zM1352 819v123h123v-123 h-123zM1352 1024v123h123v-123h-123zM1352 1229v123h123v-123h-123zM1352 1434v122h123v-122h-123zM1556 0v123h123v-123h-123zM1556 205v123h123v-123h-123zM1761 0v123h123v-123h-123zM1761 205v123h123v-123h-123zM1761 410v122h123v-122h-123zM1761 614v123h123v-123 h-123zM1761 819v123h123v-123h-123zM1761 1024v123h123v-123h-123zM1761 1229v123h123v-123h-123zM1761 1434v122h123v-122h-123zM1966 0v123h123v-123h-123zM1966 205v123h123v-123h-123zM1966 410v122h123v-122h-123zM1966 614v123h123v-123h-123zM1966 819v123h123v-123 h-123zM1966 1024v123h123v-123h-123zM1966 1229v123h123v-123h-123zM1966 1434v122h123v-122h-123zM2171 205v123h123v-123h-123zM2171 410v122h123v-122h-123zM2171 614v123h123v-123h-123zM2171 819v123h123v-123h-123zM2171 1024v123h123v-123h-123zM2171 1229v123h123 v-123h-123zM2171 1434v122h123v-122h-123z" />
<glyph unicode="x" horiz-adv-x="2252" d="M123 0v123h123v-123h-123zM123 1434v122h123v-122h-123zM328 0v123h123v-123h-123zM328 205v123h123v-123h-123zM328 1229v123h123v-123h-123zM328 1434v122h123v-122h-123zM532 0v123h123v-123h-123zM532 205v123h123v-123h-123zM532 410v122h123v-122h-123zM532 1024 v123h123v-123h-123zM532 1229v123h123v-123h-123zM532 1434v122h123v-122h-123zM737 205v123h123v-123h-123zM737 410v122h123v-122h-123zM737 614v123h123v-123h-123zM737 819v123h123v-123h-123zM737 1024v123h123v-123h-123zM737 1229v123h123v-123h-123zM942 410v122 h123v-122h-123zM942 614v123h123v-123h-123zM942 819v123h123v-123h-123zM942 1024v123h123v-123h-123zM1147 410v122h123v-122h-123zM1147 614v123h123v-123h-123zM1147 819v123h123v-123h-123zM1147 1024v123h123v-123h-123zM1352 205v123h123v-123h-123zM1352 410v122 h123v-122h-123zM1352 614v123h123v-123h-123zM1352 819v123h123v-123h-123zM1352 1024v123h123v-123h-123zM1352 1229v123h123v-123h-123zM1556 0v123h123v-123h-123zM1556 205v123h123v-123h-123zM1556 410v122h123v-122h-123zM1556 1024v123h123v-123h-123zM1556 1229v123 h123v-123h-123zM1556 1434v122h123v-122h-123zM1761 0v123h123v-123h-123zM1761 205v123h123v-123h-123zM1761 1229v123h123v-123h-123zM1761 1434v122h123v-122h-123zM1966 0v123h123v-123h-123zM1966 1434v122h123v-122h-123z" />
<glyph unicode="y" horiz-adv-x="2050" d="M123 819v123h123v-123h-123zM123 1024v123h123v-123h-123zM123 1229v123h123v-123h-123zM123 1434v122h123v-122h-123zM328 614v123h123v-123h-123zM328 819v123h123v-123h-123zM328 1024v123h123v-123h-123zM328 1229v123h123v-123h-123zM328 1434v122h123v-122h-123z M532 1024v123h123v-123h-123zM532 1229v123h123v-123h-123zM532 1434v122h123v-122h-123zM535 614v123h122v-123h-122zM535 819v123h122v-123h-122zM737 0v123h123v-123h-123zM737 205v123h123v-123h-123zM737 410v122h123v-122h-123zM737 614v123h123v-123h-123zM737 819 v123h123v-123h-123zM942 0v123h123v-123h-123zM942 205v123h123v-123h-123zM942 410v122h123v-122h-123zM942 614v123h123v-123h-123zM942 819v123h123v-123h-123zM1147 0v123h123v-123h-123zM1147 205v123h123v-123h-123zM1147 410v122h123v-122h-123zM1147 614v123h123 v-123h-123zM1147 819v123h123v-123h-123zM1352 614v123h123v-123h-123zM1352 819v123h123v-123h-123zM1352 1024v123h123v-123h-123zM1352 1229v123h123v-123h-123zM1352 1434v122h123v-122h-123zM1556 614v123h123v-123h-123zM1556 819v123h123v-123h-123zM1556 1024v123 h123v-123h-123zM1556 1229v123h123v-123h-123zM1556 1434v122h123v-122h-123zM1761 1024v123h123v-123h-123zM1761 1229v123h123v-123h-123zM1761 1434v122h123v-122h-123zM1763 819v123h123v-123h-123z" />
<glyph unicode="z" d="M123 0v123h123v-123h-123zM123 205v123h123v-123h-123zM123 410v122h123v-122h-123zM123 1229v123h123v-123h-123zM123 1434v122h123v-122h-123zM328 0v123h123v-123h-123zM328 205v123h123v-123h-123zM328 410v122h123v-122h-123zM328 1229v123h123v-123h-123zM328 1434 v122h123v-122h-123zM532 0v123h123v-123h-123zM532 205v123h123v-123h-123zM532 410v122h123v-122h-123zM532 614v123h123v-123h-123zM532 1229v123h123v-123h-123zM532 1434v122h123v-122h-123zM737 0v123h123v-123h-123zM737 205v123h123v-123h-123zM737 410v122h123v-122 h-123zM737 614v123h123v-123h-123zM737 1229v123h123v-123h-123zM737 1434v122h123v-122h-123zM942 0v123h123v-123h-123zM942 205v123h123v-123h-123zM942 614v123h123v-123h-123zM942 819v123h123v-123h-123zM942 1229v123h123v-123h-123zM942 1434v122h123v-122h-123z M1147 0v123h123v-123h-123zM1147 205v123h123v-123h-123zM1147 614v123h123v-123h-123zM1147 819v123h123v-123h-123zM1147 1229v123h123v-123h-123zM1147 1434v122h123v-122h-123zM1352 0v123h123v-123h-123zM1352 205v123h123v-123h-123zM1352 819v123h123v-123h-123z M1352 1024v123h123v-123h-123zM1352 1229v123h123v-123h-123zM1352 1434v122h123v-122h-123zM1556 0v123h123v-123h-123zM1556 205v123h123v-123h-123zM1556 819v123h123v-123h-123zM1556 1024v123h123v-123h-123zM1556 1229v123h123v-123h-123zM1556 1434v122h123v-122 h-123zM1761 0v123h123v-123h-123zM1761 205v123h123v-123h-123zM1761 1024v123h123v-123h-123zM1761 1229v123h123v-123h-123zM1761 1434v122h123v-122h-123z" />
<glyph unicode="{" horiz-adv-x="1024" d="M123 614v123h123v-123h-123zM123 819v123h123v-123h-123zM328 205v123h123v-123h-123zM328 410v122h123v-122h-123zM328 614v123h123v-123h-123zM328 819v123h123v-123h-123zM328 1024v123h123v-123h-123zM328 1229v123h123v-123h-123zM532 0v123h123v-123h-123z M532 1434v122h123v-122h-123zM737 0v123h123v-123h-123zM737 1434v122h123v-122h-123z" />
<glyph unicode="|" horiz-adv-x="409" d="M123 0v123h123v-123h-123zM123 205v123h123v-123h-123zM123 410v122h123v-122h-123zM123 614v123h123v-123h-123zM123 819v123h123v-123h-123zM123 1024v123h123v-123h-123zM123 1229v123h123v-123h-123zM123 1434v122h123v-122h-123z" />
<glyph unicode="}" horiz-adv-x="1024" d="M123 0v123h123v-123h-123zM123 1434v122h123v-122h-123zM328 0v123h123v-123h-123zM328 1434v122h123v-122h-123zM532 205v123h123v-123h-123zM532 410v122h123v-122h-123zM532 614v123h123v-123h-123zM532 819v123h123v-123h-123zM532 1024v123h123v-123h-123zM532 1229 v123h123v-123h-123zM737 614v123h123v-123h-123zM737 819v123h123v-123h-123z" />
<glyph unicode="~" horiz-adv-x="1720" />
<glyph unicode="&#xa1;" horiz-adv-x="819" d="M123 0v123h123v-123h-123zM123 205v123h123v-123h-123zM123 410v122h123v-122h-123zM123 614v123h123v-123h-123zM123 819v123h123v-123h-123zM123 1024v123h123v-123h-123zM123 1434v122h123v-122h-123zM328 0v123h123v-123h-123zM328 205v123h123v-123h-123zM328 410 v122h123v-122h-123zM328 614v123h123v-123h-123zM328 819v123h123v-123h-123zM328 1024v123h123v-123h-123zM328 1434v122h123v-122h-123zM532 0v123h123v-123h-123zM532 205v123h123v-123h-123zM532 410v122h123v-122h-123zM532 614v123h123v-123h-123zM532 819v123h123 v-123h-123zM532 1024v123h123v-123h-123zM532 1434v122h123v-122h-123z" />
<glyph unicode="&#xa2;" horiz-adv-x="1640" d="M123 410v122h123v-122h-123zM123 614v123h123v-123h-123zM123 819v123h123v-123h-123zM123 1024v123h123v-123h-123zM330 205v123h123v-123h-123zM330 1229v123h123v-123h-123zM535 205v123h122v-123h-122zM535 1229v123h122v-123h-122zM739 0v123h123v-123h-123z M739 205v123h123v-123h-123zM739 408v122h123v-122h-123zM739 614v123h123v-123h-123zM739 819v123h123v-123h-123zM739 1024v123h123v-123h-123zM739 1229v123h123v-123h-123zM739 1434v122h123v-122h-123zM944 205v123h123v-123h-123zM944 1229v123h123v-123h-123z M1149 205v123h123v-123h-123zM1149 1229v123h123v-123h-123zM1354 205v123h123v-123h-123zM1354 1229v123h123v-123h-123z" />
<glyph unicode="&#xa3;" horiz-adv-x="1228" d="M123 0v123h123v-123h-123zM123 819v123h123v-123h-123zM328 0v123h123v-123h-123zM328 205v123h123v-123h-123zM328 410v122h123v-122h-123zM328 614v123h123v-123h-123zM328 819v123h123v-123h-123zM328 1024v123h123v-123h-123zM328 1229v123h123v-123h-123zM532 0v123 h123v-123h-123zM532 819v123h123v-123h-123zM532 1434v122h123v-122h-123zM737 0v123h123v-123h-123zM737 819v123h123v-123h-123zM737 1434v122h123v-122h-123zM942 0v123h123v-123h-123zM942 819v123h123v-123h-123zM942 1434v122h123v-122h-123z" />
<glyph unicode="&#xa4;" horiz-adv-x="1638" d="M123 614v123h123v-123h-123zM123 1024v123h123v-123h-123zM328 205v123h123v-123h-123zM328 410v122h123v-122h-123zM328 614v123h123v-123h-123zM328 819v123h123v-123h-123zM328 1024v123h123v-123h-123zM328 1229v123h123v-123h-123zM532 0v123h123v-123h-123z M532 614v123h123v-123h-123zM532 1024v123h123v-123h-123zM532 1434v122h123v-122h-123zM737 0v123h123v-123h-123zM737 614v123h123v-123h-123zM737 1024v123h123v-123h-123zM737 1434v122h123v-122h-123zM942 0v123h123v-123h-123zM942 614v123h123v-123h-123zM942 1024 v123h123v-123h-123zM942 1434v122h123v-122h-123zM1147 0v123h123v-123h-123zM1147 1434v122h123v-122h-123zM1352 0v123h123v-123h-123zM1352 1434v122h123v-122h-123z" />
<glyph unicode="&#xa5;" horiz-adv-x="1720" />
<glyph unicode="&#xa6;" horiz-adv-x="491" />
<glyph unicode="&#xa7;" horiz-adv-x="1310" />
<glyph unicode="&#xa8;" horiz-adv-x="1638" d="M123 1843v123h123v-123h-123zM328 1843v123h123v-123h-123zM1147 1843v123h123v-123h-123zM1352 1843v123h123v-123h-123z" />
<glyph unicode="&#xa9;" d="M123 205v123h123v-123h-123zM123 410v122h123v-122h-123zM123 614v123h123v-123h-123zM123 819v123h123v-123h-123zM123 1024v123h123v-123h-123zM123 1229v123h123v-123h-123zM328 0v123h123v-123h-123zM328 1434v122h123v-122h-123zM532 0v123h123v-123h-123zM532 410 v122h123v-122h-123zM532 614v123h123v-123h-123zM532 819v123h123v-123h-123zM532 1024v123h123v-123h-123zM532 1434v122h123v-122h-123zM737 0v123h123v-123h-123zM737 410v122h123v-122h-123zM737 1022v123h123v-123h-123zM737 1434v122h123v-122h-123zM942 0v123h123 v-123h-123zM942 410v122h123v-122h-123zM942 1022v123h123v-123h-123zM942 1434v122h123v-122h-123zM1147 0v123h123v-123h-123zM1147 410v122h123v-122h-123zM1147 1022v123h123v-123h-123zM1147 1434v122h123v-122h-123zM1352 0v123h123v-123h-123zM1352 410v122h123v-122 h-123zM1352 1024v123h123v-123h-123zM1352 1434v122h123v-122h-123zM1556 0v123h123v-123h-123zM1556 1434v122h123v-122h-123zM1761 205v123h123v-123h-123zM1761 410v122h123v-122h-123zM1761 614v123h123v-123h-123zM1761 819v123h123v-123h-123zM1761 1024v123h123v-123 h-123zM1761 1229v123h123v-123h-123z" />
<glyph unicode="&#xaa;" horiz-adv-x="1515" />
<glyph unicode="&#xab;" horiz-adv-x="1228" d="M123 614v123h123v-123h-123zM328 410v122h123v-122h-123zM328 819v123h123v-123h-123zM532 205v123h123v-123h-123zM532 614v123h123v-123h-123zM532 1024v123h123v-123h-123zM737 410v122h123v-122h-123zM737 819v123h123v-123h-123zM942 205v123h123v-123h-123z M942 1024v123h123v-123h-123z" />
<glyph unicode="&#xac;" horiz-adv-x="1720" />
<glyph unicode="&#xad;" horiz-adv-x="1433" d="M123 819v123h123v-123h-123zM328 819v123h123v-123h-123zM532 819v123h123v-123h-123zM737 819v123h123v-123h-123zM942 819v123h123v-123h-123zM1147 819v123h123v-123h-123z" />
<glyph unicode="&#xae;" d="M123 205v123h123v-123h-123zM123 410v122h123v-122h-123zM123 614v123h123v-123h-123zM123 819v123h123v-123h-123zM123 1024v123h123v-123h-123zM123 1229v123h123v-123h-123zM328 0v123h123v-123h-123zM328 1434v122h123v-122h-123zM532 0v123h123v-123h-123zM532 1434 v122h123v-122h-123zM737 0v123h123v-123h-123zM737 410v122h123v-122h-123zM737 1022v123h123v-123h-123zM737 1434v122h123v-122h-123zM739 614v123h123v-123h-123zM739 614v123h123v-123h-123zM739 819v123h123v-123h-123zM739 819v123h123v-123h-123zM942 0v123h123v-123 h-123zM942 614v123h123v-123h-123zM942 614v123h123v-123h-123zM942 1022v123h123v-123h-123zM942 1434v122h123v-122h-123zM1147 0v123h123v-123h-123zM1147 410v122h123v-122h-123zM1147 819v123h123v-123h-123zM1147 1022v123h123v-123h-123zM1147 1434v122h123v-122 h-123zM1352 0v123h123v-123h-123zM1352 1434v122h123v-122h-123zM1556 0v123h123v-123h-123zM1556 1434v122h123v-122h-123zM1761 205v123h123v-123h-123zM1761 410v122h123v-122h-123zM1761 614v123h123v-123h-123zM1761 819v123h123v-123h-123zM1761 1024v123h123v-123 h-123zM1761 1229v123h123v-123h-123z" />
<glyph unicode="&#xaf;" horiz-adv-x="1433" d="M123 819v123h123v-123h-123zM328 819v123h123v-123h-123zM532 819v123h123v-123h-123zM737 819v123h123v-123h-123zM942 819v123h123v-123h-123zM1147 819v123h123v-123h-123z" />
<glyph unicode="&#xb0;" horiz-adv-x="1310" />
<glyph unicode="&#xb1;" horiz-adv-x="1228" d="M123 205v123h123v-123h-123zM123 1024v123h123v-123h-123zM328 205v123h123v-123h-123zM328 1024v123h123v-123h-123zM532 205v123h123v-123h-123zM532 614v123h123v-123h-123zM532 819v123h123v-123h-123zM532 1024v123h123v-123h-123zM532 1229v123h123v-123h-123z M532 1434v122h123v-122h-123zM737 205v123h123v-123h-123zM737 1024v123h123v-123h-123zM942 205v123h123v-123h-123zM942 1024v123h123v-123h-123z" />
<glyph unicode="&#xb2;" horiz-adv-x="1105" />
<glyph unicode="&#xb3;" horiz-adv-x="1105" />
<glyph unicode="&#xb4;" horiz-adv-x="409" d="M123 1024v123h123v-123h-123zM123 1229v123h123v-123h-123zM123 1434v122h123v-122h-123z" />
<glyph unicode="&#xb5;" horiz-adv-x="1720" />
<glyph unicode="&#xb6;" horiz-adv-x="1515" />
<glyph unicode="&#xb7;" horiz-adv-x="819" d="M123 614v123h123v-123h-123zM328 410v122h123v-122h-123zM328 614v123h123v-123h-123zM328 819v123h123v-123h-123zM532 614v123h123v-123h-123z" />
<glyph unicode="&#xb8;" horiz-adv-x="409" d="M123 0v123h123v-123h-123zM123 205v123h123v-123h-123zM123 410v122h123v-122h-123z" />
<glyph unicode="&#xb9;" horiz-adv-x="696" />
<glyph unicode="&#xba;" horiz-adv-x="1515" />
<glyph unicode="&#xbb;" horiz-adv-x="1228" d="M123 205v123h123v-123h-123zM123 1024v123h123v-123h-123zM328 410v122h123v-122h-123zM328 819v123h123v-123h-123zM532 205v123h123v-123h-123zM532 614v123h123v-123h-123zM532 1024v123h123v-123h-123zM737 410v122h123v-122h-123zM737 819v123h123v-123h-123z M942 614v123h123v-123h-123z" />
<glyph unicode="&#xbf;" d="M123 205v123h123v-123h-123zM123 410v122h123v-122h-123zM123 614v123h123v-123h-123zM328 0v123h123v-123h-123zM328 205v123h123v-123h-123zM328 410v122h123v-122h-123zM328 614v123h123v-123h-123zM532 0v123h123v-123h-123zM532 205v123h123v-123h-123zM532 410v122 h123v-122h-123zM532 614v123h123v-123h-123zM532 819v123h123v-123h-123zM737 0v123h123v-123h-123zM737 205v123h123v-123h-123zM737 821v123h123v-123h-123zM737 1026v123h123v-123h-123zM737 1434v122h123v-122h-123zM942 0v123h123v-123h-123zM942 205v123h123v-123 h-123zM942 819v123h123v-123h-123zM942 1026v123h123v-123h-123zM942 1434v122h123v-122h-123zM1147 0v123h123v-123h-123zM1147 205v123h123v-123h-123zM1147 1024v123h123v-123h-123zM1147 1434v122h123v-122h-123zM1352 0v123h123v-123h-123zM1352 205v123h123v-123h-123 zM1352 410v122h123v-122h-123zM1556 0v123h123v-123h-123zM1556 205v123h123v-123h-123zM1556 410v122h123v-122h-123zM1761 205v123h123v-123h-123zM1761 410v122h123v-122h-123z" />
<glyph unicode="&#xc0;" d="M123 0v123h123v-123h-123zM123 205v123h123v-123h-123zM123 410v122h123v-122h-123zM123 614v123h123v-123h-123zM123 819v123h123v-123h-123zM123 1024v123h123v-123h-123zM123 1229v123h123v-123h-123zM123 1229v123h123v-123h-123zM328 0v123h123v-123h-123zM328 205 v123h123v-123h-123zM328 410v122h123v-122h-123zM328 614v123h123v-123h-123zM328 819v123h123v-123h-123zM328 1024v123h123v-123h-123zM328 1229v123h123v-123h-123zM328 1229v123h123v-123h-123zM328 1434v122h123v-122h-123zM328 1434v122h123v-122h-123zM532 0v123h123 v-123h-123zM532 205v123h123v-123h-123zM532 410v122h123v-122h-123zM532 614v123h123v-123h-123zM532 819v123h123v-123h-123zM532 1024v123h123v-123h-123zM532 1229v123h123v-123h-123zM532 1229v123h123v-123h-123zM532 1434v122h123v-122h-123zM532 1434v122h123v-122 h-123zM737 614v123h123v-123h-123zM737 819v123h123v-123h-123zM737 1229v123h123v-123h-123zM737 1229v123h123v-123h-123zM737 1434v122h123v-122h-123zM737 1434v122h123v-122h-123zM739 2048v123h123h-123h123v-123h-123zM940 1843v123h123v-123h-123zM942 614v123h123 v-123h-123zM942 819v123h123v-123h-123zM942 1229v123h123v-123h-123zM942 1229v123h123v-123h-123zM942 1434v122h123v-122h-123zM942 1434v122h123v-122h-123zM946 2048v123v-123v123h123v-123h-123zM1147 614v123h123v-123h-123zM1147 819v123h123v-123h-123zM1147 1229 v123h123v-123h-123zM1147 1229v123h123v-123h-123zM1147 1434v122h123v-122h-123zM1147 1434v122h123v-122h-123zM1147 1843v123h123v-123h-123zM1352 0v123h123v-123h-123zM1352 205v123h123v-123h-123zM1352 410v122h123v-122h-123zM1352 614v123h123v-123h-123zM1352 819 v123h123v-123h-123zM1352 1024v123h123v-123h-123zM1352 1229v123h123v-123h-123zM1352 1229v123h123v-123h-123zM1352 1434v122h123v-122h-123zM1352 1434v122h123v-122h-123zM1556 0v123h123v-123h-123zM1556 205v123h123v-123h-123zM1556 410v122h123v-122h-123z M1556 614v123h123v-123h-123zM1556 819v123h123v-123h-123zM1556 1024v123h123v-123h-123zM1556 1229v123h123v-123h-123zM1556 1229v123h123v-123h-123zM1556 1434v122h123v-122h-123zM1556 1434v122h123v-122h-123zM1761 0v123h123v-123h-123zM1761 205v123h123v-123h-123 zM1761 410v122h123v-122h-123zM1761 614v123h123v-123h-123zM1761 819v123h123v-123h-123zM1761 1024v123h123v-123h-123zM1761 1229v123h123v-123h-123zM1761 1229v123h123v-123h-123z" />
<glyph unicode="&#xc1;" d="M123 0v123h123v-123h-123zM123 205v123h123v-123h-123zM123 410v122h123v-122h-123zM123 614v123h123v-123h-123zM123 819v123h123v-123h-123zM123 1024v123h123v-123h-123zM123 1229v123h123v-123h-123zM123 1229v123h123v-123h-123zM328 0v123h123v-123h-123zM328 205 v123h123v-123h-123zM328 410v122h123v-122h-123zM328 614v123h123v-123h-123zM328 819v123h123v-123h-123zM328 1024v123h123v-123h-123zM328 1229v123h123v-123h-123zM328 1229v123h123v-123h-123zM328 1434v122h123v-122h-123zM328 1434v122h123v-122h-123zM532 0v123h123 v-123h-123zM532 205v123h123v-123h-123zM532 410v122h123v-122h-123zM532 614v123h123v-123h-123zM532 819v123h123v-123h-123zM532 1024v123h123v-123h-123zM532 1229v123h123v-123h-123zM532 1229v123h123v-123h-123zM532 1434v122h123v-122h-123zM532 1434v122h123v-122 h-123zM737 614v123h123v-123h-123zM737 819v123h123v-123h-123zM737 1229v123h123v-123h-123zM737 1229v123h123v-123h-123zM737 1434v122h123v-122h-123zM737 1434v122h123v-122h-123zM737 1843v123h123v-123h-123zM940 2048v123h123h-123h123v-123h-123zM942 614v123h123 v-123h-123zM942 819v123h123v-123h-123zM942 1229v123h123v-123h-123zM942 1229v123h123v-123h-123zM942 1434v122h123v-122h-123zM942 1434v122h123v-122h-123zM944 1843v123v-123v123h123v-123h-123zM1147 614v123h123v-123h-123zM1147 819v123h123v-123h-123zM1147 1229 v123h123v-123h-123zM1147 1229v123h123v-123h-123zM1147 1434v122h123v-122h-123zM1147 1434v122h123v-122h-123zM1147 2048v123v-123v123h123v-123h-123zM1352 0v123h123v-123h-123zM1352 205v123h123v-123h-123zM1352 410v122h123v-122h-123zM1352 614v123h123v-123h-123z M1352 819v123h123v-123h-123zM1352 1024v123h123v-123h-123zM1352 1229v123h123v-123h-123zM1352 1229v123h123v-123h-123zM1352 1434v122h123v-122h-123zM1352 1434v122h123v-122h-123zM1556 0v123h123v-123h-123zM1556 205v123h123v-123h-123zM1556 410v122h123v-122h-123 zM1556 614v123h123v-123h-123zM1556 819v123h123v-123h-123zM1556 1024v123h123v-123h-123zM1556 1229v123h123v-123h-123zM1556 1229v123h123v-123h-123zM1556 1434v122h123v-122h-123zM1556 1434v122h123v-122h-123zM1761 0v123h123v-123h-123zM1761 205v123h123v-123 h-123zM1761 410v122h123v-122h-123zM1761 614v123h123v-123h-123zM1761 819v123h123v-123h-123zM1761 1024v123h123v-123h-123zM1761 1229v123h123v-123h-123zM1761 1229v123h123v-123h-123z" />
<glyph unicode="&#xc2;" d="M123 0v123h123v-123h-123zM123 205v123h123v-123h-123zM123 410v122h123v-122h-123zM123 614v123h123v-123h-123zM123 819v123h123v-123h-123zM123 1024v123h123v-123h-123zM123 1229v123h123v-123h-123zM123 1229v123h123v-123h-123zM328 0v123h123v-123h-123zM328 205 v123h123v-123h-123zM328 410v122h123v-122h-123zM328 614v123h123v-123h-123zM328 819v123h123v-123h-123zM328 1024v123h123v-123h-123zM328 1229v123h123v-123h-123zM328 1229v123h123v-123h-123zM328 1434v122h123v-122h-123zM328 1434v122h123v-122h-123zM532 0v123h123 v-123h-123zM532 205v123h123v-123h-123zM532 410v122h123v-122h-123zM532 614v123h123v-123h-123zM532 819v123h123v-123h-123zM532 1024v123h123v-123h-123zM532 1229v123h123v-123h-123zM532 1229v123h123v-123h-123zM532 1434v122h123v-122h-123zM532 1434v122h123v-122 h-123zM737 614v123h123v-123h-123zM737 819v123h123v-123h-123zM737 1229v123h123v-123h-123zM737 1229v123h123v-123h-123zM737 1434v122h123v-122h-123zM737 1434v122h123v-122h-123zM737 1843v123h123v-123h-123zM942 614v123h123v-123h-123zM942 819v123h123v-123h-123z M942 1229v123h123v-123h-123zM942 1229v123h123v-123h-123zM942 1434v122h123v-122h-123zM942 1434v122h123v-122h-123zM946 2048v123v-123v123h123v-123h-123zM1147 614v123h123v-123h-123zM1147 819v123h123v-123h-123zM1147 1229v123h123v-123h-123zM1147 1229v123h123 v-123h-123zM1147 1434v122h123v-122h-123zM1147 1434v122h123v-122h-123zM1147 1843v123h123v-123h-123zM1352 0v123h123v-123h-123zM1352 205v123h123v-123h-123zM1352 410v122h123v-122h-123zM1352 614v123h123v-123h-123zM1352 819v123h123v-123h-123zM1352 1024v123h123 v-123h-123zM1352 1229v123h123v-123h-123zM1352 1229v123h123v-123h-123zM1352 1434v122h123v-122h-123zM1352 1434v122h123v-122h-123zM1556 0v123h123v-123h-123zM1556 205v123h123v-123h-123zM1556 410v122h123v-122h-123zM1556 614v123h123v-123h-123zM1556 819v123h123 v-123h-123zM1556 1024v123h123v-123h-123zM1556 1229v123h123v-123h-123zM1556 1229v123h123v-123h-123zM1556 1434v122h123v-122h-123zM1556 1434v122h123v-122h-123zM1761 0v123h123v-123h-123zM1761 205v123h123v-123h-123zM1761 410v122h123v-122h-123zM1761 614v123 h123v-123h-123zM1761 819v123h123v-123h-123zM1761 1024v123h123v-123h-123zM1761 1229v123h123v-123h-123zM1761 1229v123h123v-123h-123z" />
<glyph unicode="&#xc3;" horiz-adv-x="1728" />
<glyph unicode="&#xc4;" d="M123 0v123h123v-123h-123zM123 205v123h123v-123h-123zM123 410v122h123v-122h-123zM123 614v123h123v-123h-123zM123 819v123h123v-123h-123zM123 1024v123h123v-123h-123zM123 1229v123h123v-123h-123zM328 0v123h123v-123h-123zM328 205v123h123v-123h-123zM328 410 v122h123v-122h-123zM328 614v123h123v-123h-123zM328 819v123h123v-123h-123zM328 1024v123h123v-123h-123zM328 1229v123h123v-123h-123zM328 1434v122h123v-122h-123zM328 1843v123h123v-123h-123zM532 0v123h123v-123h-123zM532 205v123h123v-123h-123zM532 410v122h123 v-122h-123zM532 614v123h123v-123h-123zM532 819v123h123v-123h-123zM532 1024v123h123v-123h-123zM532 1229v123h123v-123h-123zM532 1434v122h123v-122h-123zM532 1843v123h123v-123h-123zM737 614v123h123v-123h-123zM737 819v123h123v-123h-123zM737 1229v123h123v-123 h-123zM737 1434v122h123v-122h-123zM942 614v123h123v-123h-123zM942 819v123h123v-123h-123zM942 1229v123h123v-123h-123zM942 1434v122h123v-122h-123zM1147 614v123h123v-123h-123zM1147 819v123h123v-123h-123zM1147 1229v123h123v-123h-123zM1147 1434v122h123v-122 h-123zM1352 0v123h123v-123h-123zM1352 205v123h123v-123h-123zM1352 410v122h123v-122h-123zM1352 614v123h123v-123h-123zM1352 819v123h123v-123h-123zM1352 1024v123h123v-123h-123zM1352 1229v123h123v-123h-123zM1352 1434v122h123v-122h-123zM1352 1843v123h123v-123 h-123zM1556 0v123h123v-123h-123zM1556 205v123h123v-123h-123zM1556 410v122h123v-122h-123zM1556 614v123h123v-123h-123zM1556 819v123h123v-123h-123zM1556 1024v123h123v-123h-123zM1556 1229v123h123v-123h-123zM1556 1434v122h123v-122h-123zM1556 1843v123h123v-123 h-123zM1761 0v123h123v-123h-123zM1761 205v123h123v-123h-123zM1761 410v122h123v-122h-123zM1761 614v123h123v-123h-123zM1761 819v123h123v-123h-123zM1761 1024v123h123v-123h-123zM1761 1229v123h123v-123h-123z" />
<glyph unicode="&#xc5;" horiz-adv-x="1720" />
<glyph unicode="&#xc6;" horiz-adv-x="3276" d="M123 0v123h123v-123h-123zM123 207v119h123v-119h-123zM123 410v122h123v-122h-123zM123 614v125h123v-125h-123zM123 821v121h123v-121h-123zM123 1024v123h123v-123h-123zM123 1229v123h123v-123h-123zM328 0v123h121v-123h-121zM328 207v119h121v-119h-121zM328 410 v122h121v-122h-121zM328 614v125h121v-125h-121zM328 821v121h121v-121h-121zM328 1024v123h121v-123h-121zM328 1229v123h121v-123h-121zM328 1436v120h121v-120h-121zM532 0v123h123v-123h-123zM532 207v119h123v-119h-123zM532 410v122h123v-122h-123zM532 614v125h123 v-125h-123zM532 821v121h123v-121h-123zM532 1024v123h123v-123h-123zM532 1229v123h123v-123h-123zM532 1436v120h123v-120h-123zM737 614v125h123v-125h-123zM737 821v121h123v-121h-123zM737 1229v123h123v-123h-123zM737 1436v120h123v-120h-123zM944 614v125h121v-125 h-121zM944 821v121h121v-121h-121zM944 1229v123h121v-123h-121zM944 1436v120h121v-120h-121zM1147 614v125h123v-125h-123zM1147 821v121h123v-121h-123zM1147 1229v123h123v-123h-123zM1147 1436v120h123v-120h-123zM1352 207v119h123v-119h-123zM1352 410v122h123v-122 h-123zM1352 614v125h123v-125h-123zM1352 821v121h123v-121h-123zM1352 1024v123h123v-123h-123zM1352 1229v123h123v-123h-123zM1352 1436v120h123v-120h-123zM1559 0v123h122v-123h-122zM1559 207v119h122v-119h-122zM1559 410v122h122v-122h-122zM1559 614v125h122v-125 h-122zM1559 821v121h122v-121h-122zM1559 1024v123h122v-123h-122zM1559 1229v123h122v-123h-122zM1559 1436v120h122v-120h-122zM1761 0v123h123v-123h-123zM1761 207v119h123v-119h-123zM1761 410v122h123v-122h-123zM1761 614v125h123v-125h-123zM1761 821v121h123v-121 h-123zM1761 1024v123h123v-123h-123zM1761 1229v123h123v-123h-123zM1761 1436v120h123v-120h-123zM1966 0v123h123v-123h-123zM1966 205v123h123v-123h-123zM1966 614v123h123v-123h-123zM1966 819v123h123v-123h-123zM1966 1229v123h123v-123h-123zM1966 1434v122h123 v-122h-123zM2171 0v123h123v-123h-123zM2171 205v123h123v-123h-123zM2171 614v123h123v-123h-123zM2171 819v123h123v-123h-123zM2171 1229v123h123v-123h-123zM2171 1434v122h123v-122h-123zM2376 0v123h123v-123h-123zM2376 205v123h123v-123h-123zM2376 614v123h123 v-123h-123zM2376 819v123h123v-123h-123zM2376 1229v123h123v-123h-123zM2376 1434v122h123v-122h-123zM2580 0v123h123v-123h-123zM2580 205v123h123v-123h-123zM2580 614v123h123v-123h-123zM2580 819v123h123v-123h-123zM2580 1024v123h123v-123h-123zM2580 1229v123h123 v-123h-123zM2580 1434v122h123v-122h-123zM2785 0v123h123v-123h-123zM2785 205v123h123v-123h-123zM2785 614v123h123v-123h-123zM2785 819v123h123v-123h-123zM2785 1024v123h123v-123h-123zM2785 1229v123h123v-123h-123zM2785 1434v122h123v-122h-123zM2990 0v123h123 v-123h-123zM2990 205v123h123v-123h-123zM2990 614v123h123v-123h-123zM2990 819v123h123v-123h-123zM2990 1024v123h123v-123h-123zM2990 1229v123h123v-123h-123z" />
<glyph unicode="&#xc7;" d="M123 205v123h123v-123h-123zM123 410v122h123v-122h-123zM123 614v123h123v-123h-123zM123 819v123h123v-123h-123zM123 1024v123h123v-123h-123zM123 1229v123h123v-123h-123zM328 0v123h123v-123h-123zM328 205v123h123v-123h-123zM328 410v122h123v-122h-123zM328 614 v123h123v-123h-123zM328 819v123h123v-123h-123zM328 1024v123h123v-123h-123zM328 1229v123h123v-123h-123zM328 1434v122h123v-122h-123zM532 0v123h123v-123h-123zM532 205v123h123v-123h-123zM532 410v122h123v-122h-123zM532 614v123h123v-123h-123zM532 819v123h123 v-123h-123zM532 1024v123h123v-123h-123zM532 1229v123h123v-123h-123zM532 1434v122h123v-122h-123zM737 0v123h123v-123h-123zM737 205v123h123v-123h-123zM737 1229v123h123v-123h-123zM737 1434v122h123v-122h-123zM739 -82h123v-123h-123v123zM739 -287h123v-123h-123 v123zM942 0v123h123v-123h-123zM942 205v123h123v-123h-123zM942 1229v123h123v-123h-123zM942 1434v122h123v-122h-123zM944 -82h123v-123h-123v123zM944 -287h123v-123h-123v123zM1147 0v123h123v-123h-123zM1147 205v123h123v-123h-123zM1147 1229v123h123v-123h-123z M1147 1434v122h123v-122h-123zM1149 -82h123v-123h-123v123zM1149 -287h123v-123h-123v123zM1352 0v123h123v-123h-123zM1352 205v123h123v-123h-123zM1352 410v122h123v-122h-123zM1352 1024v123h123v-123h-123zM1352 1229v123h123v-123h-123zM1352 1434v122h123v-122h-123 zM1556 0v123h123v-123h-123zM1556 205v123h123v-123h-123zM1556 410v122h123v-122h-123zM1556 1024v123h123v-123h-123zM1556 1229v123h123v-123h-123zM1556 1434v122h123v-122h-123zM1761 205v123h123v-123h-123zM1761 410v122h123v-122h-123zM1761 1024v123h123v-123h-123 zM1761 1229v123h123v-123h-123z" />
<glyph unicode="&#xc8;" d="M123 205v123h123v-123h-123zM123 410v122h123v-122h-123zM123 614v123h123v-123h-123zM123 819v123h123v-123h-123zM123 1024v123h123v-123h-123zM123 1229v123h123v-123h-123zM328 0v123h123v-123h-123zM328 205v123h123v-123h-123zM328 410v122h123v-122h-123zM328 614 v123h123v-123h-123zM328 819v123h123v-123h-123zM328 1024v123h123v-123h-123zM328 1229v123h123v-123h-123zM328 1434v122h123v-122h-123zM532 0v123h123v-123h-123zM532 205v123h123v-123h-123zM532 410v122h123v-122h-123zM532 614v123h123v-123h-123zM532 819v123h123 v-123h-123zM532 1024v123h123v-123h-123zM532 1229v123h123v-123h-123zM532 1434v122h123v-122h-123zM737 0v123h123v-123h-123zM737 205v123h123v-123h-123zM737 614v123h123v-123h-123zM737 819v123h123v-123h-123zM737 1229v123h123v-123h-123zM737 1434v122h123v-122 h-123zM739 2048v123h123h-123h123v-123h-123zM940 1843v123h123v-123h-123zM942 0v123h123v-123h-123zM942 205v123h123v-123h-123zM942 614v123h123v-123h-123zM942 819v123h123v-123h-123zM942 1229v123h123v-123h-123zM942 1434v122h123v-122h-123zM946 2048v123v-123 v123h123v-123h-123zM1147 0v123h123v-123h-123zM1147 205v123h123v-123h-123zM1147 614v123h123v-123h-123zM1147 819v123h123v-123h-123zM1147 1229v123h123v-123h-123zM1147 1434v122h123v-122h-123zM1147 1843v123h123v-123h-123zM1352 0v123h123v-123h-123zM1352 205 v123h123v-123h-123zM1352 614v123h123v-123h-123zM1352 819v123h123v-123h-123zM1352 1024v123h123v-123h-123zM1352 1229v123h123v-123h-123zM1352 1434v122h123v-122h-123zM1556 0v123h123v-123h-123zM1556 205v123h123v-123h-123zM1556 614v123h123v-123h-123zM1556 819 v123h123v-123h-123zM1556 1024v123h123v-123h-123zM1556 1229v123h123v-123h-123zM1556 1434v122h123v-122h-123zM1761 0v123h123v-123h-123zM1761 205v123h123v-123h-123zM1761 614v123h123v-123h-123zM1761 819v123h123v-123h-123zM1761 1024v123h123v-123h-123z M1761 1229v123h123v-123h-123z" />
<glyph unicode="&#xc9;" d="M123 205v123h123v-123h-123zM123 410v122h123v-122h-123zM123 614v123h123v-123h-123zM123 819v123h123v-123h-123zM123 1024v123h123v-123h-123zM123 1229v123h123v-123h-123zM328 0v123h123v-123h-123zM328 205v123h123v-123h-123zM328 410v122h123v-122h-123zM328 614 v123h123v-123h-123zM328 819v123h123v-123h-123zM328 1024v123h123v-123h-123zM328 1229v123h123v-123h-123zM328 1434v122h123v-122h-123zM532 0v123h123v-123h-123zM532 205v123h123v-123h-123zM532 410v122h123v-122h-123zM532 614v123h123v-123h-123zM532 819v123h123 v-123h-123zM532 1024v123h123v-123h-123zM532 1229v123h123v-123h-123zM532 1434v122h123v-122h-123zM737 0v123h123v-123h-123zM737 205v123h123v-123h-123zM737 614v123h123v-123h-123zM737 819v123h123v-123h-123zM737 1229v123h123v-123h-123zM737 1434v122h123v-122 h-123zM737 1843v123h123v-123h-123zM940 2048v123h123h-123h123v-123h-123zM942 0v123h123v-123h-123zM942 205v123h123v-123h-123zM942 614v123h123v-123h-123zM942 819v123h123v-123h-123zM942 1229v123h123v-123h-123zM942 1434v122h123v-122h-123zM944 1843v123h123 v-123h-123zM1147 0v123h123v-123h-123zM1147 205v123h123v-123h-123zM1147 614v123h123v-123h-123zM1147 819v123h123v-123h-123zM1147 1229v123h123v-123h-123zM1147 1434v122h123v-122h-123zM1147 2048v123h123v-123h-123zM1352 0v123h123v-123h-123zM1352 205v123h123 v-123h-123zM1352 614v123h123v-123h-123zM1352 819v123h123v-123h-123zM1352 1024v123h123v-123h-123zM1352 1229v123h123v-123h-123zM1352 1434v122h123v-122h-123zM1556 0v123h123v-123h-123zM1556 205v123h123v-123h-123zM1556 614v123h123v-123h-123zM1556 819v123h123 v-123h-123zM1556 1024v123h123v-123h-123zM1556 1229v123h123v-123h-123zM1556 1434v122h123v-122h-123zM1761 0v123h123v-123h-123zM1761 205v123h123v-123h-123zM1761 614v123h123v-123h-123zM1761 819v123h123v-123h-123zM1761 1024v123h123v-123h-123zM1761 1229v123 h123v-123h-123z" />
<glyph unicode="&#xca;" d="M123 205v123h123v-123h-123zM123 410v122h123v-122h-123zM123 614v123h123v-123h-123zM123 819v123h123v-123h-123zM123 1024v123h123v-123h-123zM123 1229v123h123v-123h-123zM328 0v123h123v-123h-123zM328 205v123h123v-123h-123zM328 410v122h123v-122h-123zM328 614 v123h123v-123h-123zM328 819v123h123v-123h-123zM328 1024v123h123v-123h-123zM328 1229v123h123v-123h-123zM328 1434v122h123v-122h-123zM532 0v123h123v-123h-123zM532 205v123h123v-123h-123zM532 410v122h123v-122h-123zM532 614v123h123v-123h-123zM532 819v123h123 v-123h-123zM532 1024v123h123v-123h-123zM532 1229v123h123v-123h-123zM532 1434v122h123v-122h-123zM737 0v123h123v-123h-123zM737 205v123h123v-123h-123zM737 614v123h123v-123h-123zM737 819v123h123v-123h-123zM737 1229v123h123v-123h-123zM737 1434v122h123v-122 h-123zM737 1843v123h123v-123h-123zM942 0v123h123v-123h-123zM942 205v123h123v-123h-123zM942 614v123h123v-123h-123zM942 819v123h123v-123h-123zM942 1229v123h123v-123h-123zM942 1434v122h123v-122h-123zM946 2048v123v-123v123h123v-123h-123zM1147 0v123h123v-123 h-123zM1147 205v123h123v-123h-123zM1147 614v123h123v-123h-123zM1147 819v123h123v-123h-123zM1147 1229v123h123v-123h-123zM1147 1434v122h123v-122h-123zM1147 1843v123h123v-123h-123zM1352 0v123h123v-123h-123zM1352 205v123h123v-123h-123zM1352 614v123h123v-123 h-123zM1352 819v123h123v-123h-123zM1352 1024v123h123v-123h-123zM1352 1229v123h123v-123h-123zM1352 1434v122h123v-122h-123zM1556 0v123h123v-123h-123zM1556 205v123h123v-123h-123zM1556 614v123h123v-123h-123zM1556 819v123h123v-123h-123zM1556 1024v123h123v-123 h-123zM1556 1229v123h123v-123h-123zM1556 1434v122h123v-122h-123zM1761 0v123h123v-123h-123zM1761 205v123h123v-123h-123zM1761 614v123h123v-123h-123zM1761 819v123h123v-123h-123zM1761 1024v123h123v-123h-123zM1761 1229v123h123v-123h-123z" />
<glyph unicode="&#xcb;" d="M123 205v123h123v-123h-123zM123 410v122h123v-122h-123zM123 614v123h123v-123h-123zM123 819v123h123v-123h-123zM123 1024v123h123v-123h-123zM123 1229v123h123v-123h-123zM328 0v123h123v-123h-123zM328 205v123h123v-123h-123zM328 410v122h123v-122h-123zM328 614 v123h123v-123h-123zM328 819v123h123v-123h-123zM328 1024v123h123v-123h-123zM328 1229v123h123v-123h-123zM328 1434v122h123v-122h-123zM328 1843v123h123v-123h-123zM532 0v123h123v-123h-123zM532 205v123h123v-123h-123zM532 410v122h123v-122h-123zM532 614v123h123 v-123h-123zM532 819v123h123v-123h-123zM532 1024v123h123v-123h-123zM532 1229v123h123v-123h-123zM532 1434v122h123v-122h-123zM532 1843v123h123v-123h-123zM737 0v123h123v-123h-123zM737 205v123h123v-123h-123zM737 614v123h123v-123h-123zM737 819v123h123v-123 h-123zM737 1229v123h123v-123h-123zM737 1434v122h123v-122h-123zM942 0v123h123v-123h-123zM942 205v123h123v-123h-123zM942 614v123h123v-123h-123zM942 819v123h123v-123h-123zM942 1229v123h123v-123h-123zM942 1434v122h123v-122h-123zM1147 0v123h123v-123h-123z M1147 205v123h123v-123h-123zM1147 614v123h123v-123h-123zM1147 819v123h123v-123h-123zM1147 1229v123h123v-123h-123zM1147 1434v122h123v-122h-123zM1352 0v123h123v-123h-123zM1352 205v123h123v-123h-123zM1352 614v123h123v-123h-123zM1352 819v123h123v-123h-123z M1352 1024v123h123v-123h-123zM1352 1229v123h123v-123h-123zM1352 1434v122h123v-122h-123zM1352 1843v123h123v-123h-123zM1556 0v123h123v-123h-123zM1556 205v123h123v-123h-123zM1556 614v123h123v-123h-123zM1556 819v123h123v-123h-123zM1556 1024v123h123v-123h-123 zM1556 1229v123h123v-123h-123zM1556 1434v122h123v-122h-123zM1556 1843v123h123v-123h-123zM1761 0v123h123v-123h-123zM1761 205v123h123v-123h-123zM1761 614v123h123v-123h-123zM1761 819v123h123v-123h-123zM1761 1024v123h123v-123h-123zM1761 1229v123h123v-123 h-123z" />
<glyph unicode="&#xcc;" horiz-adv-x="696" />
<glyph unicode="&#xcd;" horiz-adv-x="696" />
<glyph unicode="&#xce;" horiz-adv-x="901" />
<glyph unicode="&#xcf;" horiz-adv-x="901" />
<glyph unicode="&#xd0;" horiz-adv-x="1925" />
<glyph unicode="&#xd1;" horiz-adv-x="1720" />
<glyph unicode="&#xd2;" horiz-adv-x="1720" />
<glyph unicode="&#xd3;" horiz-adv-x="1720" />
<glyph unicode="&#xd4;" horiz-adv-x="1720" />
<glyph unicode="&#xd5;" horiz-adv-x="1720" />
<glyph unicode="&#xd6;" d="M123 205v123h123v-123h-123zM123 410v122h123v-122h-123zM123 614v123h123v-123h-123zM123 819v123h123v-123h-123zM123 1024v123h123v-123h-123zM123 1229v123h123v-123h-123zM328 0v123h123v-123h-123zM328 205v123h123v-123h-123zM328 410v122h123v-122h-123zM328 614 v123h123v-123h-123zM328 819v123h123v-123h-123zM328 1024v123h123v-123h-123zM328 1229v123h123v-123h-123zM328 1434v122h123v-122h-123zM328 1843v123h123v-123h-123zM532 0v123h123v-123h-123zM532 205v123h123v-123h-123zM532 410v122h123v-122h-123zM532 614v123h123 v-123h-123zM532 819v123h123v-123h-123zM532 1024v123h123v-123h-123zM532 1229v123h123v-123h-123zM532 1434v122h123v-122h-123zM532 1843v123h123v-123h-123zM737 0v123h123v-123h-123zM737 205v123h123v-123h-123zM737 1229v123h123v-123h-123zM737 1434v122h123v-122 h-123zM942 0v123h123v-123h-123zM942 205v123h123v-123h-123zM942 1229v123h123v-123h-123zM942 1434v122h123v-122h-123zM1147 0v123h123v-123h-123zM1147 205v123h123v-123h-123zM1147 1229v123h123v-123h-123zM1147 1434v122h123v-122h-123zM1352 0v123h123v-123h-123z M1352 205v123h123v-123h-123zM1352 410v122h123v-122h-123zM1352 614v123h123v-123h-123zM1352 819v123h123v-123h-123zM1352 1024v123h123v-123h-123zM1352 1229v123h123v-123h-123zM1352 1434v122h123v-122h-123zM1352 1843v123h123v-123h-123zM1556 0v123h123v-123h-123z M1556 205v123h123v-123h-123zM1556 410v122h123v-122h-123zM1556 614v123h123v-123h-123zM1556 819v123h123v-123h-123zM1556 1024v123h123v-123h-123zM1556 1229v123h123v-123h-123zM1556 1434v122h123v-122h-123zM1556 1843v123h123v-123h-123zM1761 205v123h123v-123 h-123zM1761 410v122h123v-122h-123zM1761 614v123h123v-123h-123zM1761 819v123h123v-123h-123zM1761 1024v123h123v-123h-123zM1761 1229v123h123v-123h-123z" />
<glyph unicode="&#xd8;" horiz-adv-x="1845" d="M123 0v123h123v-123h-123zM328 205v123h123v-123h-123zM328 410v122h123v-122h-123zM328 614v123h123v-123h-123zM328 819v123h123v-123h-123zM328 1024v123h123v-123h-123zM328 1229v123h123v-123h-123zM532 205v123h123v-123h-123zM532 410v122h123v-122h-123z M532 1229v123h123v-123h-123zM737 205v123h123v-123h-123zM737 614v123h123v-123h-123zM737 1229v123h123v-123h-123zM942 205v123h123v-123h-123zM942 819v123h123v-123h-123zM942 1229v123h123v-123h-123zM1147 205v123h123v-123h-123zM1147 1024v123h123v-123h-123z M1147 1229v123h123v-123h-123zM1352 205v123h123v-123h-123zM1352 410v122h123v-122h-123zM1352 614v123h123v-123h-123zM1352 819v123h123v-123h-123zM1352 1024v123h123v-123h-123zM1352 1229v123h123v-123h-123zM1559 1434v122h122v-122h-122z" />
<glyph unicode="&#xd9;" horiz-adv-x="1720" />
<glyph unicode="&#xda;" horiz-adv-x="1720" />
<glyph unicode="&#xdb;" horiz-adv-x="1720" />
<glyph unicode="&#xdc;" d="M123 205v123h123v-123h-123zM123 410v122h123v-122h-123zM123 614v123h123v-123h-123zM123 819v123h123v-123h-123zM123 1024v123h123v-123h-123zM123 1229v123h123v-123h-123zM123 1434v122h123v-122h-123zM328 0v123h123v-123h-123zM328 205v123h123v-123h-123z M328 410v122h123v-122h-123zM328 614v123h123v-123h-123zM328 819v123h123v-123h-123zM328 1024v123h123v-123h-123zM328 1229v123h123v-123h-123zM328 1434v122h123v-122h-123zM328 1843v123h123v-123h-123zM532 0v123h123v-123h-123zM532 205v123h123v-123h-123zM532 410 v122h123v-122h-123zM532 614v123h123v-123h-123zM532 819v123h123v-123h-123zM532 1024v123h123v-123h-123zM532 1229v123h123v-123h-123zM532 1434v122h123v-122h-123zM532 1843v123h123v-123h-123zM737 0v123h123v-123h-123zM737 205v123h123v-123h-123zM942 0v123h123 v-123h-123zM942 205v123h123v-123h-123zM1147 0v123h123v-123h-123zM1147 205v123h123v-123h-123zM1352 0v123h123v-123h-123zM1352 205v123h123v-123h-123zM1352 410v122h123v-122h-123zM1352 614v123h123v-123h-123zM1352 819v123h123v-123h-123zM1352 1024v123h123v-123 h-123zM1352 1229v123h123v-123h-123zM1352 1434v122h123v-122h-123zM1352 1843v123h123v-123h-123zM1556 0v123h123v-123h-123zM1556 205v123h123v-123h-123zM1556 410v122h123v-122h-123zM1556 614v123h123v-123h-123zM1556 819v123h123v-123h-123zM1556 1024v123h123v-123 h-123zM1556 1229v123h123v-123h-123zM1556 1434v122h123v-122h-123zM1556 1843v123h123v-123h-123zM1761 205v123h123v-123h-123zM1761 410v122h123v-122h-123zM1761 614v123h123v-123h-123zM1761 819v123h123v-123h-123zM1761 1024v123h123v-123h-123zM1761 1229v123h123 v-123h-123zM1761 1434v122h123v-122h-123z" />
<glyph unicode="&#xdd;" horiz-adv-x="2129" />
<glyph unicode="&#xde;" horiz-adv-x="1720" />
<glyph unicode="&#xdf;" horiz-adv-x="3072" d="M123 0v123h123v-123h-123zM123 205v123h123v-123h-123zM123 819v123h123v-123h-123zM123 1024v123h123v-123h-123zM123 1229v123h123v-123h-123zM328 0v123h123v-123h-123zM328 205v123h123v-123h-123zM328 614v123h123v-123h-123zM328 819v123h123v-123h-123zM328 1024 v123h123v-123h-123zM328 1229v123h123v-123h-123zM328 1434v122h123v-122h-123zM532 0v123h123v-123h-123zM532 205v123h123v-123h-123zM532 614v123h123v-123h-123zM532 819v123h123v-123h-123zM532 1024v123h123v-123h-123zM532 1229v123h123v-123h-123zM532 1434v122h123 v-122h-123zM737 0v123h123v-123h-123zM737 205v123h123v-123h-123zM737 614v123h123v-123h-123zM737 819v123h123v-123h-123zM737 1229v123h123v-123h-123zM737 1434v122h123v-122h-123zM942 0v123h123v-123h-123zM942 205v123h123v-123h-123zM942 410v122h123v-122h-123z M942 614v123h123v-123h-123zM942 819v123h123v-123h-123zM942 1229v123h123v-123h-123zM942 1434v122h123v-122h-123zM1147 0v123h123v-123h-123zM1147 205v123h123v-123h-123zM1147 410v122h123v-122h-123zM1147 614v123h123v-123h-123zM1147 819v123h123v-123h-123z M1147 1229v123h123v-123h-123zM1147 1434v122h123v-122h-123zM1352 205v123h123v-123h-123zM1352 205v123h123v-123h-123zM1352 410v122h123v-122h-123zM1352 410v122h123v-122h-123zM1352 614v123h123v-123h-123zM1556 0v123h123v-123h-123zM1556 205v123h123v-123h-123z M1556 819v123h123v-123h-123zM1556 1024v123h123v-123h-123zM1556 1229v123h123v-123h-123zM1761 0v123h123v-123h-123zM1761 205v123h123v-123h-123zM1761 614v123h123v-123h-123zM1761 819v123h123v-123h-123zM1761 1024v123h123v-123h-123zM1761 1229v123h123v-123h-123z M1761 1434v122h123v-122h-123zM1964 1024v123h123v-123h-123zM1966 0v123h123v-123h-123zM1966 205v123h123v-123h-123zM1966 614v123h123v-123h-123zM1966 819v123h123v-123h-123zM1966 1229v123h123v-123h-123zM1966 1434v122h123v-122h-123zM2171 0v123h123v-123h-123z M2171 205v123h123v-123h-123zM2171 614v123h123v-123h-123zM2171 819v123h123v-123h-123zM2171 1229v123h123v-123h-123zM2171 1434v122h123v-122h-123zM2376 0v123h123v-123h-123zM2376 205v123h123v-123h-123zM2376 410v122h123v-122h-123zM2376 614v123h123v-123h-123z M2376 819v123h123v-123h-123zM2376 1229v123h123v-123h-123zM2376 1434v122h123v-122h-123zM2580 0v123h123v-123h-123zM2580 205v123h123v-123h-123zM2580 410v122h123v-122h-123zM2580 614v123h123v-123h-123zM2580 819v123h123v-123h-123zM2580 1229v123h123v-123h-123z M2580 1434v122h123v-122h-123zM2785 205v123h123v-123h-123zM2785 410v122h123v-122h-123zM2785 614v123h123v-123h-123zM2785 1229v123h123v-123h-123z" />
<glyph unicode="&#xe0;" d="M123 0v123h123v-123h-123zM123 205v123h123v-123h-123zM123 410v122h123v-122h-123zM123 614v123h123v-123h-123zM123 819v123h123v-123h-123zM123 1024v123h123v-123h-123zM123 1229v123h123v-123h-123zM123 1229v123h123v-123h-123zM328 0v123h123v-123h-123zM328 205 v123h123v-123h-123zM328 410v122h123v-122h-123zM328 614v123h123v-123h-123zM328 819v123h123v-123h-123zM328 1024v123h123v-123h-123zM328 1229v123h123v-123h-123zM328 1229v123h123v-123h-123zM328 1434v122h123v-122h-123zM328 1434v122h123v-122h-123zM532 0v123h123 v-123h-123zM532 205v123h123v-123h-123zM532 410v122h123v-122h-123zM532 614v123h123v-123h-123zM532 819v123h123v-123h-123zM532 1024v123h123v-123h-123zM532 1229v123h123v-123h-123zM532 1229v123h123v-123h-123zM532 1434v122h123v-122h-123zM532 1434v122h123v-122 h-123zM737 614v123h123v-123h-123zM737 819v123h123v-123h-123zM737 1229v123h123v-123h-123zM737 1229v123h123v-123h-123zM737 1434v122h123v-122h-123zM737 1434v122h123v-122h-123zM739 2048v123h123h-123h123v-123h-123zM940 1843v123h123v-123h-123zM942 614v123h123 v-123h-123zM942 819v123h123v-123h-123zM942 1229v123h123v-123h-123zM942 1229v123h123v-123h-123zM942 1434v122h123v-122h-123zM942 1434v122h123v-122h-123zM946 2048v123v-123v123h123v-123h-123zM1147 614v123h123v-123h-123zM1147 819v123h123v-123h-123zM1147 1229 v123h123v-123h-123zM1147 1229v123h123v-123h-123zM1147 1434v122h123v-122h-123zM1147 1434v122h123v-122h-123zM1147 1843v123h123v-123h-123zM1352 0v123h123v-123h-123zM1352 205v123h123v-123h-123zM1352 410v122h123v-122h-123zM1352 614v123h123v-123h-123zM1352 819 v123h123v-123h-123zM1352 1024v123h123v-123h-123zM1352 1229v123h123v-123h-123zM1352 1229v123h123v-123h-123zM1352 1434v122h123v-122h-123zM1352 1434v122h123v-122h-123zM1556 0v123h123v-123h-123zM1556 205v123h123v-123h-123zM1556 410v122h123v-122h-123z M1556 614v123h123v-123h-123zM1556 819v123h123v-123h-123zM1556 1024v123h123v-123h-123zM1556 1229v123h123v-123h-123zM1556 1229v123h123v-123h-123zM1556 1434v122h123v-122h-123zM1556 1434v122h123v-122h-123zM1761 0v123h123v-123h-123zM1761 205v123h123v-123h-123 zM1761 410v122h123v-122h-123zM1761 614v123h123v-123h-123zM1761 819v123h123v-123h-123zM1761 1024v123h123v-123h-123zM1761 1229v123h123v-123h-123zM1761 1229v123h123v-123h-123z" />
<glyph unicode="&#xe1;" d="M123 0v123h123v-123h-123zM123 205v123h123v-123h-123zM123 410v122h123v-122h-123zM123 614v123h123v-123h-123zM123 819v123h123v-123h-123zM123 1024v123h123v-123h-123zM123 1229v123h123v-123h-123zM123 1229v123h123v-123h-123zM328 0v123h123v-123h-123zM328 205 v123h123v-123h-123zM328 410v122h123v-122h-123zM328 614v123h123v-123h-123zM328 819v123h123v-123h-123zM328 1024v123h123v-123h-123zM328 1229v123h123v-123h-123zM328 1229v123h123v-123h-123zM328 1434v122h123v-122h-123zM328 1434v122h123v-122h-123zM532 0v123h123 v-123h-123zM532 205v123h123v-123h-123zM532 410v122h123v-122h-123zM532 614v123h123v-123h-123zM532 819v123h123v-123h-123zM532 1024v123h123v-123h-123zM532 1229v123h123v-123h-123zM532 1229v123h123v-123h-123zM532 1434v122h123v-122h-123zM532 1434v122h123v-122 h-123zM737 614v123h123v-123h-123zM737 819v123h123v-123h-123zM737 1229v123h123v-123h-123zM737 1229v123h123v-123h-123zM737 1434v122h123v-122h-123zM737 1434v122h123v-122h-123zM737 1843v123h123v-123h-123zM940 2048v123h123h-123h123v-123h-123zM942 614v123h123 v-123h-123zM942 819v123h123v-123h-123zM942 1229v123h123v-123h-123zM942 1229v123h123v-123h-123zM942 1434v122h123v-122h-123zM942 1434v122h123v-122h-123zM944 1843v123h123v-123h-123zM944 1966h123h-123zM1147 614v123h123v-123h-123zM1147 819v123h123v-123h-123z M1147 1229v123h123v-123h-123zM1147 1229v123h123v-123h-123zM1147 1434v122h123v-122h-123zM1147 1434v122h123v-122h-123zM1147 2048v123h123v-123h-123zM1147 2171h123h-123zM1352 0v123h123v-123h-123zM1352 205v123h123v-123h-123zM1352 410v122h123v-122h-123z M1352 614v123h123v-123h-123zM1352 819v123h123v-123h-123zM1352 1024v123h123v-123h-123zM1352 1229v123h123v-123h-123zM1352 1229v123h123v-123h-123zM1352 1434v122h123v-122h-123zM1352 1434v122h123v-122h-123zM1556 0v123h123v-123h-123zM1556 205v123h123v-123h-123 zM1556 410v122h123v-122h-123zM1556 614v123h123v-123h-123zM1556 819v123h123v-123h-123zM1556 1024v123h123v-123h-123zM1556 1229v123h123v-123h-123zM1556 1229v123h123v-123h-123zM1556 1434v122h123v-122h-123zM1556 1434v122h123v-122h-123zM1761 0v123h123v-123 h-123zM1761 205v123h123v-123h-123zM1761 410v122h123v-122h-123zM1761 614v123h123v-123h-123zM1761 819v123h123v-123h-123zM1761 1024v123h123v-123h-123zM1761 1229v123h123v-123h-123zM1761 1229v123h123v-123h-123z" />
<glyph unicode="&#xe2;" d="M123 0v123h123v-123h-123zM123 205v123h123v-123h-123zM123 410v122h123v-122h-123zM123 614v123h123v-123h-123zM123 819v123h123v-123h-123zM123 1024v123h123v-123h-123zM123 1229v123h123v-123h-123zM123 1229v123h123v-123h-123zM328 0v123h123v-123h-123zM328 205 v123h123v-123h-123zM328 410v122h123v-122h-123zM328 614v123h123v-123h-123zM328 819v123h123v-123h-123zM328 1024v123h123v-123h-123zM328 1229v123h123v-123h-123zM328 1229v123h123v-123h-123zM328 1434v122h123v-122h-123zM328 1434v122h123v-122h-123zM532 0v123h123 v-123h-123zM532 205v123h123v-123h-123zM532 410v122h123v-122h-123zM532 614v123h123v-123h-123zM532 819v123h123v-123h-123zM532 1024v123h123v-123h-123zM532 1229v123h123v-123h-123zM532 1229v123h123v-123h-123zM532 1434v122h123v-122h-123zM532 1434v122h123v-122 h-123zM737 614v123h123v-123h-123zM737 819v123h123v-123h-123zM737 1229v123h123v-123h-123zM737 1229v123h123v-123h-123zM737 1434v122h123v-122h-123zM737 1434v122h123v-122h-123zM737 1843v123h123v-123h-123zM942 614v123h123v-123h-123zM942 819v123h123v-123h-123z M942 1229v123h123v-123h-123zM942 1229v123h123v-123h-123zM942 1434v122h123v-122h-123zM942 1434v122h123v-122h-123zM946 2048v123v-123v123h123v-123h-123zM1147 614v123h123v-123h-123zM1147 819v123h123v-123h-123zM1147 1229v123h123v-123h-123zM1147 1229v123h123 v-123h-123zM1147 1434v122h123v-122h-123zM1147 1434v122h123v-122h-123zM1147 1843v123h123v-123h-123zM1352 0v123h123v-123h-123zM1352 205v123h123v-123h-123zM1352 410v122h123v-122h-123zM1352 614v123h123v-123h-123zM1352 819v123h123v-123h-123zM1352 1024v123h123 v-123h-123zM1352 1229v123h123v-123h-123zM1352 1229v123h123v-123h-123zM1352 1434v122h123v-122h-123zM1352 1434v122h123v-122h-123zM1556 0v123h123v-123h-123zM1556 205v123h123v-123h-123zM1556 410v122h123v-122h-123zM1556 614v123h123v-123h-123zM1556 819v123h123 v-123h-123zM1556 1024v123h123v-123h-123zM1556 1229v123h123v-123h-123zM1556 1229v123h123v-123h-123zM1556 1434v122h123v-122h-123zM1556 1434v122h123v-122h-123zM1761 0v123h123v-123h-123zM1761 205v123h123v-123h-123zM1761 410v122h123v-122h-123zM1761 614v123 h123v-123h-123zM1761 819v123h123v-123h-123zM1761 1024v123h123v-123h-123zM1761 1229v123h123v-123h-123zM1761 1229v123h123v-123h-123z" />
<glyph unicode="&#xe3;" horiz-adv-x="1515" />
<glyph unicode="&#xe4;" d="M123 0v123h123v-123h-123zM123 205v123h123v-123h-123zM123 410v122h123v-122h-123zM123 614v123h123v-123h-123zM123 819v123h123v-123h-123zM123 1024v123h123v-123h-123zM123 1229v123h123v-123h-123zM328 0v123h123v-123h-123zM328 205v123h123v-123h-123zM328 410 v122h123v-122h-123zM328 614v123h123v-123h-123zM328 819v123h123v-123h-123zM328 1024v123h123v-123h-123zM328 1229v123h123v-123h-123zM328 1434v122h123v-122h-123zM328 1843v123h123v-123h-123zM532 0v123h123v-123h-123zM532 205v123h123v-123h-123zM532 410v122h123 v-122h-123zM532 614v123h123v-123h-123zM532 819v123h123v-123h-123zM532 1024v123h123v-123h-123zM532 1229v123h123v-123h-123zM532 1434v122h123v-122h-123zM532 1843v123h123v-123h-123zM737 614v123h123v-123h-123zM737 819v123h123v-123h-123zM737 1229v123h123v-123 h-123zM737 1434v122h123v-122h-123zM942 614v123h123v-123h-123zM942 819v123h123v-123h-123zM942 1229v123h123v-123h-123zM942 1434v122h123v-122h-123zM1147 614v123h123v-123h-123zM1147 819v123h123v-123h-123zM1147 1229v123h123v-123h-123zM1147 1434v122h123v-122 h-123zM1352 0v123h123v-123h-123zM1352 205v123h123v-123h-123zM1352 410v122h123v-122h-123zM1352 614v123h123v-123h-123zM1352 819v123h123v-123h-123zM1352 1024v123h123v-123h-123zM1352 1229v123h123v-123h-123zM1352 1434v122h123v-122h-123zM1352 1843v123h123v-123 h-123zM1556 0v123h123v-123h-123zM1556 205v123h123v-123h-123zM1556 410v122h123v-122h-123zM1556 614v123h123v-123h-123zM1556 819v123h123v-123h-123zM1556 1024v123h123v-123h-123zM1556 1229v123h123v-123h-123zM1556 1434v122h123v-122h-123zM1556 1843v123h123v-123 h-123zM1761 0v123h123v-123h-123zM1761 205v123h123v-123h-123zM1761 410v122h123v-122h-123zM1761 614v123h123v-123h-123zM1761 819v123h123v-123h-123zM1761 1024v123h123v-123h-123zM1761 1229v123h123v-123h-123z" />
<glyph unicode="&#xe5;" horiz-adv-x="1515" />
<glyph unicode="&#xe6;" horiz-adv-x="3276" d="M123 0v123h123v-123h-123zM123 207v119h123v-119h-123zM123 410v122h123v-122h-123zM123 614v125h123v-125h-123zM123 821v121h123v-121h-123zM123 1024v123h123v-123h-123zM123 1229v123h123v-123h-123zM328 0v123h121v-123h-121zM328 207v119h121v-119h-121zM328 410 v122h121v-122h-121zM328 614v125h121v-125h-121zM328 821v121h121v-121h-121zM328 1024v123h121v-123h-121zM328 1229v123h121v-123h-121zM328 1436v120h121v-120h-121zM532 0v123h123v-123h-123zM532 207v119h123v-119h-123zM532 410v122h123v-122h-123zM532 614v125h123 v-125h-123zM532 821v121h123v-121h-123zM532 1024v123h123v-123h-123zM532 1229v123h123v-123h-123zM532 1436v120h123v-120h-123zM737 614v125h123v-125h-123zM737 821v121h123v-121h-123zM737 1229v123h123v-123h-123zM737 1436v120h123v-120h-123zM944 614v125h121v-125 h-121zM944 821v121h121v-121h-121zM944 1229v123h121v-123h-121zM944 1436v120h121v-120h-121zM1147 614v125h123v-125h-123zM1147 821v121h123v-121h-123zM1147 1229v123h123v-123h-123zM1147 1436v120h123v-120h-123zM1352 207v119h123v-119h-123zM1352 410v122h123v-122 h-123zM1352 614v125h123v-125h-123zM1352 821v121h123v-121h-123zM1352 1024v123h123v-123h-123zM1352 1229v123h123v-123h-123zM1352 1436v120h123v-120h-123zM1559 0v123h122v-123h-122zM1559 207v119h122v-119h-122zM1559 410v122h122v-122h-122zM1559 614v125h122v-125 h-122zM1559 821v121h122v-121h-122zM1559 1024v123h122v-123h-122zM1559 1229v123h122v-123h-122zM1559 1436v120h122v-120h-122zM1761 0v123h123v-123h-123zM1761 207v119h123v-119h-123zM1761 410v122h123v-122h-123zM1761 614v125h123v-125h-123zM1761 821v121h123v-121 h-123zM1761 1024v123h123v-123h-123zM1761 1229v123h123v-123h-123zM1761 1436v120h123v-120h-123zM1966 0v123h123v-123h-123zM1966 205v123h123v-123h-123zM1966 614v123h123v-123h-123zM1966 819v123h123v-123h-123zM1966 1229v123h123v-123h-123zM1966 1434v122h123 v-122h-123zM2171 0v123h123v-123h-123zM2171 205v123h123v-123h-123zM2171 614v123h123v-123h-123zM2171 819v123h123v-123h-123zM2171 1229v123h123v-123h-123zM2171 1434v122h123v-122h-123zM2376 0v123h123v-123h-123zM2376 205v123h123v-123h-123zM2376 614v123h123 v-123h-123zM2376 819v123h123v-123h-123zM2376 1229v123h123v-123h-123zM2376 1434v122h123v-122h-123zM2580 0v123h123v-123h-123zM2580 205v123h123v-123h-123zM2580 614v123h123v-123h-123zM2580 819v123h123v-123h-123zM2580 1024v123h123v-123h-123zM2580 1229v123h123 v-123h-123zM2580 1434v122h123v-122h-123zM2785 0v123h123v-123h-123zM2785 205v123h123v-123h-123zM2785 614v123h123v-123h-123zM2785 819v123h123v-123h-123zM2785 1024v123h123v-123h-123zM2785 1229v123h123v-123h-123zM2785 1434v122h123v-122h-123zM2990 0v123h123 v-123h-123zM2990 205v123h123v-123h-123zM2990 614v123h123v-123h-123zM2990 819v123h123v-123h-123zM2990 1024v123h123v-123h-123zM2990 1229v123h123v-123h-123z" />
<glyph unicode="&#xe7;" d="M123 205v123h123v-123h-123zM123 410v122h123v-122h-123zM123 614v123h123v-123h-123zM123 819v123h123v-123h-123zM123 1024v123h123v-123h-123zM123 1229v123h123v-123h-123zM328 0v123h123v-123h-123zM328 205v123h123v-123h-123zM328 410v122h123v-122h-123zM328 614 v123h123v-123h-123zM328 819v123h123v-123h-123zM328 1024v123h123v-123h-123zM328 1229v123h123v-123h-123zM328 1434v122h123v-122h-123zM532 0v123h123v-123h-123zM532 205v123h123v-123h-123zM532 410v122h123v-122h-123zM532 614v123h123v-123h-123zM532 819v123h123 v-123h-123zM532 1024v123h123v-123h-123zM532 1229v123h123v-123h-123zM532 1434v122h123v-122h-123zM737 0v123h123v-123h-123zM737 205v123h123v-123h-123zM737 1229v123h123v-123h-123zM737 1434v122h123v-122h-123zM739 -82h123v-123h-123v123zM739 -287h123v-123h-123 v123zM942 0v123h123v-123h-123zM942 205v123h123v-123h-123zM942 1229v123h123v-123h-123zM942 1434v122h123v-122h-123zM944 -82h123v-123h-123v123zM944 -287h123v-123h-123v123zM1147 0v123h123v-123h-123zM1147 205v123h123v-123h-123zM1147 1229v123h123v-123h-123z M1147 1434v122h123v-122h-123zM1149 -82h123v-123h-123v123zM1149 -287h123v-123h-123v123zM1352 0v123h123v-123h-123zM1352 205v123h123v-123h-123zM1352 410v122h123v-122h-123zM1352 1024v123h123v-123h-123zM1352 1229v123h123v-123h-123zM1352 1434v122h123v-122h-123 zM1556 0v123h123v-123h-123zM1556 205v123h123v-123h-123zM1556 410v122h123v-122h-123zM1556 1024v123h123v-123h-123zM1556 1229v123h123v-123h-123zM1556 1434v122h123v-122h-123zM1761 205v123h123v-123h-123zM1761 410v122h123v-122h-123zM1761 1024v123h123v-123h-123 zM1761 1229v123h123v-123h-123z" />
<glyph unicode="&#xe8;" d="M123 205v123h123v-123h-123zM123 410v122h123v-122h-123zM123 614v123h123v-123h-123zM123 819v123h123v-123h-123zM123 1024v123h123v-123h-123zM123 1229v123h123v-123h-123zM328 0v123h123v-123h-123zM328 205v123h123v-123h-123zM328 410v122h123v-122h-123zM328 614 v123h123v-123h-123zM328 819v123h123v-123h-123zM328 1024v123h123v-123h-123zM328 1229v123h123v-123h-123zM328 1434v122h123v-122h-123zM532 0v123h123v-123h-123zM532 205v123h123v-123h-123zM532 410v122h123v-122h-123zM532 614v123h123v-123h-123zM532 819v123h123 v-123h-123zM532 1024v123h123v-123h-123zM532 1229v123h123v-123h-123zM532 1434v122h123v-122h-123zM737 0v123h123v-123h-123zM737 205v123h123v-123h-123zM737 614v123h123v-123h-123zM737 819v123h123v-123h-123zM737 1229v123h123v-123h-123zM737 1434v122h123v-122 h-123zM739 2048v123h123h-123h123v-123h-123zM940 1843v123h123v-123h-123zM942 0v123h123v-123h-123zM942 205v123h123v-123h-123zM942 614v123h123v-123h-123zM942 819v123h123v-123h-123zM942 1229v123h123v-123h-123zM942 1434v122h123v-122h-123zM946 2048v123v-123 v123h123v-123h-123zM1147 0v123h123v-123h-123zM1147 205v123h123v-123h-123zM1147 614v123h123v-123h-123zM1147 819v123h123v-123h-123zM1147 1229v123h123v-123h-123zM1147 1434v122h123v-122h-123zM1147 1843v123h123v-123h-123zM1352 0v123h123v-123h-123zM1352 205 v123h123v-123h-123zM1352 614v123h123v-123h-123zM1352 819v123h123v-123h-123zM1352 1024v123h123v-123h-123zM1352 1229v123h123v-123h-123zM1352 1434v122h123v-122h-123zM1556 0v123h123v-123h-123zM1556 205v123h123v-123h-123zM1556 614v123h123v-123h-123zM1556 819 v123h123v-123h-123zM1556 1024v123h123v-123h-123zM1556 1229v123h123v-123h-123zM1556 1434v122h123v-122h-123zM1761 0v123h123v-123h-123zM1761 205v123h123v-123h-123zM1761 614v123h123v-123h-123zM1761 819v123h123v-123h-123zM1761 1024v123h123v-123h-123z M1761 1229v123h123v-123h-123z" />
<glyph unicode="&#xe9;" d="M123 205v123h123v-123h-123zM123 410v122h123v-122h-123zM123 614v123h123v-123h-123zM123 819v123h123v-123h-123zM123 1024v123h123v-123h-123zM123 1229v123h123v-123h-123zM328 0v123h123v-123h-123zM328 205v123h123v-123h-123zM328 410v122h123v-122h-123zM328 614 v123h123v-123h-123zM328 819v123h123v-123h-123zM328 1024v123h123v-123h-123zM328 1229v123h123v-123h-123zM328 1434v122h123v-122h-123zM532 0v123h123v-123h-123zM532 205v123h123v-123h-123zM532 410v122h123v-122h-123zM532 614v123h123v-123h-123zM532 819v123h123 v-123h-123zM532 1024v123h123v-123h-123zM532 1229v123h123v-123h-123zM532 1434v122h123v-122h-123zM737 0v123h123v-123h-123zM737 205v123h123v-123h-123zM737 614v123h123v-123h-123zM737 819v123h123v-123h-123zM737 1229v123h123v-123h-123zM737 1434v122h123v-122 h-123zM737 1843v123h123v-123h-123zM940 2048v123h123h-123h123v-123h-123zM942 0v123h123v-123h-123zM942 205v123h123v-123h-123zM942 614v123h123v-123h-123zM942 819v123h123v-123h-123zM942 1229v123h123v-123h-123zM942 1434v122h123v-122h-123zM944 1843v123h123 v-123h-123zM1147 0v123h123v-123h-123zM1147 205v123h123v-123h-123zM1147 614v123h123v-123h-123zM1147 819v123h123v-123h-123zM1147 1229v123h123v-123h-123zM1147 1434v122h123v-122h-123zM1147 2048v123h123v-123h-123zM1352 0v123h123v-123h-123zM1352 205v123h123 v-123h-123zM1352 614v123h123v-123h-123zM1352 819v123h123v-123h-123zM1352 1024v123h123v-123h-123zM1352 1229v123h123v-123h-123zM1352 1434v122h123v-122h-123zM1556 0v123h123v-123h-123zM1556 205v123h123v-123h-123zM1556 614v123h123v-123h-123zM1556 819v123h123 v-123h-123zM1556 1024v123h123v-123h-123zM1556 1229v123h123v-123h-123zM1556 1434v122h123v-122h-123zM1761 0v123h123v-123h-123zM1761 205v123h123v-123h-123zM1761 614v123h123v-123h-123zM1761 819v123h123v-123h-123zM1761 1024v123h123v-123h-123zM1761 1229v123 h123v-123h-123z" />
<glyph unicode="&#xea;" d="M123 205v123h123v-123h-123zM123 410v122h123v-122h-123zM123 614v123h123v-123h-123zM123 819v123h123v-123h-123zM123 1024v123h123v-123h-123zM123 1229v123h123v-123h-123zM328 0v123h123v-123h-123zM328 205v123h123v-123h-123zM328 410v122h123v-122h-123zM328 614 v123h123v-123h-123zM328 819v123h123v-123h-123zM328 1024v123h123v-123h-123zM328 1229v123h123v-123h-123zM328 1434v122h123v-122h-123zM532 0v123h123v-123h-123zM532 205v123h123v-123h-123zM532 410v122h123v-122h-123zM532 614v123h123v-123h-123zM532 819v123h123 v-123h-123zM532 1024v123h123v-123h-123zM532 1229v123h123v-123h-123zM532 1434v122h123v-122h-123zM737 0v123h123v-123h-123zM737 205v123h123v-123h-123zM737 614v123h123v-123h-123zM737 819v123h123v-123h-123zM737 1229v123h123v-123h-123zM737 1434v122h123v-122 h-123zM737 1843v123h123v-123h-123zM942 0v123h123v-123h-123zM942 205v123h123v-123h-123zM942 614v123h123v-123h-123zM942 819v123h123v-123h-123zM942 1229v123h123v-123h-123zM942 1434v122h123v-122h-123zM946 2048v123v-123v123h123v-123h-123zM1147 0v123h123v-123 h-123zM1147 205v123h123v-123h-123zM1147 614v123h123v-123h-123zM1147 819v123h123v-123h-123zM1147 1229v123h123v-123h-123zM1147 1434v122h123v-122h-123zM1147 1843v123h123v-123h-123zM1352 0v123h123v-123h-123zM1352 205v123h123v-123h-123zM1352 614v123h123v-123 h-123zM1352 819v123h123v-123h-123zM1352 1024v123h123v-123h-123zM1352 1229v123h123v-123h-123zM1352 1434v122h123v-122h-123zM1556 0v123h123v-123h-123zM1556 205v123h123v-123h-123zM1556 614v123h123v-123h-123zM1556 819v123h123v-123h-123zM1556 1024v123h123v-123 h-123zM1556 1229v123h123v-123h-123zM1556 1434v122h123v-122h-123zM1761 0v123h123v-123h-123zM1761 205v123h123v-123h-123zM1761 614v123h123v-123h-123zM1761 819v123h123v-123h-123zM1761 1024v123h123v-123h-123zM1761 1229v123h123v-123h-123z" />
<glyph unicode="&#xeb;" d="M123 205v123h123v-123h-123zM123 410v122h123v-122h-123zM123 614v123h123v-123h-123zM123 819v123h123v-123h-123zM123 1024v123h123v-123h-123zM123 1229v123h123v-123h-123zM328 0v123h123v-123h-123zM328 205v123h123v-123h-123zM328 410v122h123v-122h-123zM328 614 v123h123v-123h-123zM328 819v123h123v-123h-123zM328 1024v123h123v-123h-123zM328 1229v123h123v-123h-123zM328 1434v122h123v-122h-123zM328 1843v123h123v-123h-123zM532 0v123h123v-123h-123zM532 205v123h123v-123h-123zM532 410v122h123v-122h-123zM532 614v123h123 v-123h-123zM532 819v123h123v-123h-123zM532 1024v123h123v-123h-123zM532 1229v123h123v-123h-123zM532 1434v122h123v-122h-123zM532 1843v123h123v-123h-123zM737 0v123h123v-123h-123zM737 205v123h123v-123h-123zM737 614v123h123v-123h-123zM737 819v123h123v-123 h-123zM737 1229v123h123v-123h-123zM737 1434v122h123v-122h-123zM942 0v123h123v-123h-123zM942 205v123h123v-123h-123zM942 614v123h123v-123h-123zM942 819v123h123v-123h-123zM942 1229v123h123v-123h-123zM942 1434v122h123v-122h-123zM1147 0v123h123v-123h-123z M1147 205v123h123v-123h-123zM1147 614v123h123v-123h-123zM1147 819v123h123v-123h-123zM1147 1229v123h123v-123h-123zM1147 1434v122h123v-122h-123zM1352 0v123h123v-123h-123zM1352 205v123h123v-123h-123zM1352 614v123h123v-123h-123zM1352 819v123h123v-123h-123z M1352 1024v123h123v-123h-123zM1352 1229v123h123v-123h-123zM1352 1434v122h123v-122h-123zM1352 1843v123h123v-123h-123zM1556 0v123h123v-123h-123zM1556 205v123h123v-123h-123zM1556 614v123h123v-123h-123zM1556 819v123h123v-123h-123zM1556 1024v123h123v-123h-123 zM1556 1229v123h123v-123h-123zM1556 1434v122h123v-122h-123zM1556 1843v123h123v-123h-123zM1761 0v123h123v-123h-123zM1761 205v123h123v-123h-123zM1761 614v123h123v-123h-123zM1761 819v123h123v-123h-123zM1761 1024v123h123v-123h-123zM1761 1229v123h123v-123 h-123z" />
<glyph unicode="&#xec;" horiz-adv-x="696" />
<glyph unicode="&#xed;" horiz-adv-x="696" />
<glyph unicode="&#xee;" horiz-adv-x="901" />
<glyph unicode="&#xef;" horiz-adv-x="901" />
<glyph unicode="&#xf0;" horiz-adv-x="1515" />
<glyph unicode="&#xf1;" horiz-adv-x="1515" />
<glyph unicode="&#xf2;" horiz-adv-x="1515" />
<glyph unicode="&#xf3;" horiz-adv-x="1515" />
<glyph unicode="&#xf4;" horiz-adv-x="1515" />
<glyph unicode="&#xf5;" horiz-adv-x="1515" />
<glyph unicode="&#xf6;" d="M123 205v123h123v-123h-123zM123 410v122h123v-122h-123zM123 614v123h123v-123h-123zM123 819v123h123v-123h-123zM123 1024v123h123v-123h-123zM123 1229v123h123v-123h-123zM328 0v123h123v-123h-123zM328 205v123h123v-123h-123zM328 410v122h123v-122h-123zM328 614 v123h123v-123h-123zM328 819v123h123v-123h-123zM328 1024v123h123v-123h-123zM328 1229v123h123v-123h-123zM328 1434v122h123v-122h-123zM328 1843v123h123v-123h-123zM532 0v123h123v-123h-123zM532 205v123h123v-123h-123zM532 410v122h123v-122h-123zM532 614v123h123 v-123h-123zM532 819v123h123v-123h-123zM532 1024v123h123v-123h-123zM532 1229v123h123v-123h-123zM532 1434v122h123v-122h-123zM532 1843v123h123v-123h-123zM737 0v123h123v-123h-123zM737 205v123h123v-123h-123zM737 1229v123h123v-123h-123zM737 1434v122h123v-122 h-123zM942 0v123h123v-123h-123zM942 205v123h123v-123h-123zM942 1229v123h123v-123h-123zM942 1434v122h123v-122h-123zM1147 0v123h123v-123h-123zM1147 205v123h123v-123h-123zM1147 1229v123h123v-123h-123zM1147 1434v122h123v-122h-123zM1352 0v123h123v-123h-123z M1352 205v123h123v-123h-123zM1352 410v122h123v-122h-123zM1352 614v123h123v-123h-123zM1352 819v123h123v-123h-123zM1352 1024v123h123v-123h-123zM1352 1229v123h123v-123h-123zM1352 1434v122h123v-122h-123zM1352 1843v123h123v-123h-123zM1556 0v123h123v-123h-123z M1556 205v123h123v-123h-123zM1556 410v122h123v-122h-123zM1556 614v123h123v-123h-123zM1556 819v123h123v-123h-123zM1556 1024v123h123v-123h-123zM1556 1229v123h123v-123h-123zM1556 1434v122h123v-122h-123zM1556 1843v123h123v-123h-123zM1761 205v123h123v-123 h-123zM1761 410v122h123v-122h-123zM1761 614v123h123v-123h-123zM1761 819v123h123v-123h-123zM1761 1024v123h123v-123h-123zM1761 1229v123h123v-123h-123z" />
<glyph unicode="&#xf7;" horiz-adv-x="1228" d="M123 821v123h123v-123h-123zM328 821v123h123v-123h-123zM532 412v123h123v-123h-123zM532 821v123h123v-123h-123zM532 1231v123h123v-123h-123zM737 821v123h123v-123h-123zM942 821v123h123v-123h-123z" />
<glyph unicode="&#xf8;" horiz-adv-x="1845" d="M123 0v123h123v-123h-123zM328 205v123h123v-123h-123zM328 410v122h123v-122h-123zM328 614v123h123v-123h-123zM328 819v123h123v-123h-123zM328 1024v123h123v-123h-123zM328 1229v123h123v-123h-123zM532 205v123h123v-123h-123zM532 410v122h123v-122h-123z M532 1229v123h123v-123h-123zM737 205v123h123v-123h-123zM737 614v123h123v-123h-123zM737 1229v123h123v-123h-123zM942 205v123h123v-123h-123zM942 819v123h123v-123h-123zM942 1229v123h123v-123h-123zM1147 205v123h123v-123h-123zM1147 1024v123h123v-123h-123z M1147 1229v123h123v-123h-123zM1352 205v123h123v-123h-123zM1352 410v122h123v-122h-123zM1352 614v123h123v-123h-123zM1352 819v123h123v-123h-123zM1352 1024v123h123v-123h-123zM1352 1229v123h123v-123h-123zM1559 1434v122h122v-122h-122z" />
<glyph unicode="&#xf9;" horiz-adv-x="1515" />
<glyph unicode="&#xfa;" horiz-adv-x="1515" />
<glyph unicode="&#xfb;" horiz-adv-x="1515" />
<glyph unicode="&#xfc;" d="M123 205v123h123v-123h-123zM123 410v122h123v-122h-123zM123 614v123h123v-123h-123zM123 819v123h123v-123h-123zM123 1024v123h123v-123h-123zM123 1229v123h123v-123h-123zM123 1434v122h123v-122h-123zM328 0v123h123v-123h-123zM328 205v123h123v-123h-123z M328 410v122h123v-122h-123zM328 614v123h123v-123h-123zM328 819v123h123v-123h-123zM328 1024v123h123v-123h-123zM328 1229v123h123v-123h-123zM328 1434v122h123v-122h-123zM328 1843v123h123v-123h-123zM532 0v123h123v-123h-123zM532 205v123h123v-123h-123zM532 410 v122h123v-122h-123zM532 614v123h123v-123h-123zM532 819v123h123v-123h-123zM532 1024v123h123v-123h-123zM532 1229v123h123v-123h-123zM532 1434v122h123v-122h-123zM532 1843v123h123v-123h-123zM737 0v123h123v-123h-123zM737 205v123h123v-123h-123zM942 0v123h123 v-123h-123zM942 205v123h123v-123h-123zM1147 0v123h123v-123h-123zM1147 205v123h123v-123h-123zM1352 0v123h123v-123h-123zM1352 205v123h123v-123h-123zM1352 410v122h123v-122h-123zM1352 614v123h123v-123h-123zM1352 819v123h123v-123h-123zM1352 1024v123h123v-123 h-123zM1352 1229v123h123v-123h-123zM1352 1434v122h123v-122h-123zM1352 1843v123h123v-123h-123zM1556 0v123h123v-123h-123zM1556 205v123h123v-123h-123zM1556 410v122h123v-122h-123zM1556 614v123h123v-123h-123zM1556 819v123h123v-123h-123zM1556 1024v123h123v-123 h-123zM1556 1229v123h123v-123h-123zM1556 1434v122h123v-122h-123zM1556 1843v123h123v-123h-123zM1761 205v123h123v-123h-123zM1761 410v122h123v-122h-123zM1761 614v123h123v-123h-123zM1761 819v123h123v-123h-123zM1761 1024v123h123v-123h-123zM1761 1229v123h123 v-123h-123zM1761 1434v122h123v-122h-123z" />
<glyph unicode="&#xfe;" horiz-adv-x="1515" />
<glyph unicode="&#xff;" horiz-adv-x="1515" />
<glyph unicode="&#x152;" horiz-adv-x="3276" d="M123 207v119h123v-119h-123zM123 410v122h123v-122h-123zM123 614v125h123v-125h-123zM123 821v121h123v-121h-123zM123 1024v123h123v-123h-123zM123 1229v123h123v-123h-123zM328 0v123h121v-123h-121zM328 207v119h121v-119h-121zM328 410v122h121v-122h-121zM328 614 v125h121v-125h-121zM328 821v121h121v-121h-121zM328 1024v123h121v-123h-121zM328 1229v123h121v-123h-121zM328 1436v120h121v-120h-121zM532 0v123h123v-123h-123zM532 207v119h123v-119h-123zM532 410v122h123v-122h-123zM532 614v125h123v-125h-123zM532 821v121h123 v-121h-123zM532 1024v123h123v-123h-123zM532 1229v123h123v-123h-123zM532 1436v120h123v-120h-123zM737 0v123h123v-123h-123zM737 207v121h123v-121h-123zM737 1229v123h123v-123h-123zM737 1436v120h123v-120h-123zM944 0v123h121v-123h-121zM944 207v121h121v-121h-121 zM944 1229v123h121v-123h-121zM944 1436v120h121v-120h-121zM1147 0v123h123v-123h-123zM1147 207v121h123v-121h-123zM1147 1229v123h123v-123h-123zM1147 1436v120h123v-120h-123zM1352 0v119h123v-119h-123zM1352 207v119h123v-119h-123zM1352 410v122h123v-122h-123z M1352 614v125h123v-125h-123zM1352 821v121h123v-121h-123zM1352 1024v123h123v-123h-123zM1352 1229v123h123v-123h-123zM1352 1436v120h123v-120h-123zM1559 0v123h122v-123h-122zM1559 207v119h122v-119h-122zM1559 410v122h122v-122h-122zM1559 614v125h122v-125h-122z M1559 821v121h122v-121h-122zM1559 1024v123h122v-123h-122zM1559 1229v123h122v-123h-122zM1559 1436v120h122v-120h-122zM1761 0v123h123v-123h-123zM1761 207v119h123v-119h-123zM1761 410v122h123v-122h-123zM1761 614v125h123v-125h-123zM1761 821v121h123v-121h-123z M1761 1024v123h123v-123h-123zM1761 1229v123h123v-123h-123zM1761 1436v120h123v-120h-123zM1966 0v123h123v-123h-123zM1966 205v123h123v-123h-123zM1966 614v123h123v-123h-123zM1966 819v123h123v-123h-123zM1966 1229v123h123v-123h-123zM1966 1434v122h123v-122h-123 zM2171 0v123h123v-123h-123zM2171 205v123h123v-123h-123zM2171 614v123h123v-123h-123zM2171 819v123h123v-123h-123zM2171 1229v123h123v-123h-123zM2171 1434v122h123v-122h-123zM2376 0v123h123v-123h-123zM2376 205v123h123v-123h-123zM2376 614v123h123v-123h-123z M2376 819v123h123v-123h-123zM2376 1229v123h123v-123h-123zM2376 1434v122h123v-122h-123zM2580 0v123h123v-123h-123zM2580 205v123h123v-123h-123zM2580 614v123h123v-123h-123zM2580 819v123h123v-123h-123zM2580 1024v123h123v-123h-123zM2580 1229v123h123v-123h-123z M2580 1434v122h123v-122h-123zM2785 0v123h123v-123h-123zM2785 205v123h123v-123h-123zM2785 614v123h123v-123h-123zM2785 819v123h123v-123h-123zM2785 1024v123h123v-123h-123zM2785 1229v123h123v-123h-123zM2785 1434v122h123v-122h-123zM2990 0v123h123v-123h-123z M2990 205v123h123v-123h-123zM2990 614v123h123v-123h-123zM2990 819v123h123v-123h-123zM2990 1024v123h123v-123h-123zM2990 1229v123h123v-123h-123z" />
<glyph unicode="&#x153;" horiz-adv-x="3276" d="M123 207v119h123v-119h-123zM123 410v122h123v-122h-123zM123 614v125h123v-125h-123zM123 821v121h123v-121h-123zM123 1024v123h123v-123h-123zM123 1229v123h123v-123h-123zM328 0v123h121v-123h-121zM328 207v119h121v-119h-121zM328 410v122h121v-122h-121zM328 614 v125h121v-125h-121zM328 821v121h121v-121h-121zM328 1024v123h121v-123h-121zM328 1229v123h121v-123h-121zM328 1436v120h121v-120h-121zM532 0v123h123v-123h-123zM532 207v119h123v-119h-123zM532 410v122h123v-122h-123zM532 614v125h123v-125h-123zM532 821v121h123 v-121h-123zM532 1024v123h123v-123h-123zM532 1229v123h123v-123h-123zM532 1436v120h123v-120h-123zM737 0v123h123v-123h-123zM737 207v121h123v-121h-123zM737 1229v123h123v-123h-123zM737 1436v120h123v-120h-123zM944 0v123h121v-123h-121zM944 207v121h121v-121h-121 zM944 1229v123h121v-123h-121zM944 1436v120h121v-120h-121zM1147 0v123h123v-123h-123zM1147 207v121h123v-121h-123zM1147 1229v123h123v-123h-123zM1147 1436v120h123v-120h-123zM1352 0v119h123v-119h-123zM1352 207v119h123v-119h-123zM1352 410v122h123v-122h-123z M1352 614v125h123v-125h-123zM1352 821v121h123v-121h-123zM1352 1024v123h123v-123h-123zM1352 1229v123h123v-123h-123zM1352 1436v120h123v-120h-123zM1559 0v123h122v-123h-122zM1559 207v119h122v-119h-122zM1559 410v122h122v-122h-122zM1559 614v125h122v-125h-122z M1559 821v121h122v-121h-122zM1559 1024v123h122v-123h-122zM1559 1229v123h122v-123h-122zM1559 1436v120h122v-120h-122zM1761 0v123h123v-123h-123zM1761 207v119h123v-119h-123zM1761 410v122h123v-122h-123zM1761 614v125h123v-125h-123zM1761 821v121h123v-121h-123z M1761 1024v123h123v-123h-123zM1761 1229v123h123v-123h-123zM1761 1436v120h123v-120h-123zM1966 0v123h123v-123h-123zM1966 205v123h123v-123h-123zM1966 614v123h123v-123h-123zM1966 819v123h123v-123h-123zM1966 1229v123h123v-123h-123zM1966 1434v122h123v-122h-123 zM2171 0v123h123v-123h-123zM2171 205v123h123v-123h-123zM2171 614v123h123v-123h-123zM2171 819v123h123v-123h-123zM2171 1229v123h123v-123h-123zM2171 1434v122h123v-122h-123zM2376 0v123h123v-123h-123zM2376 205v123h123v-123h-123zM2376 614v123h123v-123h-123z M2376 819v123h123v-123h-123zM2376 1229v123h123v-123h-123zM2376 1434v122h123v-122h-123zM2580 0v123h123v-123h-123zM2580 205v123h123v-123h-123zM2580 614v123h123v-123h-123zM2580 819v123h123v-123h-123zM2580 1024v123h123v-123h-123zM2580 1229v123h123v-123h-123z M2580 1434v122h123v-122h-123zM2785 0v123h123v-123h-123zM2785 205v123h123v-123h-123zM2785 614v123h123v-123h-123zM2785 819v123h123v-123h-123zM2785 1024v123h123v-123h-123zM2785 1229v123h123v-123h-123zM2785 1434v122h123v-122h-123zM2990 0v123h123v-123h-123z M2990 205v123h123v-123h-123zM2990 614v123h123v-123h-123zM2990 819v123h123v-123h-123zM2990 1024v123h123v-123h-123zM2990 1229v123h123v-123h-123z" />
<glyph unicode="&#x178;" horiz-adv-x="2129" />
<glyph unicode="&#x2c6;" horiz-adv-x="901" />
<glyph unicode="&#x2dc;" horiz-adv-x="819" d="M123 1024v123h123v-123h-123zM123 1229v123h123v-123h-123zM123 1434v122h123v-122h-123zM532 1024v123h123v-123h-123zM532 1229v123h123v-123h-123zM532 1434v122h123v-122h-123z" />
<glyph unicode="&#x2000;" horiz-adv-x="1085" />
<glyph unicode="&#x2001;" horiz-adv-x="2171" />
<glyph unicode="&#x2002;" horiz-adv-x="1085" />
<glyph unicode="&#x2003;" horiz-adv-x="2171" />
<glyph unicode="&#x2004;" horiz-adv-x="723" />
<glyph unicode="&#x2005;" horiz-adv-x="542" />
<glyph unicode="&#x2006;" horiz-adv-x="361" />
<glyph unicode="&#x2007;" horiz-adv-x="361" />
<glyph unicode="&#x2008;" horiz-adv-x="271" />
<glyph unicode="&#x2009;" horiz-adv-x="434" />
<glyph unicode="&#x200a;" horiz-adv-x="120" />
<glyph unicode="&#x2010;" horiz-adv-x="1433" d="M123 819v123h123v-123h-123zM328 819v123h123v-123h-123zM532 819v123h123v-123h-123zM737 819v123h123v-123h-123zM942 819v123h123v-123h-123zM1147 819v123h123v-123h-123z" />
<glyph unicode="&#x2011;" horiz-adv-x="1433" d="M123 819v123h123v-123h-123zM328 819v123h123v-123h-123zM532 819v123h123v-123h-123zM737 819v123h123v-123h-123zM942 819v123h123v-123h-123zM1147 819v123h123v-123h-123z" />
<glyph unicode="&#x2012;" horiz-adv-x="1433" d="M123 819v123h123v-123h-123zM328 819v123h123v-123h-123zM532 819v123h123v-123h-123zM737 819v123h123v-123h-123zM942 819v123h123v-123h-123zM1147 819v123h123v-123h-123z" />
<glyph unicode="&#x2013;" horiz-adv-x="1433" d="M123 819v123h123v-123h-123zM328 819v123h123v-123h-123zM532 819v123h123v-123h-123zM737 819v123h123v-123h-123zM942 819v123h123v-123h-123zM1147 819v123h123v-123h-123z" />
<glyph unicode="&#x2014;" horiz-adv-x="1433" d="M123 819v123h123v-123h-123zM328 819v123h123v-123h-123zM532 819v123h123v-123h-123zM737 819v123h123v-123h-123zM942 819v123h123v-123h-123zM1147 819v123h123v-123h-123z" />
<glyph unicode="&#x2018;" horiz-adv-x="409" d="M123 1024v123h123v-123h-123zM123 1229v123h123v-123h-123zM123 1434v122h123v-122h-123z" />
<glyph unicode="&#x2019;" horiz-adv-x="409" d="M123 1024v123h123v-123h-123zM123 1229v123h123v-123h-123zM123 1434v122h123v-122h-123z" />
<glyph unicode="&#x201a;" horiz-adv-x="409" d="M123 0v123h123v-123h-123zM123 205v123h123v-123h-123zM123 410v122h123v-122h-123z" />
<glyph unicode="&#x201c;" horiz-adv-x="819" d="M123 1024v123h123v-123h-123zM123 1229v123h123v-123h-123zM123 1434v122h123v-122h-123zM532 1024v123h123v-123h-123zM532 1229v123h123v-123h-123zM532 1434v122h123v-122h-123z" />
<glyph unicode="&#x201d;" horiz-adv-x="819" d="M123 1024v123h123v-123h-123zM123 1229v123h123v-123h-123zM123 1434v122h123v-122h-123zM532 1024v123h123v-123h-123zM532 1229v123h123v-123h-123zM532 1434v122h123v-122h-123z" />
<glyph unicode="&#x201e;" horiz-adv-x="819" d="M123 0v123h123v-123h-123zM123 205v123h123v-123h-123zM123 410v122h123v-122h-123zM532 0v123h123v-123h-123zM532 205v123h123v-123h-123zM532 410v122h123v-122h-123z" />
<glyph unicode="&#x2022;" horiz-adv-x="819" d="M123 410v122h123v-122h-123zM123 614v123h123v-123h-123zM123 819v123h123v-123h-123zM328 410v122h123v-122h-123zM328 614v123h123v-123h-123zM328 819v123h123v-123h-123zM532 410v122h123v-122h-123zM532 614v123h123v-123h-123zM532 819v123h123v-123h-123z" />
<glyph unicode="&#x2026;" horiz-adv-x="1843" d="M123 0v123h123v-123h-123zM123 205v123h123v-123h-123zM328 0v123h123v-123h-123zM328 205v123h123v-123h-123zM737 0v123h123v-123h-123zM737 205v123h123v-123h-123zM942 0v123h123v-123h-123zM942 205v123h123v-123h-123zM1352 0v123h123v-123h-123zM1352 205v123h123 v-123h-123zM1556 0v123h123v-123h-123zM1556 205v123h123v-123h-123z" />
<glyph unicode="&#x202f;" horiz-adv-x="434" />
<glyph unicode="&#x2039;" horiz-adv-x="819" d="M123 614v123h123v-123h-123zM328 410v122h123v-122h-123zM328 819v123h123v-123h-123zM532 205v123h123v-123h-123zM532 1024v123h123v-123h-123z" />
<glyph unicode="&#x203a;" horiz-adv-x="819" d="M123 205v123h123v-123h-123zM123 1024v123h123v-123h-123zM328 410v122h123v-122h-123zM328 819v123h123v-123h-123zM532 614v123h123v-123h-123z" />
<glyph unicode="&#x205f;" horiz-adv-x="542" />
<glyph unicode="&#x20ac;" />
<glyph unicode="&#x2122;" d="M123 1434v122h123v-122h-123zM328 1024v123h123v-123h-123zM328 1229v123h123v-123h-123zM328 1434v122h123v-122h-123zM532 1434v122h123v-122h-123zM942 1024v123h123v-123h-123zM942 1229v123h123v-123h-123zM942 1434v122h123v-122h-123zM1147 1434v122h123v-122 h-123zM1352 1024v123h123v-123h-123zM1352 1229v123h123v-123h-123zM1352 1434v122h123v-122h-123zM1556 1434v122h123v-122h-123zM1761 1024v123h123v-123h-123zM1761 1229v123h123v-123h-123zM1761 1434v122h123v-122h-123z" />
<glyph unicode="&#x25fc;" horiz-adv-x="1556" d="M0 0v1556h1556v-1556h-1556z" />
<glyph unicode="&#xfb01;" horiz-adv-x="1024" />
</font>
</defs>
</svg>
